%
M48
M72
T01C0.0197
T02C0.0236
T03C0.0320
T04C0.0394
T05C0.0400
T06C0.0512
%
T01
X17622Y10491
X21834Y12498
X22307Y12341
X23488Y9900
X26126Y10609
X26519Y10097
X26795Y10687
X27425Y10648
X28685Y10963
X29197Y10963
X28173Y12065
X27779Y13365
X28094Y13719
X27740Y14073
X27189Y14546
X27779Y15372
X27189Y15569
X26441Y15333
X25102Y15412
X24984Y15924
X23212Y15569
X25063Y17892
X23606Y18680
X24590Y19034
X26480Y19270
X27031Y18246
X27700Y18246
X28606Y17774
X28291Y17380
X28724Y16987
X29866Y18325
X31047Y17538
X31519Y16632
X32267Y16396
X32582Y16081
X33330Y17026
X30220Y14546
X29748Y14546
X33252Y13680
X33763Y13050
X33370Y12065
X37307Y10136
X37307Y9546
X36283Y7971
X35220Y6711
X33330Y6081
X32425Y5372
X30712Y5924
X30102Y6081
X27779Y5569
X26362Y5727
X25771Y7617
X22976Y5727
X22228Y4979
X27976Y9782
X32346Y8128
X34039Y8837
X40378Y12183
X41126Y13483
X43212Y14782
X44905Y14270
X45141Y14703
X41204Y15333
X40889Y18483
X43212Y18404
X45260Y18404
X45063Y19782
X43685Y20530
X46677Y20924
X43173Y11120
X42346Y8955
X41519Y8876
X40732Y8876
X38350Y4624
X36480Y3994
X40063Y3128
X28567Y18916
X25850Y21081
T02
X33567Y18286
X16204Y8916
X22149Y3601
X15023Y14979
T03
X18224Y15270
X19224Y15270
X31795Y7644
X31795Y6644
X37858Y6294
X38858Y6294
X42106Y6345
X42106Y7345
X45106Y7345
X45106Y6345
X45106Y5345
X45106Y4345
X42106Y4345
X42106Y5345
X43551Y9593
X44480Y10002
X45480Y10002
X48480Y10002
X48480Y12002
X45480Y12002
X44480Y12002
X43551Y12593
X39618Y11711
X38618Y11711
X39571Y13522
X39571Y14506
X39571Y15491
X39571Y16475
X39571Y17459
X39571Y18443
X39571Y19467
X34571Y19467
X34571Y18443
X34571Y17459
X34571Y16475
X34571Y15491
X34571Y14506
X34571Y13522
X47267Y14254
X48094Y15239
X47267Y16254
X48094Y17239
X48122Y18069
X49027Y18069
X47216Y18077
X47216Y20077
X48122Y20069
X49027Y20069
T04
X19063Y18376
X18063Y18376
X17063Y18376
X16063Y18376
X15063Y18376
X15063Y17376
X16063Y17376
X17063Y17376
X18063Y17376
X19063Y17376
T05
X14480Y7900
X15480Y7900
X15480Y6900
X15480Y8900
X14480Y8900
X14480Y9900
X15480Y9900
X15480Y10900
X14480Y10900
X14480Y11900
X15480Y11900
X15480Y12900
X14480Y12900
X14480Y13900
X15480Y13900
X20980Y14491
X21980Y14491
X23342Y14522
X24342Y14522
X24342Y13522
X23342Y13522
X23342Y12522
X24342Y12522
X21980Y15491
X20980Y15491
X20980Y16491
X21980Y16491
X30598Y18691
X31598Y18691
X32598Y18691
X32598Y19691
X31598Y19691
X30598Y19691
X51047Y19565
X51047Y20565
X51047Y18565
X51047Y17565
X51047Y16565
X51047Y15565
X51047Y14565
X51047Y13565
X35730Y4650
X34730Y4650
X33730Y4650
X32730Y4650
X31730Y4650
X30730Y4650
X29730Y4650
X28730Y4650
X27730Y4650
X26730Y4650
X25730Y4650
X24730Y4650
X23730Y4650
X23730Y3650
X24730Y3650
X25730Y3650
X26730Y3650
X27730Y3650
X28730Y3650
X29730Y3650
X30730Y3650
X31730Y3650
X32730Y3650
X33730Y3650
X34730Y3650
X35730Y3650
T06
X50742Y3389
X50742Y5389
X50742Y7389
X50742Y9389
X50742Y11389
M30
