G75*
%MOIN*%
%OFA0B0*%
%FSLAX24Y24*%
%IPPOS*%
%LPD*%
%AMOC8*
5,1,8,0,0,1.08239X$1,22.5*
%
%ADD10C,0.0000*%
%ADD11C,0.0040*%
%ADD12C,0.0030*%
%ADD13C,0.0060*%
%ADD14C,0.0160*%
%ADD15R,0.0230X0.0160*%
D10*
X013330Y005412D02*
X013330Y021869D01*
X015456Y021869D01*
X015456Y020254D01*
X022189Y020254D01*
X022189Y021869D01*
X052543Y021869D01*
X052543Y002183D01*
X020693Y002183D01*
X020693Y008325D01*
X016283Y008325D01*
X016283Y005412D01*
X013330Y005412D01*
D11*
X024636Y011735D02*
X024713Y011658D01*
X024866Y011658D01*
X024943Y011735D01*
X024943Y011812D01*
X024866Y011888D01*
X024713Y011888D01*
X024636Y011812D01*
X024636Y011735D01*
X024713Y011888D02*
X024636Y011965D01*
X024636Y012042D01*
X024713Y012119D01*
X024866Y012119D01*
X024943Y012042D01*
X024943Y011965D01*
X024866Y011888D01*
X025096Y011658D02*
X025403Y011658D01*
X025250Y011658D02*
X025250Y012119D01*
X025403Y011965D01*
X025557Y011888D02*
X025633Y011812D01*
X025864Y011812D01*
X025864Y011658D02*
X025864Y012119D01*
X025633Y012119D01*
X025557Y012042D01*
X025557Y011888D01*
X025710Y011812D02*
X025557Y011658D01*
X026126Y014583D02*
X026049Y014660D01*
X026049Y014814D01*
X026126Y014890D01*
X026202Y014890D01*
X026356Y014814D01*
X026356Y015044D01*
X026049Y015044D01*
X026509Y015044D02*
X026509Y014660D01*
X026586Y014583D01*
X026740Y014583D01*
X026816Y014660D01*
X026816Y015044D01*
X026356Y014660D02*
X026279Y014583D01*
X026126Y014583D01*
X024623Y015918D02*
X024623Y016378D01*
X024393Y016378D01*
X024316Y016302D01*
X024316Y016148D01*
X024393Y016071D01*
X024623Y016071D01*
X024470Y016071D02*
X024316Y015918D01*
X024163Y015918D02*
X023856Y015918D01*
X024010Y015918D02*
X024010Y016378D01*
X024163Y016225D01*
X023703Y016302D02*
X023626Y016378D01*
X023472Y016378D01*
X023396Y016302D01*
X023396Y016225D01*
X023472Y016148D01*
X023396Y016071D01*
X023396Y015995D01*
X023472Y015918D01*
X023626Y015918D01*
X023703Y015995D01*
X023549Y016148D02*
X023472Y016148D01*
X014663Y016133D02*
X014663Y015979D01*
X014586Y015903D01*
X014586Y015749D02*
X014433Y015749D01*
X014356Y015673D01*
X014356Y015442D01*
X014203Y015442D02*
X014663Y015442D01*
X014663Y015673D01*
X014586Y015749D01*
X014356Y015596D02*
X014203Y015749D01*
X014203Y015903D02*
X014510Y016210D01*
X014586Y016210D01*
X014663Y016133D01*
X014586Y016363D02*
X014663Y016440D01*
X014663Y016593D01*
X014586Y016670D01*
X014510Y016670D01*
X014433Y016593D01*
X014356Y016670D01*
X014279Y016670D01*
X014203Y016593D01*
X014203Y016440D01*
X014279Y016363D01*
X014203Y016210D02*
X014203Y015903D01*
X014433Y016517D02*
X014433Y016593D01*
X014368Y018540D02*
X014368Y018770D01*
X014291Y018847D01*
X014138Y018847D01*
X014061Y018770D01*
X014061Y018540D01*
X013907Y018540D02*
X014368Y018540D01*
X014061Y018694D02*
X013907Y018847D01*
X013907Y019000D02*
X014214Y019307D01*
X014291Y019307D01*
X014368Y019231D01*
X014368Y019077D01*
X014291Y019000D01*
X013907Y019000D02*
X013907Y019307D01*
X013907Y019461D02*
X014214Y019768D01*
X014291Y019768D01*
X014368Y019691D01*
X014368Y019538D01*
X014291Y019461D01*
X013907Y019461D02*
X013907Y019768D01*
X034375Y006069D02*
X034375Y005993D01*
X034452Y005916D01*
X034375Y005839D01*
X034375Y005762D01*
X034452Y005686D01*
X034605Y005686D01*
X034682Y005762D01*
X034836Y005762D02*
X034912Y005686D01*
X035066Y005686D01*
X035143Y005762D01*
X035143Y005916D02*
X034989Y005993D01*
X034912Y005993D01*
X034836Y005916D01*
X034836Y005762D01*
X035143Y005916D02*
X035143Y006146D01*
X034836Y006146D01*
X034682Y006069D02*
X034605Y006146D01*
X034452Y006146D01*
X034375Y006069D01*
X034452Y005916D02*
X034529Y005916D01*
X035296Y005916D02*
X035373Y005839D01*
X035603Y005839D01*
X035603Y005686D02*
X035603Y006146D01*
X035373Y006146D01*
X035296Y006069D01*
X035296Y005916D01*
X035450Y005839D02*
X035296Y005686D01*
X038175Y005662D02*
X038175Y005739D01*
X038252Y005815D01*
X038405Y005815D01*
X038482Y005739D01*
X038635Y005739D02*
X038712Y005815D01*
X038942Y005815D01*
X038942Y005355D01*
X038712Y005355D01*
X038635Y005432D01*
X038635Y005739D01*
X038482Y005355D02*
X038175Y005355D01*
X038482Y005355D02*
X038175Y005662D01*
X041836Y003254D02*
X041913Y003331D01*
X042066Y003331D01*
X042143Y003254D01*
X042296Y003101D02*
X042603Y003101D01*
X042373Y003331D01*
X042373Y002871D01*
X042143Y002871D02*
X041836Y003178D01*
X041836Y003254D01*
X041836Y002871D02*
X042143Y002871D01*
X042757Y002871D02*
X042910Y003024D01*
X042833Y003024D02*
X043064Y003024D01*
X043064Y002871D02*
X043064Y003331D01*
X042833Y003331D01*
X042757Y003254D01*
X042757Y003101D01*
X042833Y003024D01*
X030997Y005253D02*
X030997Y005713D01*
X030766Y005713D01*
X030690Y005636D01*
X030690Y005483D01*
X030766Y005406D01*
X030997Y005406D01*
X030843Y005406D02*
X030690Y005253D01*
X030536Y005329D02*
X030460Y005253D01*
X030306Y005253D01*
X030229Y005329D01*
X030229Y005406D01*
X030306Y005483D01*
X030383Y005483D01*
X030306Y005483D02*
X030229Y005560D01*
X030229Y005636D01*
X030306Y005713D01*
X030460Y005713D01*
X030536Y005636D01*
X030076Y005483D02*
X029846Y005483D01*
X029769Y005406D01*
X029769Y005329D01*
X029846Y005253D01*
X029999Y005253D01*
X030076Y005329D01*
X030076Y005483D01*
X029922Y005636D01*
X029769Y005713D01*
X045686Y014682D02*
X045686Y014759D01*
X045379Y015065D01*
X045379Y015142D01*
X045686Y015142D01*
X045916Y015142D02*
X046147Y014912D01*
X045840Y014912D01*
X045916Y014682D02*
X045916Y015142D01*
X045840Y015469D02*
X046147Y015469D01*
X045840Y015776D01*
X045840Y015853D01*
X045916Y015930D01*
X046070Y015930D01*
X046147Y015853D01*
X046300Y015853D02*
X046300Y015699D01*
X046377Y015623D01*
X046607Y015623D01*
X046453Y015623D02*
X046300Y015469D01*
X046607Y015469D02*
X046607Y015930D01*
X046377Y015930D01*
X046300Y015853D01*
X045686Y015699D02*
X045686Y015546D01*
X045609Y015469D01*
X045456Y015469D01*
X045379Y015546D01*
X045379Y015623D01*
X045456Y015699D01*
X045686Y015699D01*
X045533Y015853D01*
X045379Y015930D01*
X046300Y015065D02*
X046300Y014912D01*
X046377Y014835D01*
X046607Y014835D01*
X046607Y014682D02*
X046607Y015142D01*
X046377Y015142D01*
X046300Y015065D01*
X046453Y014835D02*
X046300Y014682D01*
X047582Y011560D02*
X047505Y011483D01*
X047812Y011176D01*
X047735Y011099D01*
X047582Y011099D01*
X047505Y011176D01*
X047505Y011483D01*
X047582Y011560D02*
X047735Y011560D01*
X047812Y011483D01*
X047812Y011176D01*
X047966Y011099D02*
X048273Y011099D01*
X048426Y011099D02*
X048579Y011253D01*
X048503Y011253D02*
X048733Y011253D01*
X048733Y011099D02*
X048733Y011560D01*
X048503Y011560D01*
X048426Y011483D01*
X048426Y011329D01*
X048503Y011253D01*
X048273Y011406D02*
X048119Y011560D01*
X048119Y011099D01*
D12*
X048356Y014387D02*
X048602Y014387D01*
X048724Y014387D02*
X048971Y014387D01*
X048847Y014387D02*
X048847Y014758D01*
X048971Y014634D01*
X049092Y014696D02*
X049154Y014758D01*
X049277Y014758D01*
X049339Y014696D01*
X049339Y014449D01*
X049277Y014387D01*
X049154Y014387D01*
X049092Y014449D01*
X048602Y014634D02*
X048479Y014758D01*
X048479Y014387D01*
X048356Y015569D02*
X048602Y015569D01*
X048356Y015815D01*
X048356Y015877D01*
X048417Y015939D01*
X048541Y015939D01*
X048602Y015877D01*
X048847Y015939D02*
X048971Y015815D01*
X049092Y015877D02*
X049154Y015939D01*
X049277Y015939D01*
X049339Y015877D01*
X049339Y015630D01*
X049277Y015569D01*
X049154Y015569D01*
X049092Y015630D01*
X048971Y015569D02*
X048724Y015569D01*
X048847Y015569D02*
X048847Y015939D01*
X048808Y016356D02*
X048808Y016726D01*
X048931Y016603D01*
X049053Y016665D02*
X049114Y016726D01*
X049238Y016726D01*
X049300Y016665D01*
X049300Y016418D01*
X049238Y016356D01*
X049114Y016356D01*
X049053Y016418D01*
X048931Y016356D02*
X048684Y016356D01*
X048563Y016418D02*
X048501Y016356D01*
X048378Y016356D01*
X048316Y016418D01*
X048316Y016479D01*
X048378Y016541D01*
X048440Y016541D01*
X048378Y016541D02*
X048316Y016603D01*
X048316Y016665D01*
X048378Y016726D01*
X048501Y016726D01*
X048563Y016665D01*
X049677Y017852D02*
X049677Y018222D01*
X049862Y018037D01*
X049615Y018037D01*
X049984Y017852D02*
X050231Y017852D01*
X050107Y017852D02*
X050107Y018222D01*
X050231Y018099D01*
X050352Y018161D02*
X050414Y018222D01*
X050537Y018222D01*
X050599Y018161D01*
X050599Y017914D01*
X050537Y017852D01*
X050414Y017852D01*
X050352Y017914D01*
X049339Y018504D02*
X049277Y018443D01*
X049154Y018443D01*
X049092Y018504D01*
X048971Y018443D02*
X048724Y018443D01*
X048847Y018443D02*
X048847Y018813D01*
X048971Y018689D01*
X049092Y018751D02*
X049154Y018813D01*
X049277Y018813D01*
X049339Y018751D01*
X049339Y018504D01*
X048602Y018504D02*
X048541Y018443D01*
X048417Y018443D01*
X048356Y018504D01*
X048356Y018628D01*
X048417Y018689D01*
X048479Y018689D01*
X048602Y018628D01*
X048602Y018813D01*
X048356Y018813D01*
X048417Y019261D02*
X048356Y019323D01*
X048356Y019385D01*
X048417Y019447D01*
X048602Y019447D01*
X048602Y019323D01*
X048541Y019261D01*
X048417Y019261D01*
X048602Y019447D02*
X048479Y019570D01*
X048356Y019632D01*
X048847Y019632D02*
X048847Y019261D01*
X048724Y019261D02*
X048971Y019261D01*
X049092Y019323D02*
X049154Y019261D01*
X049277Y019261D01*
X049339Y019323D01*
X049339Y019570D01*
X049277Y019632D01*
X049154Y019632D01*
X049092Y019570D01*
X048971Y019508D02*
X048847Y019632D01*
X048804Y020446D02*
X048804Y020817D01*
X048927Y020693D01*
X049049Y020755D02*
X049111Y020817D01*
X049234Y020817D01*
X049296Y020755D01*
X049296Y020508D01*
X049234Y020446D01*
X049111Y020446D01*
X049049Y020508D01*
X048927Y020446D02*
X048681Y020446D01*
X048559Y020508D02*
X048312Y020755D01*
X048312Y020508D01*
X048374Y020446D01*
X048497Y020446D01*
X048559Y020508D01*
X048559Y020755D01*
X048497Y020817D01*
X048374Y020817D01*
X048312Y020755D01*
X034538Y007383D02*
X034538Y007136D01*
X034477Y007074D01*
X034353Y007074D01*
X034292Y007136D01*
X034170Y007136D02*
X034108Y007074D01*
X033985Y007074D01*
X033923Y007136D01*
X033923Y007197D01*
X033985Y007259D01*
X034047Y007259D01*
X033985Y007259D02*
X033923Y007321D01*
X033923Y007383D01*
X033985Y007444D01*
X034108Y007444D01*
X034170Y007383D01*
X034292Y007383D02*
X034353Y007444D01*
X034477Y007444D01*
X034538Y007383D01*
X033802Y007383D02*
X033740Y007444D01*
X033617Y007444D01*
X033555Y007383D01*
X033555Y007321D01*
X033617Y007259D01*
X033555Y007197D01*
X033555Y007136D01*
X033617Y007074D01*
X033740Y007074D01*
X033802Y007136D01*
X033678Y007259D02*
X033617Y007259D01*
X033617Y006834D02*
X033802Y006649D01*
X033555Y006649D01*
X033617Y006464D02*
X033617Y006834D01*
X033923Y006772D02*
X033985Y006834D01*
X034108Y006834D01*
X034170Y006772D01*
X034292Y006772D02*
X034353Y006834D01*
X034477Y006834D01*
X034538Y006772D01*
X034538Y006526D01*
X034477Y006464D01*
X034353Y006464D01*
X034292Y006526D01*
X034170Y006526D02*
X034108Y006464D01*
X033985Y006464D01*
X033923Y006526D01*
X033923Y006587D01*
X033985Y006649D01*
X034047Y006649D01*
X033985Y006649D02*
X033923Y006711D01*
X033923Y006772D01*
X017334Y019252D02*
X017272Y019190D01*
X017149Y019190D01*
X017087Y019252D01*
X016965Y019375D02*
X016780Y019561D01*
X016780Y019190D01*
X016597Y019190D02*
X016350Y019437D01*
X016350Y019499D01*
X016412Y019561D01*
X016535Y019561D01*
X016597Y019499D01*
X016719Y019375D02*
X016965Y019375D01*
X017087Y019499D02*
X017149Y019561D01*
X017272Y019561D01*
X017334Y019499D01*
X017334Y019252D01*
X016597Y019190D02*
X016350Y019190D01*
D13*
X028745Y007444D02*
X028745Y006844D01*
X028747Y006827D01*
X028751Y006810D01*
X028758Y006794D01*
X028768Y006780D01*
X028781Y006767D01*
X028795Y006757D01*
X028811Y006750D01*
X028828Y006746D01*
X028845Y006744D01*
X030995Y006744D01*
X030995Y006794D01*
X030995Y007494D01*
X030995Y007544D01*
X028845Y007544D01*
X028828Y007542D01*
X028811Y007538D01*
X028795Y007531D01*
X028781Y007521D01*
X028768Y007508D01*
X028758Y007494D01*
X028751Y007478D01*
X028747Y007461D01*
X028745Y007444D01*
X029495Y007144D02*
X029695Y007144D01*
X029695Y006944D01*
X029845Y006944D02*
X029845Y007344D01*
X029995Y007344D01*
X029995Y006944D01*
X029845Y006944D01*
X029695Y007144D02*
X029695Y007344D01*
X030145Y007344D02*
X030145Y007144D01*
X030145Y006944D01*
X030145Y007144D02*
X030345Y007144D01*
X030995Y006794D02*
X031145Y006794D01*
X031145Y007494D01*
X030995Y007494D01*
X036983Y005357D02*
X036983Y005037D01*
X036983Y005357D02*
X037203Y005357D01*
X037883Y005357D02*
X038103Y005357D01*
X038103Y005037D01*
D14*
X031495Y006944D02*
X031345Y006944D01*
X031295Y007344D02*
X031495Y007344D01*
D15*
X031280Y007344D03*
X031280Y006944D03*
M02*
