G75*
%MOIN*%
%OFA0B0*%
%FSLAX24Y24*%
%IPPOS*%
%LPD*%
%AMOC8*
5,1,8,0,0,1.08239X$1,22.5*
%
%ADD10C,0.0000*%
%ADD11R,0.0433X0.0394*%
%ADD12R,0.0512X0.0315*%
%ADD13R,0.0394X0.0433*%
%ADD14R,0.0220X0.0500*%
%ADD15R,0.0500X0.0220*%
%ADD16R,0.0413X0.0425*%
%ADD17R,0.0425X0.0413*%
%ADD18OC8,0.0787*%
%ADD19OC8,0.0520*%
%ADD20R,0.0394X0.0551*%
%ADD21R,0.0453X0.0236*%
%ADD22R,0.0800X0.0260*%
%ADD23R,0.0512X0.0630*%
%ADD24R,0.0630X0.0512*%
%ADD25OC8,0.0660*%
%ADD26OC8,0.0630*%
%ADD27R,0.0236X0.0866*%
%ADD28R,0.0866X0.0236*%
%ADD29OC8,0.0600*%
%ADD30R,0.0472X0.0472*%
%ADD31R,0.0860X0.0220*%
%ADD32R,0.0630X0.0531*%
%ADD33R,0.0236X0.0472*%
%ADD34R,0.0472X0.0236*%
%ADD35C,0.0160*%
%ADD36C,0.0317*%
%ADD37C,0.0240*%
%ADD38C,0.0197*%
%ADD39C,0.0118*%
%ADD40C,0.0356*%
%ADD41C,0.0082*%
%ADD42C,0.0100*%
%ADD43C,0.0320*%
D10*
X013330Y005412D02*
X013330Y021869D01*
X015456Y021869D01*
X015456Y020254D01*
X022189Y020254D01*
X022189Y021869D01*
X052543Y021869D01*
X052543Y002183D01*
X020693Y002183D01*
X020693Y008325D01*
X016283Y008325D01*
X016283Y005412D01*
X013330Y005412D01*
D11*
X016834Y010904D03*
X017622Y010904D03*
X018409Y010904D03*
X019315Y010865D03*
X020102Y010865D03*
X020889Y010865D03*
X020889Y011534D03*
X020102Y011534D03*
X019315Y011534D03*
X018409Y011573D03*
X017622Y011573D03*
X016834Y011573D03*
X021008Y012951D03*
X021008Y013620D03*
X022897Y011298D03*
X023685Y011298D03*
X024472Y011298D03*
X024472Y010628D03*
X023685Y010628D03*
X022897Y010628D03*
X025260Y010628D03*
X025260Y011298D03*
X025260Y011809D03*
X025260Y012479D03*
X028539Y010396D03*
X029342Y010428D03*
X029342Y009758D03*
X028539Y009727D03*
X031441Y009723D03*
X031441Y009054D03*
X030968Y007164D03*
X030968Y006494D03*
X040811Y010904D03*
X040811Y011573D03*
X041126Y012203D03*
X041126Y012872D03*
X049315Y015865D03*
X049315Y016534D03*
X045681Y019711D03*
X045681Y020380D03*
X042767Y019774D03*
X042767Y019105D03*
X043988Y007065D03*
X043988Y006396D03*
X043988Y005376D03*
X043988Y004707D03*
X014275Y015392D03*
X014275Y016061D03*
D12*
X046224Y007325D03*
X046224Y006262D03*
X046141Y004727D03*
X046141Y003664D03*
X048582Y003664D03*
X048582Y004727D03*
X048665Y006262D03*
X048665Y007325D03*
D13*
X039492Y003876D03*
X038823Y003876D03*
X037606Y004597D03*
X036937Y004597D03*
X029464Y005833D03*
X028795Y005833D03*
X035949Y009546D03*
X036618Y009546D03*
X034740Y012077D03*
X034071Y012077D03*
X030082Y011908D03*
X029413Y011908D03*
X031870Y014361D03*
X032539Y014361D03*
X025866Y016699D03*
X025197Y016699D03*
X028980Y019664D03*
X029649Y019664D03*
X025358Y021081D03*
X024689Y021081D03*
X042244Y020439D03*
X042913Y020439D03*
D14*
X028574Y016141D03*
X028260Y016141D03*
X027945Y016141D03*
X027630Y016141D03*
X027315Y016141D03*
X027000Y016141D03*
X026685Y016141D03*
X026370Y016141D03*
X026370Y012761D03*
X026685Y012761D03*
X027000Y012761D03*
X027315Y012761D03*
X027630Y012761D03*
X027945Y012761D03*
X028260Y012761D03*
X028574Y012761D03*
D15*
X029162Y013349D03*
X029162Y013664D03*
X029162Y013979D03*
X029162Y014294D03*
X029162Y014609D03*
X029162Y014924D03*
X029162Y015239D03*
X029162Y015554D03*
X025782Y015554D03*
X025782Y015239D03*
X025782Y014924D03*
X025782Y014609D03*
X025782Y014294D03*
X025782Y013979D03*
X025782Y013664D03*
X025782Y013349D03*
D16*
X023049Y009904D03*
X022360Y009904D03*
X027104Y005967D03*
X027793Y005967D03*
X031175Y005924D03*
X031864Y005924D03*
X035466Y007420D03*
X036155Y007420D03*
X035939Y010136D03*
X036628Y010136D03*
X038813Y004624D03*
X039502Y004624D03*
X037612Y003994D03*
X036923Y003994D03*
X038852Y003128D03*
X039541Y003128D03*
X029659Y018916D03*
X028970Y018916D03*
X025761Y019034D03*
X025073Y019034D03*
D17*
X023606Y018197D03*
X023606Y017508D03*
X027031Y017725D03*
X027700Y017725D03*
X027700Y017036D03*
X027031Y017036D03*
X029866Y017193D03*
X029866Y017882D03*
X032267Y017528D03*
X032267Y016839D03*
X027425Y011819D03*
X026795Y011819D03*
X026795Y011130D03*
X027425Y011130D03*
X026519Y009615D03*
X026519Y008926D03*
X022228Y006150D03*
X022228Y005461D03*
X022622Y004260D03*
X022622Y003571D03*
X021834Y012941D03*
X021834Y013630D03*
X015023Y015382D03*
X015023Y016071D03*
X041204Y014890D03*
X041204Y014201D03*
X042346Y010205D03*
X042346Y009516D03*
X041480Y007174D03*
X041480Y006485D03*
X041441Y005205D03*
X041441Y004516D03*
D18*
X050742Y005389D03*
X050742Y007389D03*
X050742Y009389D03*
X050742Y011389D03*
X050742Y003389D03*
D19*
X045106Y004345D03*
X045106Y005345D03*
X045106Y006345D03*
X045106Y007345D03*
X042106Y007345D03*
X042106Y006345D03*
X042106Y005345D03*
X042106Y004345D03*
X043551Y009593D03*
X044480Y010002D03*
X045480Y010002D03*
X048480Y010002D03*
X048480Y012002D03*
X045480Y012002D03*
X044480Y012002D03*
X043551Y012593D03*
X047267Y014254D03*
X048094Y015239D03*
X047267Y016254D03*
X048094Y017239D03*
X048122Y018069D03*
X049027Y018069D03*
X047216Y018077D03*
X047216Y020077D03*
X048122Y020069D03*
X049027Y020069D03*
X039571Y019467D03*
X039571Y018443D03*
X039571Y017459D03*
X039571Y016475D03*
X039571Y015491D03*
X039571Y014506D03*
X039571Y013522D03*
X034571Y013522D03*
X034571Y014506D03*
X034571Y015491D03*
X034571Y016475D03*
X034571Y017459D03*
X034571Y018443D03*
X034571Y019467D03*
X031795Y007644D03*
X031795Y006644D03*
D20*
X041854Y011254D03*
X042602Y011254D03*
X042228Y012120D03*
D21*
X043523Y019246D03*
X043523Y019620D03*
X043523Y019994D03*
X044508Y019994D03*
X044508Y019620D03*
X044508Y019246D03*
D22*
X046212Y018607D03*
X046212Y018107D03*
X046212Y017607D03*
X046212Y017107D03*
X046212Y016607D03*
X046212Y016107D03*
X046212Y015607D03*
X046212Y015107D03*
X046212Y014607D03*
X046212Y014107D03*
X042252Y014107D03*
X042252Y014607D03*
X042252Y015107D03*
X042252Y015607D03*
X042252Y016107D03*
X042252Y016607D03*
X042252Y017107D03*
X042252Y017607D03*
X042252Y018107D03*
X042252Y018607D03*
D23*
X047346Y020924D03*
X048134Y020924D03*
X027779Y019270D03*
X026992Y019270D03*
X017504Y008916D03*
X016716Y008916D03*
D24*
X040732Y009428D03*
X041519Y009428D03*
X041519Y010215D03*
X040732Y010215D03*
X040889Y018994D03*
X040889Y019782D03*
D25*
X019063Y018376D03*
X018063Y018376D03*
X017063Y018376D03*
X016063Y018376D03*
X015063Y018376D03*
X015063Y017376D03*
X016063Y017376D03*
X017063Y017376D03*
X018063Y017376D03*
X019063Y017376D03*
X015480Y013900D03*
X014480Y013900D03*
X014480Y012900D03*
X015480Y012900D03*
X015480Y011900D03*
X014480Y011900D03*
X014480Y010900D03*
X015480Y010900D03*
X015480Y009900D03*
X014480Y009900D03*
X014480Y008900D03*
X015480Y008900D03*
X015480Y007900D03*
X014480Y007900D03*
X015480Y006900D03*
X023730Y004650D03*
X024730Y004650D03*
X025730Y004650D03*
X026730Y004650D03*
X027730Y004650D03*
X028730Y004650D03*
X029730Y004650D03*
X030730Y004650D03*
X031730Y004650D03*
X032730Y004650D03*
X033730Y004650D03*
X034730Y004650D03*
X035730Y004650D03*
X035730Y003650D03*
X034730Y003650D03*
X033730Y003650D03*
X032730Y003650D03*
X031730Y003650D03*
X030730Y003650D03*
X029730Y003650D03*
X028730Y003650D03*
X027730Y003650D03*
X026730Y003650D03*
X025730Y003650D03*
X024730Y003650D03*
X023730Y003650D03*
D26*
X037858Y006294D03*
X038858Y006294D03*
X038618Y011711D03*
X039618Y011711D03*
X019224Y015270D03*
X018224Y015270D03*
D27*
X022815Y008876D03*
X023315Y008876D03*
X023815Y008876D03*
X024315Y008876D03*
X024815Y008876D03*
X025315Y008876D03*
X025815Y008876D03*
X027106Y008876D03*
X027606Y008876D03*
X028106Y008876D03*
X028606Y008876D03*
X029106Y008876D03*
X029606Y008876D03*
X030106Y008876D03*
X030106Y006829D03*
X029606Y006829D03*
X029106Y006829D03*
X028606Y006829D03*
X028106Y006829D03*
X027606Y006829D03*
X027106Y006829D03*
X025815Y006829D03*
X025315Y006829D03*
X024815Y006829D03*
X024315Y006829D03*
X023815Y006829D03*
X023315Y006829D03*
X022815Y006829D03*
D28*
X032740Y008559D03*
X032740Y009059D03*
X032740Y009559D03*
X032740Y010059D03*
X034787Y010059D03*
X034787Y009559D03*
X034787Y009059D03*
X034787Y008559D03*
D29*
X024342Y012522D03*
X023342Y012522D03*
X023342Y013522D03*
X024342Y013522D03*
X024342Y014522D03*
X023342Y014522D03*
X021980Y014491D03*
X020980Y014491D03*
X020980Y015491D03*
X021980Y015491D03*
X021980Y016491D03*
X020980Y016491D03*
X030598Y018691D03*
X031598Y018691D03*
X032598Y018691D03*
X032598Y019691D03*
X031598Y019691D03*
X030598Y019691D03*
X051047Y019565D03*
X051047Y020565D03*
X051047Y018565D03*
X051047Y017565D03*
X051047Y016565D03*
X051047Y015565D03*
X051047Y014565D03*
X051047Y013565D03*
D30*
X031578Y011908D03*
X030752Y011908D03*
X024059Y021120D03*
X023232Y021120D03*
D31*
X032637Y007422D03*
X032637Y006922D03*
X032637Y006422D03*
X032637Y005922D03*
X034497Y005922D03*
X034497Y006422D03*
X034497Y006922D03*
X034497Y007422D03*
D32*
X025752Y017528D03*
X025752Y018335D03*
X024374Y018335D03*
X024374Y017528D03*
D33*
X032838Y017540D03*
X033586Y017540D03*
X033586Y016512D03*
X033212Y016512D03*
X032838Y016512D03*
D34*
X031522Y016967D03*
X031522Y017341D03*
X031522Y017715D03*
X030493Y017715D03*
X030493Y016967D03*
D35*
X029856Y017124D02*
X029866Y017193D01*
X029866Y017882D02*
X029866Y018325D01*
X029791Y018303D01*
X029866Y018050D01*
X029941Y018303D01*
X029866Y018325D01*
X031047Y017538D02*
X031010Y017469D01*
X031242Y017343D01*
X031116Y017575D01*
X031047Y017538D01*
X031244Y017341D01*
X031522Y017341D01*
X032267Y016839D02*
X032267Y016396D01*
X032343Y016418D01*
X032267Y016672D01*
X032192Y016418D01*
X032267Y016396D01*
X033212Y016512D02*
X033212Y016908D01*
X033330Y017026D01*
X033253Y017038D01*
X033212Y016777D01*
X033389Y016974D01*
X033330Y017026D01*
X027945Y016141D02*
X027945Y015538D01*
X027779Y015372D01*
X027853Y015345D01*
X027945Y015593D01*
X027732Y015435D01*
X027779Y015372D01*
X027266Y015555D02*
X027315Y015814D01*
X027132Y015624D01*
X027189Y015569D01*
X027266Y015555D01*
X027189Y015569D02*
X027315Y015695D01*
X027315Y016141D01*
X025752Y017528D02*
X025191Y017528D01*
X025063Y017656D01*
X025063Y017892D01*
X025138Y017914D01*
X025063Y018168D01*
X024987Y017914D01*
X025063Y017892D01*
X024991Y017860D01*
X025100Y017619D01*
X025140Y017880D01*
X025063Y017892D01*
X025063Y018207D01*
X024935Y018335D01*
X024374Y018335D01*
X023681Y018657D02*
X023606Y018680D01*
X023531Y018657D01*
X023606Y018404D01*
X023681Y018657D01*
X023606Y018680D02*
X023606Y018197D01*
X024613Y018959D02*
X024590Y019034D01*
X024613Y019109D01*
X024866Y019034D01*
X024613Y018959D01*
X024590Y019034D02*
X025073Y019034D01*
X025358Y021081D02*
X025850Y021081D01*
X025828Y021156D01*
X025574Y021081D01*
X025828Y021006D01*
X025850Y021081D01*
X015883Y016160D02*
X015883Y014934D01*
X016637Y014180D01*
X016637Y011932D01*
X016551Y011932D01*
X016456Y011837D01*
X016456Y011423D01*
X016356Y011323D01*
X016198Y011165D01*
X016198Y010485D01*
X016317Y010366D01*
X016868Y009815D01*
X019506Y009815D01*
X020254Y009067D01*
X020884Y009067D01*
X021120Y008831D01*
X021277Y008674D01*
X021277Y007690D01*
X021395Y007572D01*
X021395Y003241D01*
X021514Y003122D01*
X021908Y002729D01*
X025619Y002729D01*
X025738Y002847D01*
X025901Y003010D01*
X026637Y003010D01*
X026637Y003158D01*
X026934Y003158D01*
X027222Y003446D01*
X027222Y003854D01*
X026934Y004142D01*
X026637Y004142D01*
X026637Y004158D01*
X026934Y004158D01*
X027222Y004446D01*
X027222Y004854D01*
X027142Y004933D01*
X027320Y004933D01*
X027240Y004853D01*
X027240Y004670D01*
X027710Y004670D01*
X027710Y004630D01*
X027750Y004630D01*
X027750Y004160D01*
X027933Y004160D01*
X028088Y004315D01*
X028088Y004005D01*
X028239Y003854D01*
X028238Y003854D01*
X028238Y003446D01*
X028370Y003315D01*
X028370Y002420D01*
X020968Y002420D01*
X020968Y008680D01*
X017920Y008680D01*
X017920Y008868D01*
X017552Y008868D01*
X017552Y008964D01*
X017920Y008964D01*
X017920Y009252D01*
X017909Y009292D01*
X017888Y009329D01*
X017858Y009359D01*
X017821Y009380D01*
X017781Y009391D01*
X017552Y009391D01*
X017552Y008964D01*
X017456Y008964D01*
X017456Y009391D01*
X017227Y009391D01*
X017186Y009380D01*
X017149Y009359D01*
X017120Y009329D01*
X017114Y009318D01*
X017039Y009393D01*
X016393Y009393D01*
X016298Y009298D01*
X016298Y009245D01*
X016272Y009256D01*
X016246Y009256D01*
X016236Y009258D01*
X016220Y009256D01*
X016137Y009256D01*
X016012Y009204D01*
X015942Y009134D01*
X015684Y009392D01*
X015276Y009392D01*
X014988Y009104D01*
X014988Y008696D01*
X015276Y008408D01*
X015684Y008408D01*
X015957Y008682D01*
X016012Y008628D01*
X016047Y008613D01*
X016047Y005884D01*
X013921Y005884D01*
X013921Y015114D01*
X013931Y015097D01*
X013960Y015067D01*
X013997Y015046D01*
X014038Y015035D01*
X014257Y015035D01*
X014257Y015374D01*
X014294Y015374D01*
X014294Y015035D01*
X014513Y015035D01*
X014554Y015046D01*
X014590Y015067D01*
X014620Y015097D01*
X014641Y015134D01*
X014649Y015163D01*
X014649Y015109D01*
X014691Y015066D01*
X014683Y015046D01*
X014683Y015020D01*
X014681Y015010D01*
X014683Y014994D01*
X014683Y014911D01*
X014735Y014786D01*
X014831Y014691D01*
X014956Y014639D01*
X015091Y014639D01*
X015216Y014691D01*
X015312Y014786D01*
X015363Y014911D01*
X015363Y014994D01*
X015366Y015010D01*
X015366Y015010D01*
X015366Y015010D01*
X015363Y015020D01*
X015363Y015046D01*
X015355Y015066D01*
X015398Y015109D01*
X015398Y015656D01*
X015883Y015656D01*
X015883Y015814D02*
X015398Y015814D01*
X015398Y015798D02*
X015398Y016160D01*
X015883Y016160D01*
X015883Y016131D02*
X015398Y016131D01*
X015398Y015973D02*
X015883Y015973D01*
X015398Y015798D02*
X015327Y015727D01*
X015398Y015656D01*
X015398Y015497D02*
X015883Y015497D01*
X015883Y015339D02*
X015398Y015339D01*
X015398Y015180D02*
X015883Y015180D01*
X015883Y015022D02*
X015363Y015022D01*
X015344Y014863D02*
X015954Y014863D01*
X016113Y014705D02*
X015230Y014705D01*
X015276Y014392D02*
X014988Y014104D01*
X014988Y013696D01*
X015276Y013408D01*
X015684Y013408D01*
X015972Y013696D01*
X015972Y014104D01*
X015684Y014392D01*
X015276Y014392D01*
X015272Y014388D02*
X014688Y014388D01*
X014684Y014392D02*
X014276Y014392D01*
X013988Y014104D01*
X013988Y013696D01*
X014276Y013408D01*
X014684Y013408D01*
X014972Y013696D01*
X014972Y014104D01*
X014684Y014392D01*
X014846Y014229D02*
X015114Y014229D01*
X014988Y014071D02*
X014972Y014071D01*
X014972Y013912D02*
X014988Y013912D01*
X014972Y013754D02*
X014988Y013754D01*
X015089Y013595D02*
X014871Y013595D01*
X014713Y013437D02*
X015247Y013437D01*
X015276Y013392D02*
X014988Y013104D01*
X014988Y012696D01*
X015276Y012408D01*
X015684Y012408D01*
X015972Y012696D01*
X015972Y013104D01*
X015684Y013392D01*
X015276Y013392D01*
X015163Y013278D02*
X014797Y013278D01*
X014684Y013392D02*
X014276Y013392D01*
X013988Y013104D01*
X013988Y012696D01*
X014276Y012408D01*
X014684Y012408D01*
X014972Y012696D01*
X014972Y013104D01*
X014684Y013392D01*
X014956Y013120D02*
X015004Y013120D01*
X014988Y012961D02*
X014972Y012961D01*
X014972Y012803D02*
X014988Y012803D01*
X015040Y012644D02*
X014920Y012644D01*
X014762Y012486D02*
X015198Y012486D01*
X015276Y012392D02*
X014988Y012104D01*
X014988Y011696D01*
X015276Y011408D01*
X015684Y011408D01*
X015972Y011696D01*
X015972Y012104D01*
X015684Y012392D01*
X015276Y012392D01*
X015212Y012327D02*
X014748Y012327D01*
X014684Y012392D02*
X014276Y012392D01*
X013988Y012104D01*
X013988Y011696D01*
X014276Y011408D01*
X014684Y011408D01*
X014972Y011696D01*
X014972Y012104D01*
X014684Y012392D01*
X014907Y012169D02*
X015053Y012169D01*
X014988Y012010D02*
X014972Y012010D01*
X014972Y011852D02*
X014988Y011852D01*
X014991Y011693D02*
X014969Y011693D01*
X014811Y011535D02*
X015149Y011535D01*
X015276Y011392D02*
X014988Y011104D01*
X014988Y010696D01*
X015276Y010408D01*
X015684Y010408D01*
X015972Y010696D01*
X015972Y011104D01*
X015684Y011392D01*
X015276Y011392D01*
X015261Y011376D02*
X014699Y011376D01*
X014684Y011392D02*
X014276Y011392D01*
X013988Y011104D01*
X013988Y010696D01*
X014276Y010408D01*
X014684Y010408D01*
X014972Y010696D01*
X014972Y011104D01*
X014684Y011392D01*
X014858Y011218D02*
X015102Y011218D01*
X014988Y011059D02*
X014972Y011059D01*
X014972Y010901D02*
X014988Y010901D01*
X014972Y010742D02*
X014988Y010742D01*
X015100Y010584D02*
X014860Y010584D01*
X014701Y010425D02*
X015259Y010425D01*
X015276Y010392D02*
X014988Y010104D01*
X014988Y009696D01*
X015276Y009408D01*
X015684Y009408D01*
X015972Y009696D01*
X015972Y010104D01*
X015684Y010392D01*
X015276Y010392D01*
X015151Y010267D02*
X014809Y010267D01*
X014684Y010392D02*
X014276Y010392D01*
X013988Y010104D01*
X013988Y009696D01*
X014276Y009408D01*
X014684Y009408D01*
X014972Y009696D01*
X014972Y010104D01*
X014684Y010392D01*
X014967Y010108D02*
X014993Y010108D01*
X014988Y009950D02*
X014972Y009950D01*
X014972Y009791D02*
X014988Y009791D01*
X015051Y009633D02*
X014909Y009633D01*
X014750Y009474D02*
X015210Y009474D01*
X015200Y009316D02*
X014760Y009316D01*
X014684Y009392D02*
X014276Y009392D01*
X013988Y009104D01*
X013988Y008696D01*
X014276Y008408D01*
X014684Y008408D01*
X014972Y008696D01*
X014972Y009104D01*
X014684Y009392D01*
X014918Y009157D02*
X015042Y009157D01*
X014988Y008999D02*
X014972Y008999D01*
X014972Y008840D02*
X014988Y008840D01*
X015002Y008682D02*
X014958Y008682D01*
X014799Y008523D02*
X015161Y008523D01*
X015276Y008392D02*
X014988Y008104D01*
X014988Y007696D01*
X015276Y007408D01*
X015684Y007408D01*
X015972Y007696D01*
X015972Y008104D01*
X015684Y008392D01*
X015276Y008392D01*
X015249Y008365D02*
X014711Y008365D01*
X014684Y008392D02*
X014276Y008392D01*
X013988Y008104D01*
X013988Y007696D01*
X014276Y007408D01*
X014684Y007408D01*
X014972Y007696D01*
X014972Y008104D01*
X014684Y008392D01*
X014869Y008206D02*
X015091Y008206D01*
X014988Y008048D02*
X014972Y008048D01*
X014972Y007889D02*
X014988Y007889D01*
X014972Y007731D02*
X014988Y007731D01*
X015112Y007572D02*
X014848Y007572D01*
X014690Y007414D02*
X015270Y007414D01*
X015276Y007392D02*
X014988Y007104D01*
X014988Y006696D01*
X015276Y006408D01*
X015684Y006408D01*
X015972Y006696D01*
X015972Y007104D01*
X015684Y007392D01*
X015276Y007392D01*
X015140Y007255D02*
X013921Y007255D01*
X013921Y007097D02*
X014988Y007097D01*
X014988Y006938D02*
X013921Y006938D01*
X013921Y006780D02*
X014988Y006780D01*
X015063Y006621D02*
X013921Y006621D01*
X013921Y006463D02*
X015221Y006463D01*
X015739Y006463D02*
X016047Y006463D01*
X016047Y006621D02*
X015897Y006621D01*
X015972Y006780D02*
X016047Y006780D01*
X016047Y006938D02*
X015972Y006938D01*
X015972Y007097D02*
X016047Y007097D01*
X016047Y007255D02*
X015820Y007255D01*
X015690Y007414D02*
X016047Y007414D01*
X016047Y007572D02*
X015848Y007572D01*
X015972Y007731D02*
X016047Y007731D01*
X016047Y007889D02*
X015972Y007889D01*
X015972Y008048D02*
X016047Y008048D01*
X016047Y008206D02*
X015869Y008206D01*
X015711Y008365D02*
X016047Y008365D01*
X016047Y008523D02*
X015799Y008523D01*
X015918Y009157D02*
X015965Y009157D01*
X015760Y009316D02*
X016317Y009316D01*
X016236Y009258D02*
X016236Y009258D01*
X016236Y009258D01*
X015909Y009633D02*
X019689Y009633D01*
X019847Y009474D02*
X015750Y009474D01*
X015972Y009791D02*
X019530Y009791D01*
X020006Y009316D02*
X017895Y009316D01*
X017920Y009157D02*
X020164Y009157D01*
X020952Y008999D02*
X017920Y008999D01*
X017920Y008840D02*
X021111Y008840D01*
X021269Y008682D02*
X017920Y008682D01*
X017552Y008999D02*
X017456Y008999D01*
X017456Y009157D02*
X017552Y009157D01*
X017552Y009316D02*
X017456Y009316D01*
X016734Y009950D02*
X015972Y009950D01*
X015967Y010108D02*
X016575Y010108D01*
X016417Y010267D02*
X015809Y010267D01*
X015701Y010425D02*
X016258Y010425D01*
X016198Y010584D02*
X015860Y010584D01*
X015972Y010742D02*
X016198Y010742D01*
X016198Y010901D02*
X015972Y010901D01*
X015972Y011059D02*
X016198Y011059D01*
X016251Y011218D02*
X015858Y011218D01*
X015699Y011376D02*
X016410Y011376D01*
X016456Y011535D02*
X015811Y011535D01*
X015969Y011693D02*
X016456Y011693D01*
X016471Y011852D02*
X015972Y011852D01*
X015972Y012010D02*
X016637Y012010D01*
X016637Y012169D02*
X015907Y012169D01*
X015748Y012327D02*
X016637Y012327D01*
X016637Y012486D02*
X015762Y012486D01*
X015920Y012644D02*
X016637Y012644D01*
X016637Y012803D02*
X015972Y012803D01*
X015972Y012961D02*
X016637Y012961D01*
X016637Y013120D02*
X015956Y013120D01*
X015797Y013278D02*
X016637Y013278D01*
X016637Y013437D02*
X015713Y013437D01*
X015871Y013595D02*
X016637Y013595D01*
X016637Y013754D02*
X015972Y013754D01*
X015972Y013912D02*
X016637Y013912D01*
X016637Y014071D02*
X015972Y014071D01*
X015846Y014229D02*
X016588Y014229D01*
X016430Y014388D02*
X015688Y014388D01*
X016271Y014546D02*
X013921Y014546D01*
X013921Y014388D02*
X014272Y014388D01*
X014114Y014229D02*
X013921Y014229D01*
X013921Y014071D02*
X013988Y014071D01*
X013988Y013912D02*
X013921Y013912D01*
X013921Y013754D02*
X013988Y013754D01*
X013921Y013595D02*
X014089Y013595D01*
X014247Y013437D02*
X013921Y013437D01*
X013921Y013278D02*
X014163Y013278D01*
X014004Y013120D02*
X013921Y013120D01*
X013921Y012961D02*
X013988Y012961D01*
X013988Y012803D02*
X013921Y012803D01*
X013921Y012644D02*
X014040Y012644D01*
X013921Y012486D02*
X014198Y012486D01*
X014212Y012327D02*
X013921Y012327D01*
X013921Y012169D02*
X014053Y012169D01*
X013988Y012010D02*
X013921Y012010D01*
X013921Y011852D02*
X013988Y011852D01*
X013991Y011693D02*
X013921Y011693D01*
X013921Y011535D02*
X014149Y011535D01*
X014261Y011376D02*
X013921Y011376D01*
X013921Y011218D02*
X014102Y011218D01*
X013988Y011059D02*
X013921Y011059D01*
X013921Y010901D02*
X013988Y010901D01*
X013988Y010742D02*
X013921Y010742D01*
X013921Y010584D02*
X014100Y010584D01*
X014259Y010425D02*
X013921Y010425D01*
X013921Y010267D02*
X014151Y010267D01*
X013993Y010108D02*
X013921Y010108D01*
X013921Y009950D02*
X013988Y009950D01*
X013988Y009791D02*
X013921Y009791D01*
X013921Y009633D02*
X014051Y009633D01*
X013921Y009474D02*
X014210Y009474D01*
X014200Y009316D02*
X013921Y009316D01*
X013921Y009157D02*
X014042Y009157D01*
X013988Y008999D02*
X013921Y008999D01*
X013921Y008840D02*
X013988Y008840D01*
X014002Y008682D02*
X013921Y008682D01*
X013921Y008523D02*
X014161Y008523D01*
X014249Y008365D02*
X013921Y008365D01*
X013921Y008206D02*
X014091Y008206D01*
X013988Y008048D02*
X013921Y008048D01*
X013921Y007889D02*
X013988Y007889D01*
X013988Y007731D02*
X013921Y007731D01*
X013921Y007572D02*
X014112Y007572D01*
X014270Y007414D02*
X013921Y007414D01*
X013921Y006304D02*
X016047Y006304D01*
X016047Y006146D02*
X013921Y006146D01*
X013921Y005987D02*
X016047Y005987D01*
X020968Y005987D02*
X021395Y005987D01*
X021395Y005829D02*
X020968Y005829D01*
X020968Y005670D02*
X021395Y005670D01*
X021395Y005512D02*
X020968Y005512D01*
X020968Y005353D02*
X021395Y005353D01*
X021395Y005195D02*
X020968Y005195D01*
X020968Y005036D02*
X021395Y005036D01*
X021395Y004878D02*
X020968Y004878D01*
X020968Y004719D02*
X021395Y004719D01*
X021395Y004561D02*
X020968Y004561D01*
X020968Y004402D02*
X021395Y004402D01*
X021395Y004244D02*
X020968Y004244D01*
X020968Y004085D02*
X021395Y004085D01*
X021395Y003927D02*
X020968Y003927D01*
X020968Y003768D02*
X021395Y003768D01*
X021395Y003610D02*
X020968Y003610D01*
X020968Y003451D02*
X021395Y003451D01*
X021395Y003293D02*
X020968Y003293D01*
X020968Y003134D02*
X021502Y003134D01*
X021514Y003122D02*
X021514Y003122D01*
X021660Y002976D02*
X020968Y002976D01*
X020968Y002817D02*
X021819Y002817D01*
X020968Y002659D02*
X028370Y002659D01*
X028370Y002817D02*
X025708Y002817D01*
X025866Y002976D02*
X028370Y002976D01*
X028370Y003134D02*
X026637Y003134D01*
X027069Y003293D02*
X027391Y003293D01*
X027526Y003158D02*
X027238Y003446D01*
X027238Y003854D01*
X027526Y004142D01*
X027934Y004142D01*
X028222Y003854D01*
X028222Y003446D01*
X027934Y003158D01*
X027526Y003158D01*
X027238Y003451D02*
X027222Y003451D01*
X027222Y003610D02*
X027238Y003610D01*
X027222Y003768D02*
X027238Y003768D01*
X027311Y003927D02*
X027149Y003927D01*
X026990Y004085D02*
X027470Y004085D01*
X027527Y004160D02*
X027710Y004160D01*
X027710Y004630D01*
X027240Y004630D01*
X027240Y004447D01*
X027527Y004160D01*
X027443Y004244D02*
X027020Y004244D01*
X027178Y004402D02*
X027285Y004402D01*
X027240Y004561D02*
X027222Y004561D01*
X027222Y004719D02*
X027240Y004719D01*
X027265Y004878D02*
X027198Y004878D01*
X027710Y004561D02*
X027750Y004561D01*
X027750Y004402D02*
X027710Y004402D01*
X027710Y004244D02*
X027750Y004244D01*
X028017Y004244D02*
X028088Y004244D01*
X028088Y004085D02*
X027990Y004085D01*
X028149Y003927D02*
X028166Y003927D01*
X028222Y003768D02*
X028238Y003768D01*
X028222Y003610D02*
X028238Y003610D01*
X028222Y003451D02*
X028238Y003451D01*
X028370Y003293D02*
X028069Y003293D01*
X028616Y003153D02*
X028936Y003153D01*
X029227Y003444D01*
X029227Y003856D01*
X028936Y004147D01*
X028616Y004147D01*
X028616Y004153D01*
X028936Y004153D01*
X028989Y004207D01*
X028989Y004145D01*
X029111Y004023D01*
X029229Y003905D01*
X029283Y003905D01*
X029233Y003856D01*
X029233Y003444D01*
X029524Y003153D01*
X029936Y003153D01*
X030227Y003444D01*
X030227Y003852D01*
X030233Y003845D01*
X030233Y003444D01*
X030524Y003153D01*
X030936Y003153D01*
X031227Y003444D01*
X031227Y003836D01*
X031233Y003829D01*
X031233Y003444D01*
X031524Y003153D01*
X031936Y003153D01*
X032227Y003444D01*
X032227Y003856D01*
X031936Y004147D01*
X031524Y004147D01*
X031514Y004136D01*
X031412Y004238D01*
X031290Y004360D01*
X031142Y004360D01*
X031227Y004444D01*
X031227Y004856D01*
X031114Y004968D01*
X031346Y004968D01*
X031233Y004856D01*
X031233Y004444D01*
X031524Y004153D01*
X031936Y004153D01*
X032020Y004238D01*
X032020Y004066D01*
X032233Y003853D01*
X032233Y003444D01*
X032524Y003153D01*
X032936Y003153D01*
X033227Y003444D01*
X033227Y003856D01*
X032936Y004147D01*
X032527Y004147D01*
X032436Y004238D01*
X032436Y004242D01*
X032524Y004153D01*
X032936Y004153D01*
X033227Y004444D01*
X033227Y004856D01*
X032936Y005147D01*
X032659Y005147D01*
X032700Y005188D01*
X032750Y005308D01*
X032750Y005437D01*
X032700Y005557D01*
X032646Y005611D01*
X032635Y005637D01*
X032635Y005637D01*
X032635Y005637D01*
X032616Y005645D01*
X033136Y005645D01*
X033166Y005675D01*
X033220Y005675D01*
X033311Y005713D01*
X033339Y005740D01*
X033384Y005756D01*
X033395Y005756D01*
X033445Y005777D01*
X033482Y005789D01*
X033487Y005794D01*
X033515Y005806D01*
X033606Y005897D01*
X033655Y006016D01*
X033655Y006146D01*
X033674Y006146D01*
X033655Y006146D02*
X033606Y006265D01*
X033515Y006357D01*
X033395Y006406D01*
X033266Y006406D01*
X033233Y006393D01*
X033233Y006601D01*
X033162Y006672D01*
X033233Y006743D01*
X033233Y007101D01*
X033162Y007172D01*
X033233Y007243D01*
X033233Y007601D01*
X033136Y007698D01*
X032222Y007698D01*
X032222Y007821D01*
X032209Y007833D01*
X032281Y007803D01*
X032411Y007803D01*
X032530Y007853D01*
X032622Y007944D01*
X032671Y008064D01*
X032671Y008169D01*
X032672Y008174D01*
X032671Y008176D01*
X032671Y008193D01*
X032653Y008237D01*
X032650Y008248D01*
X032642Y008275D01*
X033242Y008275D01*
X033322Y008355D01*
X033441Y008236D01*
X033796Y007881D01*
X035621Y007881D01*
X035743Y008003D01*
X035857Y008118D01*
X035992Y008118D01*
X035983Y008096D01*
X035974Y008082D01*
X035970Y008065D01*
X035958Y008036D01*
X035958Y008003D01*
X035951Y007968D01*
X035946Y007963D01*
X035943Y007955D01*
X035937Y007948D01*
X035924Y007909D01*
X035909Y007872D01*
X035909Y007863D01*
X035906Y007855D01*
X035909Y007814D01*
X035909Y007799D01*
X035879Y007799D01*
X035805Y007724D01*
X035801Y007731D01*
X035771Y007760D01*
X035735Y007781D01*
X035694Y007792D01*
X035490Y007792D01*
X035490Y007443D01*
X035443Y007443D01*
X035443Y007792D01*
X035238Y007792D01*
X035198Y007781D01*
X035161Y007760D01*
X035131Y007731D01*
X035110Y007694D01*
X035100Y007653D01*
X035100Y007443D01*
X035443Y007443D01*
X035443Y007396D01*
X035490Y007396D01*
X035490Y007047D01*
X035694Y007047D01*
X035735Y007058D01*
X035771Y007079D01*
X035801Y007109D01*
X035805Y007115D01*
X035879Y007040D01*
X036431Y007040D01*
X036529Y007138D01*
X036529Y007701D01*
X036501Y007729D01*
X036515Y007743D01*
X036548Y007776D01*
X036548Y006403D01*
X036473Y006328D01*
X035503Y006328D01*
X035398Y006433D01*
X035404Y006435D01*
X035496Y006527D01*
X035545Y006646D01*
X035545Y006776D01*
X035496Y006895D01*
X035418Y006973D01*
X035411Y006988D01*
X035403Y006991D01*
X035337Y007014D01*
X035285Y007036D01*
X035277Y007036D01*
X035246Y007047D01*
X035443Y007047D01*
X035443Y007396D01*
X035100Y007396D01*
X035100Y007186D01*
X035110Y007145D01*
X035131Y007109D01*
X035161Y007079D01*
X035168Y007075D01*
X035139Y007086D01*
X035109Y007115D01*
X035078Y007115D01*
X035016Y007178D01*
X035025Y007184D01*
X035055Y007213D01*
X035076Y007250D01*
X035087Y007291D01*
X035087Y007422D01*
X035087Y007553D01*
X035076Y007593D01*
X035055Y007630D01*
X035025Y007660D01*
X034988Y007681D01*
X034948Y007692D01*
X034497Y007692D01*
X034497Y007422D01*
X035087Y007422D01*
X034497Y007422D01*
X034497Y007422D01*
X034497Y007422D01*
X034497Y007692D01*
X034046Y007692D01*
X034005Y007681D01*
X033968Y007660D01*
X033939Y007630D01*
X033918Y007593D01*
X033907Y007553D01*
X033907Y007422D01*
X034497Y007422D01*
X034497Y007422D01*
X033907Y007422D01*
X033907Y007291D01*
X033918Y007250D01*
X033939Y007213D01*
X033968Y007184D01*
X033978Y007178D01*
X033900Y007101D01*
X033900Y006743D01*
X033971Y006672D01*
X033900Y006601D01*
X033900Y006472D01*
X033871Y006443D01*
X033674Y006246D01*
X033674Y005380D01*
X033522Y005228D01*
X033522Y005145D01*
X033233Y004856D01*
X033233Y004444D01*
X033524Y004153D01*
X033936Y004153D01*
X034227Y004444D01*
X034227Y004852D01*
X034233Y004845D01*
X034233Y004444D01*
X034524Y004153D01*
X034936Y004153D01*
X035227Y004444D01*
X035227Y004856D01*
X034936Y005147D01*
X034524Y005147D01*
X034522Y005144D01*
X034286Y005380D01*
X034286Y005645D01*
X034996Y005645D01*
X035065Y005714D01*
X036761Y005714D01*
X036999Y005952D01*
X037038Y005992D01*
X037160Y006113D01*
X037160Y008372D01*
X036924Y008608D01*
X036802Y008730D01*
X035607Y008730D01*
X035387Y008510D01*
X035387Y008747D01*
X035324Y008809D01*
X035387Y008872D01*
X035387Y009247D01*
X035324Y009309D01*
X035366Y009352D01*
X035585Y009352D01*
X035585Y009260D01*
X035683Y009163D01*
X036214Y009163D01*
X036283Y009231D01*
X036352Y009163D01*
X036884Y009163D01*
X036980Y009259D01*
X037149Y009259D01*
X037242Y009221D01*
X037371Y009221D01*
X037491Y009270D01*
X037582Y009362D01*
X037632Y009481D01*
X037632Y009610D01*
X037582Y009730D01*
X037491Y009821D01*
X037443Y009841D01*
X037491Y009861D01*
X037582Y009952D01*
X037632Y010072D01*
X037632Y010201D01*
X037582Y010320D01*
X037491Y010412D01*
X037371Y010461D01*
X037242Y010461D01*
X037149Y010423D01*
X036996Y010423D01*
X036903Y010515D01*
X036352Y010515D01*
X036277Y010441D01*
X036273Y010447D01*
X036244Y010477D01*
X036207Y010498D01*
X036166Y010509D01*
X035962Y010509D01*
X035962Y010160D01*
X035915Y010160D01*
X035915Y010509D01*
X035711Y010509D01*
X035670Y010498D01*
X035634Y010477D01*
X035604Y010447D01*
X035583Y010411D01*
X035572Y010370D01*
X035572Y010160D01*
X035915Y010160D01*
X035915Y010113D01*
X035572Y010113D01*
X035572Y009903D01*
X035583Y009862D01*
X035595Y009841D01*
X035585Y009831D01*
X035585Y009767D01*
X035366Y009767D01*
X035319Y009814D01*
X035348Y009843D01*
X035369Y009880D01*
X035380Y009920D01*
X035380Y010059D01*
X034787Y010059D01*
X034194Y010059D01*
X034194Y009920D01*
X034205Y009880D01*
X034226Y009843D01*
X034255Y009814D01*
X034187Y009747D01*
X034187Y009372D01*
X034250Y009309D01*
X034247Y009306D01*
X034212Y009306D01*
X034122Y009269D01*
X034085Y009232D01*
X033927Y009146D01*
X033899Y009131D01*
X033892Y009128D01*
X033892Y009789D01*
X033538Y010143D01*
X033414Y010267D01*
X033319Y010267D01*
X033242Y010344D01*
X032238Y010344D01*
X032140Y010247D01*
X032140Y009872D01*
X032203Y009809D01*
X032140Y009747D01*
X032140Y009372D01*
X032203Y009309D01*
X032161Y009267D01*
X031885Y009267D01*
X031883Y009268D01*
X031824Y009267D01*
X031824Y009319D01*
X031749Y009394D01*
X031755Y009398D01*
X031785Y009428D01*
X031806Y009464D01*
X031817Y009505D01*
X031817Y009704D01*
X031459Y009704D01*
X031459Y009741D01*
X031817Y009741D01*
X031817Y009941D01*
X031806Y009981D01*
X031785Y010018D01*
X031755Y010048D01*
X031719Y010069D01*
X031678Y010080D01*
X031459Y010080D01*
X031459Y009741D01*
X031422Y009741D01*
X031422Y009704D01*
X031064Y009704D01*
X031064Y009505D01*
X031075Y009464D01*
X031096Y009428D01*
X031126Y009398D01*
X031132Y009394D01*
X031057Y009319D01*
X031057Y008788D01*
X031155Y008690D01*
X031312Y008690D01*
X031312Y008235D01*
X030902Y007942D01*
X030882Y007942D01*
X030834Y007894D01*
X030778Y007854D01*
X030774Y007834D01*
X030761Y007821D01*
X030761Y007752D01*
X030749Y007684D01*
X030761Y007668D01*
X030761Y007527D01*
X030683Y007527D01*
X030585Y007430D01*
X030585Y006898D01*
X030654Y006829D01*
X030585Y006760D01*
X030585Y006702D01*
X030508Y006702D01*
X030489Y006682D01*
X030391Y006585D01*
X030391Y007331D01*
X030293Y007429D01*
X029919Y007429D01*
X029856Y007366D01*
X029793Y007429D01*
X029419Y007429D01*
X029356Y007366D01*
X029293Y007429D01*
X028919Y007429D01*
X028856Y007366D01*
X028793Y007429D01*
X028419Y007429D01*
X028356Y007366D01*
X028293Y007429D01*
X027919Y007429D01*
X027856Y007366D01*
X027793Y007429D01*
X027419Y007429D01*
X027351Y007361D01*
X027322Y007390D01*
X027286Y007411D01*
X027245Y007422D01*
X027106Y007422D01*
X027106Y006829D01*
X027106Y006236D01*
X027127Y006236D01*
X027127Y005990D01*
X027081Y005990D01*
X027081Y005944D01*
X026737Y005944D01*
X026737Y005733D01*
X026748Y005693D01*
X026769Y005656D01*
X026799Y005626D01*
X026836Y005605D01*
X026876Y005594D01*
X027081Y005594D01*
X027081Y005944D01*
X027127Y005944D01*
X027127Y005594D01*
X027332Y005594D01*
X027372Y005605D01*
X027409Y005626D01*
X027439Y005656D01*
X027442Y005663D01*
X027459Y005646D01*
X027454Y005634D01*
X027454Y005617D01*
X027454Y005615D01*
X027454Y005610D01*
X027454Y005505D01*
X027456Y005501D01*
X025975Y005501D01*
X025861Y005616D01*
X025861Y005838D01*
X026172Y006149D01*
X026294Y006271D01*
X026294Y007853D01*
X029905Y007853D01*
X029905Y008306D01*
X029926Y008294D01*
X029967Y008283D01*
X030106Y008283D01*
X030245Y008283D01*
X030286Y008294D01*
X030322Y008315D01*
X030352Y008345D01*
X030373Y008382D01*
X030384Y008422D01*
X030384Y008876D01*
X030106Y008876D01*
X030106Y008283D01*
X030106Y008876D01*
X030106Y008876D01*
X030106Y008876D01*
X030384Y008876D01*
X030384Y009331D01*
X030373Y009371D01*
X030352Y009408D01*
X030322Y009437D01*
X030286Y009459D01*
X030245Y009469D01*
X030106Y009469D01*
X029967Y009469D01*
X029926Y009459D01*
X029905Y009446D01*
X029905Y010806D01*
X038330Y010806D01*
X038330Y006493D01*
X038055Y006769D01*
X037858Y006769D01*
X037661Y006769D01*
X037383Y006490D01*
X037383Y006294D01*
X037858Y006294D01*
X037858Y006294D01*
X037858Y006769D01*
X037858Y006294D01*
X037858Y006294D01*
X037383Y006294D01*
X037383Y006097D01*
X037661Y005819D01*
X037858Y005819D01*
X038055Y005819D01*
X038330Y006094D01*
X038330Y004949D01*
X038285Y004949D01*
X038166Y004900D01*
X038075Y004809D01*
X038025Y004689D01*
X038025Y004560D01*
X038075Y004440D01*
X038166Y004349D01*
X038285Y004299D01*
X038330Y004299D01*
X038330Y003454D01*
X036362Y003454D01*
X036249Y003568D01*
X036227Y003590D01*
X036227Y003788D01*
X036296Y003719D01*
X036415Y003669D01*
X036545Y003669D01*
X036579Y003684D01*
X036647Y003615D01*
X037199Y003615D01*
X037273Y003690D01*
X037277Y003684D01*
X037307Y003654D01*
X037343Y003633D01*
X037384Y003622D01*
X037589Y003622D01*
X037589Y003971D01*
X037635Y003971D01*
X037635Y003622D01*
X037840Y003622D01*
X037880Y003633D01*
X037917Y003654D01*
X037947Y003684D01*
X037968Y003720D01*
X037979Y003761D01*
X037979Y003971D01*
X037635Y003971D01*
X037635Y004018D01*
X037589Y004018D01*
X037589Y004367D01*
X037588Y004367D01*
X037588Y004578D01*
X037624Y004578D01*
X037624Y004220D01*
X037635Y004220D01*
X037635Y004018D01*
X037979Y004018D01*
X037979Y004228D01*
X037968Y004269D01*
X037947Y004305D01*
X037945Y004307D01*
X037952Y004319D01*
X037963Y004359D01*
X037963Y004578D01*
X037624Y004578D01*
X037624Y004615D01*
X037588Y004615D01*
X037588Y004973D01*
X037388Y004973D01*
X037347Y004962D01*
X037311Y004941D01*
X037281Y004912D01*
X037277Y004905D01*
X037203Y004980D01*
X036909Y004980D01*
X036904Y004981D01*
X036889Y004980D01*
X036671Y004980D01*
X036667Y004977D01*
X036106Y004977D01*
X035936Y005147D01*
X035524Y005147D01*
X035233Y004856D01*
X035233Y004444D01*
X035524Y004153D01*
X035936Y004153D01*
X036106Y004323D01*
X036573Y004323D01*
X036573Y004311D01*
X036579Y004306D01*
X036579Y004305D01*
X036545Y004320D01*
X036415Y004320D01*
X036296Y004270D01*
X036204Y004179D01*
X036155Y004059D01*
X036155Y003930D01*
X036157Y003926D01*
X035936Y004147D01*
X035524Y004147D01*
X035314Y003937D01*
X035146Y003937D01*
X034936Y004147D01*
X034524Y004147D01*
X034233Y003856D01*
X034233Y003444D01*
X034524Y003153D01*
X034936Y003153D01*
X035146Y003363D01*
X035314Y003363D01*
X035524Y003153D01*
X035853Y003153D01*
X036001Y003005D01*
X036081Y002925D01*
X036187Y002881D01*
X038330Y002881D01*
X038330Y002420D01*
X028616Y002420D01*
X028616Y003153D01*
X028616Y003134D02*
X035872Y003134D01*
X036030Y002976D02*
X028616Y002976D01*
X028616Y002817D02*
X038330Y002817D01*
X038330Y002659D02*
X028616Y002659D01*
X028616Y002500D02*
X038330Y002500D01*
X038330Y003610D02*
X036227Y003610D01*
X036227Y003768D02*
X036246Y003768D01*
X036156Y003927D02*
X036155Y003927D01*
X036166Y004085D02*
X035997Y004085D01*
X036026Y004244D02*
X036270Y004244D01*
X035463Y004085D02*
X034997Y004085D01*
X035026Y004244D02*
X035434Y004244D01*
X035275Y004402D02*
X035185Y004402D01*
X035227Y004561D02*
X035233Y004561D01*
X035227Y004719D02*
X035233Y004719D01*
X035256Y004878D02*
X035204Y004878D01*
X035046Y005036D02*
X035414Y005036D01*
X036046Y005036D02*
X038330Y005036D01*
X038330Y005195D02*
X034471Y005195D01*
X034312Y005353D02*
X038330Y005353D01*
X038330Y005512D02*
X034286Y005512D01*
X033674Y005512D02*
X032719Y005512D01*
X032750Y005353D02*
X033648Y005353D01*
X033522Y005195D02*
X032703Y005195D01*
X033046Y005036D02*
X033414Y005036D01*
X033256Y004878D02*
X033204Y004878D01*
X033227Y004719D02*
X033233Y004719D01*
X033227Y004561D02*
X033233Y004561D01*
X033275Y004402D02*
X033185Y004402D01*
X033026Y004244D02*
X033434Y004244D01*
X033524Y004147D02*
X033233Y003856D01*
X033233Y003444D01*
X033524Y003153D01*
X033936Y003153D01*
X034227Y003444D01*
X034227Y003856D01*
X033936Y004147D01*
X033524Y004147D01*
X033463Y004085D02*
X032997Y004085D01*
X033155Y003927D02*
X033305Y003927D01*
X033233Y003768D02*
X033227Y003768D01*
X033227Y003610D02*
X033233Y003610D01*
X033227Y003451D02*
X033233Y003451D01*
X033385Y003293D02*
X033075Y003293D01*
X034075Y003293D02*
X034385Y003293D01*
X034233Y003451D02*
X034227Y003451D01*
X034227Y003610D02*
X034233Y003610D01*
X034227Y003768D02*
X034233Y003768D01*
X034305Y003927D02*
X034155Y003927D01*
X033997Y004085D02*
X034463Y004085D01*
X034434Y004244D02*
X034026Y004244D01*
X034185Y004402D02*
X034275Y004402D01*
X034233Y004561D02*
X034227Y004561D01*
X034227Y004719D02*
X034233Y004719D01*
X033674Y005670D02*
X033161Y005670D01*
X033171Y005922D02*
X032637Y005922D01*
X033106Y005922D02*
X033269Y006130D01*
X033330Y006081D01*
X033356Y006007D01*
X033106Y005922D01*
X033171Y005922D02*
X033330Y006081D01*
X033567Y006304D02*
X033733Y006304D01*
X033891Y006463D02*
X033233Y006463D01*
X033212Y006621D02*
X033921Y006621D01*
X033900Y006780D02*
X033233Y006780D01*
X033233Y006938D02*
X033900Y006938D01*
X033900Y007097D02*
X033233Y007097D01*
X033233Y007255D02*
X033916Y007255D01*
X033907Y007414D02*
X033233Y007414D01*
X033233Y007572D02*
X033912Y007572D01*
X033788Y007889D02*
X032567Y007889D01*
X032665Y008048D02*
X033629Y008048D01*
X033471Y008206D02*
X032666Y008206D01*
X032672Y008174D02*
X032672Y008174D01*
X032672Y008174D01*
X032421Y008151D02*
X032346Y008404D01*
X032271Y008151D01*
X032346Y008128D01*
X032421Y008151D01*
X032346Y008128D02*
X032346Y008404D01*
X032502Y008559D01*
X032740Y008559D01*
X032197Y009316D02*
X031824Y009316D01*
X031809Y009474D02*
X032140Y009474D01*
X032140Y009633D02*
X031817Y009633D01*
X031817Y009791D02*
X032185Y009791D01*
X032140Y009950D02*
X031815Y009950D01*
X031459Y009950D02*
X031422Y009950D01*
X031422Y010080D02*
X031422Y009741D01*
X031064Y009741D01*
X031064Y009941D01*
X031075Y009981D01*
X031096Y010018D01*
X031126Y010048D01*
X031162Y010069D01*
X031203Y010080D01*
X031422Y010080D01*
X031422Y009791D02*
X031459Y009791D01*
X031064Y009791D02*
X029905Y009791D01*
X029905Y009633D02*
X031064Y009633D01*
X031072Y009474D02*
X029905Y009474D01*
X030106Y009469D02*
X030106Y008876D01*
X030106Y008876D01*
X030106Y009469D01*
X030106Y009316D02*
X030106Y009316D01*
X030106Y009157D02*
X030106Y009157D01*
X030106Y008999D02*
X030106Y008999D01*
X030106Y008840D02*
X030106Y008840D01*
X030106Y008682D02*
X030106Y008682D01*
X030106Y008523D02*
X030106Y008523D01*
X030106Y008365D02*
X030106Y008365D01*
X029905Y008206D02*
X031272Y008206D01*
X031312Y008365D02*
X030364Y008365D01*
X030384Y008523D02*
X031312Y008523D01*
X031312Y008682D02*
X030384Y008682D01*
X030384Y008840D02*
X031057Y008840D01*
X031057Y008999D02*
X030384Y008999D01*
X030384Y009157D02*
X031057Y009157D01*
X031057Y009316D02*
X030384Y009316D01*
X029905Y009950D02*
X031067Y009950D01*
X032140Y010108D02*
X029905Y010108D01*
X029905Y010267D02*
X032161Y010267D01*
X033414Y010267D02*
X034221Y010267D01*
X034226Y010276D02*
X034205Y010239D01*
X034194Y010199D01*
X034194Y010059D01*
X034787Y010059D01*
X034787Y010059D01*
X034787Y010059D01*
X035380Y010059D01*
X035380Y010199D01*
X035369Y010239D01*
X035348Y010276D01*
X035318Y010306D01*
X035282Y010327D01*
X035241Y010338D01*
X034787Y010338D01*
X034333Y010338D01*
X034292Y010327D01*
X034256Y010306D01*
X034226Y010276D01*
X034194Y010108D02*
X033573Y010108D01*
X033731Y009950D02*
X034194Y009950D01*
X034232Y009791D02*
X033890Y009791D01*
X033892Y009633D02*
X034187Y009633D01*
X034187Y009474D02*
X033892Y009474D01*
X033892Y009316D02*
X034244Y009316D01*
X034261Y009059D02*
X034039Y008837D01*
X033997Y008771D01*
X034219Y008628D01*
X034111Y008869D01*
X034039Y008837D01*
X034108Y008800D01*
X034234Y009032D01*
X034002Y008906D01*
X034039Y008837D01*
X034277Y008559D01*
X034787Y008559D01*
X034787Y009059D02*
X034261Y009059D01*
X033948Y009157D02*
X033892Y009157D01*
X033927Y009146D02*
X033927Y009146D01*
X034787Y010059D02*
X034787Y010338D01*
X034787Y010059D01*
X034787Y010059D01*
X034787Y010108D02*
X034787Y010108D01*
X034787Y010267D02*
X034787Y010267D01*
X035353Y010267D02*
X035572Y010267D01*
X035572Y010108D02*
X035380Y010108D01*
X035380Y009950D02*
X035572Y009950D01*
X035585Y009791D02*
X035342Y009791D01*
X035915Y010267D02*
X035962Y010267D01*
X035962Y010425D02*
X035915Y010425D01*
X035591Y010425D02*
X029905Y010425D01*
X029905Y010584D02*
X038330Y010584D01*
X038330Y010742D02*
X029905Y010742D01*
X027500Y010670D02*
X027425Y010648D01*
X027350Y010670D01*
X027425Y010924D01*
X027500Y010670D01*
X027425Y010648D02*
X027425Y011130D01*
X026595Y010075D02*
X026519Y010097D01*
X026444Y010075D01*
X026519Y009821D01*
X026595Y010075D01*
X026519Y010067D02*
X026519Y009615D01*
X026549Y009654D01*
X026519Y010067D02*
X026519Y010097D01*
X023488Y009900D02*
X023467Y009975D01*
X023212Y009904D01*
X023464Y009825D01*
X023488Y009900D01*
X023484Y009904D01*
X023049Y009904D01*
X021277Y008523D02*
X020968Y008523D01*
X020968Y008365D02*
X021277Y008365D01*
X021277Y008206D02*
X020968Y008206D01*
X020968Y008048D02*
X021277Y008048D01*
X021277Y007889D02*
X020968Y007889D01*
X020968Y007731D02*
X021277Y007731D01*
X021395Y007572D02*
X020968Y007572D01*
X020968Y007414D02*
X021395Y007414D01*
X021395Y007255D02*
X020968Y007255D01*
X020968Y007097D02*
X021395Y007097D01*
X021395Y006938D02*
X020968Y006938D01*
X020968Y006780D02*
X021395Y006780D01*
X021395Y006621D02*
X020968Y006621D01*
X020968Y006463D02*
X021395Y006463D01*
X021395Y006304D02*
X020968Y006304D01*
X020968Y006146D02*
X021395Y006146D01*
X022205Y006173D02*
X022205Y006517D01*
X021994Y006517D01*
X021963Y006508D01*
X021963Y007588D01*
X022060Y007491D01*
X022181Y007370D01*
X022578Y007370D01*
X022569Y007360D01*
X022547Y007324D01*
X022537Y007283D01*
X022537Y006829D01*
X022537Y006486D01*
X022502Y006506D01*
X022462Y006517D01*
X022251Y006517D01*
X022251Y006173D01*
X022205Y006173D01*
X022251Y006173D02*
X022601Y006173D01*
X022601Y006267D01*
X022635Y006247D01*
X022675Y006236D01*
X022815Y006236D01*
X022954Y006236D01*
X022995Y006247D01*
X023031Y006268D01*
X023060Y006297D01*
X023123Y006234D01*
X023123Y005458D01*
X022929Y005265D01*
X022808Y005143D01*
X022808Y004627D01*
X022645Y004627D01*
X022645Y004284D01*
X022598Y004284D01*
X022598Y004627D01*
X022388Y004627D01*
X022347Y004616D01*
X022311Y004595D01*
X022281Y004565D01*
X022260Y004529D01*
X022249Y004488D01*
X022249Y004284D01*
X022598Y004284D01*
X022598Y004237D01*
X022249Y004237D01*
X022249Y004032D01*
X022260Y003992D01*
X022281Y003955D01*
X022311Y003926D01*
X022317Y003922D01*
X022311Y003916D01*
X022257Y003929D01*
X022218Y003946D01*
X022191Y003946D01*
X022181Y003948D01*
X022164Y003946D01*
X022081Y003946D01*
X021963Y003897D01*
X021963Y004784D01*
X022044Y004703D01*
X022163Y004654D01*
X022293Y004654D01*
X022412Y004703D01*
X022504Y004795D01*
X022553Y004914D01*
X022553Y005043D01*
X022527Y005105D01*
X022607Y005185D01*
X022607Y005737D01*
X022532Y005812D01*
X022539Y005815D01*
X022569Y005845D01*
X022590Y005882D01*
X022601Y005922D01*
X022601Y006127D01*
X022251Y006127D01*
X022251Y006173D01*
X022251Y006146D02*
X023123Y006146D01*
X023123Y005987D02*
X022601Y005987D01*
X022553Y005829D02*
X023123Y005829D01*
X023123Y005670D02*
X022607Y005670D01*
X022607Y005512D02*
X023123Y005512D01*
X023018Y005353D02*
X022607Y005353D01*
X022607Y005195D02*
X022859Y005195D01*
X022808Y005036D02*
X022553Y005036D01*
X022538Y004878D02*
X022808Y004878D01*
X022808Y004719D02*
X022428Y004719D01*
X022279Y004561D02*
X021963Y004561D01*
X021963Y004719D02*
X022028Y004719D01*
X022598Y004561D02*
X022645Y004561D01*
X022645Y004402D02*
X022598Y004402D01*
X022598Y004244D02*
X021963Y004244D01*
X021963Y004402D02*
X022249Y004402D01*
X022249Y004085D02*
X021963Y004085D01*
X021963Y003927D02*
X022036Y003927D01*
X022181Y003948D02*
X022181Y003948D01*
X022181Y003948D01*
X022266Y003927D02*
X022309Y003927D01*
X020968Y002500D02*
X028370Y002500D01*
X029075Y003293D02*
X029385Y003293D01*
X029233Y003451D02*
X029227Y003451D01*
X029227Y003610D02*
X029233Y003610D01*
X029227Y003768D02*
X029233Y003768D01*
X029207Y003927D02*
X029155Y003927D01*
X029048Y004085D02*
X028997Y004085D01*
X030227Y003768D02*
X030233Y003768D01*
X030227Y003610D02*
X030233Y003610D01*
X030227Y003451D02*
X030233Y003451D01*
X030385Y003293D02*
X030075Y003293D01*
X031075Y003293D02*
X031385Y003293D01*
X031233Y003451D02*
X031227Y003451D01*
X031227Y003610D02*
X031233Y003610D01*
X031227Y003768D02*
X031233Y003768D01*
X031406Y004244D02*
X031434Y004244D01*
X031275Y004402D02*
X031185Y004402D01*
X031227Y004561D02*
X031233Y004561D01*
X031227Y004719D02*
X031233Y004719D01*
X031256Y004878D02*
X031204Y004878D01*
X031997Y004085D02*
X032020Y004085D01*
X032155Y003927D02*
X032159Y003927D01*
X032227Y003768D02*
X032233Y003768D01*
X032227Y003610D02*
X032233Y003610D01*
X032227Y003451D02*
X032233Y003451D01*
X032385Y003293D02*
X032075Y003293D01*
X035075Y003293D02*
X035385Y003293D01*
X037589Y003768D02*
X037635Y003768D01*
X037635Y003927D02*
X037589Y003927D01*
X037589Y004085D02*
X037635Y004085D01*
X037624Y004244D02*
X037589Y004244D01*
X037588Y004402D02*
X037624Y004402D01*
X037624Y004561D02*
X037588Y004561D01*
X037624Y004615D02*
X037963Y004615D01*
X037963Y004834D01*
X037952Y004875D01*
X037931Y004912D01*
X037901Y004941D01*
X037865Y004962D01*
X037824Y004973D01*
X037624Y004973D01*
X037624Y004615D01*
X037624Y004719D02*
X037588Y004719D01*
X037588Y004878D02*
X037624Y004878D01*
X037950Y004878D02*
X038144Y004878D01*
X038038Y004719D02*
X037963Y004719D01*
X037963Y004561D02*
X038025Y004561D01*
X037963Y004402D02*
X038112Y004402D01*
X037974Y004244D02*
X038330Y004244D01*
X038330Y004085D02*
X037979Y004085D01*
X037979Y003927D02*
X038330Y003927D01*
X038330Y003768D02*
X037979Y003768D01*
X038330Y005670D02*
X035021Y005670D01*
X035432Y006463D02*
X036548Y006463D01*
X036548Y006621D02*
X035535Y006621D01*
X035543Y006780D02*
X036548Y006780D01*
X036548Y006938D02*
X035452Y006938D01*
X035443Y007097D02*
X035490Y007097D01*
X035490Y007255D02*
X035443Y007255D01*
X035443Y007414D02*
X035087Y007414D01*
X035081Y007572D02*
X035100Y007572D01*
X035132Y007731D02*
X032222Y007731D01*
X031050Y008048D02*
X029905Y008048D01*
X029905Y007889D02*
X030828Y007889D01*
X030757Y007731D02*
X026294Y007731D01*
X026294Y007572D02*
X030761Y007572D01*
X030585Y007414D02*
X030308Y007414D01*
X030391Y007255D02*
X030585Y007255D01*
X030585Y007097D02*
X030391Y007097D01*
X030391Y006938D02*
X030585Y006938D01*
X030605Y006780D02*
X030391Y006780D01*
X030489Y006682D02*
X030489Y006682D01*
X030428Y006621D02*
X030391Y006621D01*
X030106Y006510D02*
X030106Y006829D01*
X030106Y006510D02*
X030102Y006081D01*
X030177Y006103D01*
X030105Y006357D01*
X030027Y006104D01*
X030102Y006081D01*
X027854Y005592D02*
X027779Y005569D01*
X027704Y005592D01*
X027779Y005845D01*
X027854Y005592D01*
X027779Y005569D02*
X027779Y006081D01*
X027779Y005902D01*
X027793Y005967D01*
X027779Y006081D02*
X027779Y006239D01*
X027606Y006412D01*
X027606Y006829D01*
X027106Y006829D02*
X027106Y006829D01*
X027106Y006829D01*
X027106Y006236D01*
X027081Y006236D01*
X027081Y005990D01*
X026737Y005990D01*
X026737Y006201D01*
X026748Y006241D01*
X026769Y006278D01*
X026799Y006308D01*
X026836Y006329D01*
X026841Y006330D01*
X026839Y006334D01*
X026828Y006375D01*
X026828Y006829D01*
X027106Y006829D01*
X027106Y006829D01*
X026828Y006829D01*
X026828Y007283D01*
X026839Y007324D01*
X026860Y007360D01*
X026890Y007390D01*
X026926Y007411D01*
X026967Y007422D01*
X027106Y007422D01*
X027106Y006829D01*
X027106Y006780D02*
X027106Y006780D01*
X027106Y006938D02*
X027106Y006938D01*
X027106Y007097D02*
X027106Y007097D01*
X027106Y007255D02*
X027106Y007255D01*
X027106Y007414D02*
X027106Y007414D01*
X027276Y007414D02*
X027404Y007414D01*
X027808Y007414D02*
X027904Y007414D01*
X028308Y007414D02*
X028404Y007414D01*
X028808Y007414D02*
X028904Y007414D01*
X029308Y007414D02*
X029404Y007414D01*
X029808Y007414D02*
X029904Y007414D01*
X027106Y006621D02*
X027106Y006621D01*
X027106Y006463D02*
X027106Y006463D01*
X027106Y006304D02*
X027106Y006304D01*
X027081Y006146D02*
X027127Y006146D01*
X027081Y005987D02*
X026011Y005987D01*
X025861Y005829D02*
X026737Y005829D01*
X026761Y005670D02*
X025861Y005670D01*
X025965Y005512D02*
X027454Y005512D01*
X027127Y005670D02*
X027081Y005670D01*
X027081Y005829D02*
X027127Y005829D01*
X026737Y006146D02*
X026169Y006146D01*
X026294Y006304D02*
X026796Y006304D01*
X026828Y006463D02*
X026294Y006463D01*
X026294Y006621D02*
X026828Y006621D01*
X026828Y006780D02*
X026294Y006780D01*
X026294Y006938D02*
X026828Y006938D01*
X026828Y007097D02*
X026294Y007097D01*
X026294Y007255D02*
X026828Y007255D01*
X026936Y007414D02*
X026294Y007414D01*
X025815Y007463D02*
X025771Y007617D01*
X025701Y007583D01*
X025815Y007344D01*
X025849Y007606D01*
X025771Y007617D01*
X025815Y007463D02*
X025815Y006829D01*
X022815Y006829D02*
X022815Y006236D01*
X022815Y006829D01*
X022815Y006829D01*
X022537Y006829D01*
X022815Y006829D01*
X022815Y006829D01*
X022815Y006780D02*
X022815Y006780D01*
X022815Y006621D02*
X022815Y006621D01*
X022815Y006463D02*
X022815Y006463D01*
X022815Y006304D02*
X022815Y006304D01*
X022537Y006621D02*
X021963Y006621D01*
X021963Y006780D02*
X022537Y006780D01*
X022537Y006938D02*
X021963Y006938D01*
X021963Y007097D02*
X022537Y007097D01*
X022537Y007255D02*
X021963Y007255D01*
X021963Y007414D02*
X022137Y007414D01*
X021979Y007572D02*
X021963Y007572D01*
X022205Y006463D02*
X022251Y006463D01*
X022251Y006304D02*
X022205Y006304D01*
X033482Y005789D02*
X033482Y005789D01*
X033482Y005789D01*
X033538Y005829D02*
X033674Y005829D01*
X033674Y005987D02*
X033643Y005987D01*
X035128Y007097D02*
X035143Y007097D01*
X035100Y007255D02*
X035077Y007255D01*
X035443Y007572D02*
X035490Y007572D01*
X035490Y007731D02*
X035443Y007731D01*
X035629Y007889D02*
X035916Y007889D01*
X035963Y008048D02*
X035788Y008048D01*
X035800Y007731D02*
X035812Y007731D01*
X036155Y007727D02*
X036206Y007986D01*
X036283Y007971D01*
X036339Y007916D01*
X036155Y007727D01*
X036155Y007823D02*
X036283Y007971D01*
X036155Y007823D02*
X036155Y007420D01*
X036529Y007414D02*
X036548Y007414D01*
X036548Y007572D02*
X036529Y007572D01*
X036548Y007731D02*
X036503Y007731D01*
X037160Y007731D02*
X038330Y007731D01*
X038330Y007889D02*
X037160Y007889D01*
X037160Y008048D02*
X038330Y008048D01*
X038330Y008206D02*
X037160Y008206D01*
X037160Y008365D02*
X038330Y008365D01*
X038330Y008523D02*
X037008Y008523D01*
X036850Y008682D02*
X038330Y008682D01*
X038330Y008840D02*
X035355Y008840D01*
X035387Y008682D02*
X035559Y008682D01*
X035400Y008523D02*
X035387Y008523D01*
X035387Y008999D02*
X038330Y008999D01*
X038330Y009157D02*
X035387Y009157D01*
X035330Y009316D02*
X035585Y009316D01*
X036993Y010425D02*
X037156Y010425D01*
X037458Y010425D02*
X038330Y010425D01*
X038330Y010267D02*
X037604Y010267D01*
X037632Y010108D02*
X038330Y010108D01*
X038330Y009950D02*
X037580Y009950D01*
X037521Y009791D02*
X038330Y009791D01*
X038330Y009633D02*
X037622Y009633D01*
X037629Y009474D02*
X038330Y009474D01*
X038330Y009316D02*
X037537Y009316D01*
X037160Y007572D02*
X038330Y007572D01*
X038330Y007414D02*
X037160Y007414D01*
X037160Y007255D02*
X038330Y007255D01*
X038330Y007097D02*
X037160Y007097D01*
X037160Y006938D02*
X038330Y006938D01*
X038330Y006780D02*
X037160Y006780D01*
X037160Y006621D02*
X037514Y006621D01*
X037383Y006463D02*
X037160Y006463D01*
X037160Y006304D02*
X037383Y006304D01*
X037383Y006146D02*
X037160Y006146D01*
X037034Y005987D02*
X037492Y005987D01*
X037651Y005829D02*
X036876Y005829D01*
X037858Y005829D02*
X037858Y005829D01*
X037858Y005819D02*
X037858Y006294D01*
X037858Y005819D01*
X037858Y005987D02*
X037858Y005987D01*
X037858Y006146D02*
X037858Y006146D01*
X037858Y006294D02*
X037858Y006294D01*
X037858Y006304D02*
X037858Y006304D01*
X037858Y006463D02*
X037858Y006463D01*
X037858Y006621D02*
X037858Y006621D01*
X038202Y006621D02*
X038330Y006621D01*
X038330Y005987D02*
X038223Y005987D01*
X038330Y005829D02*
X038065Y005829D01*
X036548Y007097D02*
X036487Y007097D01*
X036529Y007255D02*
X036548Y007255D01*
X035823Y007097D02*
X035789Y007097D01*
X034497Y007572D02*
X034497Y007572D01*
X027630Y012761D02*
X027630Y013215D01*
X027779Y013365D01*
X027704Y013387D01*
X027630Y013133D01*
X027830Y013305D01*
X027779Y013365D01*
X014816Y014705D02*
X013921Y014705D01*
X013921Y014863D02*
X014703Y014863D01*
X014681Y015010D02*
X014681Y015010D01*
X014681Y015010D01*
X014683Y015022D02*
X013921Y015022D01*
X014257Y015180D02*
X014294Y015180D01*
X014294Y015339D02*
X014257Y015339D01*
X041129Y015311D02*
X041204Y015333D01*
X041280Y015311D01*
X041204Y015057D01*
X041129Y015311D01*
X041204Y015333D02*
X041204Y014890D01*
X045260Y018404D02*
X045328Y018367D01*
X045454Y018599D01*
X045222Y018473D01*
X045260Y018404D01*
X045462Y018607D01*
X046212Y018607D01*
X045089Y019708D02*
X045063Y019782D01*
X045001Y019830D01*
X044839Y019620D01*
X045089Y019708D01*
X045063Y019782D02*
X044901Y019620D01*
X044508Y019620D01*
X050189Y007389D02*
X050742Y007389D01*
X050189Y007388D02*
X050169Y007386D01*
X050150Y007382D01*
X050132Y007374D01*
X050115Y007364D01*
X050100Y007351D01*
X050087Y007336D01*
X050077Y007319D01*
X050069Y007301D01*
X050065Y007282D01*
X050063Y007262D01*
X050063Y006396D01*
X050061Y006375D01*
X050056Y006355D01*
X050048Y006335D01*
X050037Y006317D01*
X050024Y006301D01*
X050008Y006288D01*
X049990Y006277D01*
X049970Y006269D01*
X049950Y006264D01*
X049929Y006262D01*
X048665Y006262D01*
X049921Y005389D02*
X050742Y005389D01*
X049921Y005389D02*
X049885Y005387D01*
X049849Y005382D01*
X049813Y005373D01*
X049779Y005361D01*
X049746Y005345D01*
X049715Y005326D01*
X049686Y005305D01*
X049659Y005280D01*
X049634Y005253D01*
X049613Y005224D01*
X049594Y005193D01*
X049578Y005160D01*
X049566Y005126D01*
X049557Y005090D01*
X049552Y005054D01*
X049550Y005018D01*
X049551Y005018D02*
X049549Y004985D01*
X049544Y004953D01*
X049535Y004922D01*
X049522Y004892D01*
X049506Y004863D01*
X049488Y004837D01*
X049466Y004812D01*
X049441Y004790D01*
X049415Y004772D01*
X049386Y004756D01*
X049356Y004743D01*
X049325Y004734D01*
X049293Y004729D01*
X049260Y004727D01*
X048582Y004727D01*
X048582Y003664D02*
X049527Y003664D01*
X049553Y003662D01*
X049578Y003657D01*
X049602Y003648D01*
X049625Y003635D01*
X049646Y003620D01*
X049664Y003602D01*
X049679Y003581D01*
X049692Y003558D01*
X049701Y003534D01*
X049706Y003509D01*
X049708Y003483D01*
X049708Y003443D01*
X049710Y003423D01*
X049715Y003403D01*
X049724Y003384D01*
X049736Y003367D01*
X049750Y003353D01*
X049767Y003341D01*
X049786Y003332D01*
X049806Y003327D01*
X049826Y003325D01*
X050678Y003325D01*
X050678Y003326D02*
X050692Y003328D01*
X050705Y003332D01*
X050717Y003340D01*
X050727Y003350D01*
X050735Y003362D01*
X050739Y003375D01*
X050741Y003389D01*
D36*
X042346Y008955D03*
X041519Y008876D03*
X040732Y008876D03*
X037307Y009546D03*
X037307Y010136D03*
X036283Y007971D03*
X035220Y006711D03*
X033330Y006081D03*
X032425Y005372D03*
X030712Y005924D03*
X030102Y006081D03*
X027779Y005569D03*
X026362Y005727D03*
X025771Y007617D03*
X022976Y005727D03*
X022228Y004979D03*
X023488Y009900D03*
X026126Y010609D03*
X026519Y010097D03*
X026795Y010687D03*
X027425Y010648D03*
X028685Y010963D03*
X029197Y010963D03*
X028173Y012065D03*
X027779Y013365D03*
X028094Y013719D03*
X027740Y014073D03*
X027189Y014546D03*
X027779Y015372D03*
X027189Y015569D03*
X026441Y015333D03*
X025102Y015412D03*
X024984Y015924D03*
X023212Y015569D03*
X025063Y017892D03*
X023606Y018680D03*
X024590Y019034D03*
X026480Y019270D03*
X027031Y018246D03*
X027700Y018246D03*
X028606Y017774D03*
X028291Y017380D03*
X028724Y016987D03*
X029866Y018325D03*
X031047Y017538D03*
X031519Y016632D03*
X032267Y016396D03*
X032582Y016081D03*
X033330Y017026D03*
X030220Y014546D03*
X029748Y014546D03*
X033252Y013680D03*
X033763Y013050D03*
X033370Y012065D03*
X027976Y009782D03*
X032346Y008128D03*
X034039Y008837D03*
X040378Y012183D03*
X041126Y013483D03*
X043212Y014782D03*
X044905Y014270D03*
X045141Y014703D03*
X041204Y015333D03*
X040889Y018483D03*
X043212Y018404D03*
X045260Y018404D03*
X045063Y019782D03*
X043685Y020530D03*
X046677Y020924D03*
X043173Y011120D03*
X038350Y004624D03*
X036480Y003994D03*
X040063Y003128D03*
X022307Y012341D03*
X021834Y012498D03*
X017622Y010491D03*
X028567Y018916D03*
X025850Y021081D03*
D37*
X028567Y018916D02*
X028970Y018916D01*
X029659Y018916D02*
X029659Y019654D01*
X029649Y019664D01*
X029677Y019691D01*
X030598Y019691D01*
X030598Y018691D01*
X027700Y018246D02*
X027700Y017725D01*
X027031Y017725D02*
X027031Y018246D01*
X015063Y018376D02*
X014275Y017589D01*
X014275Y016061D01*
X014285Y016071D01*
X015023Y016071D01*
X026795Y011130D02*
X026795Y010806D01*
X026795Y010687D01*
X026405Y005770D02*
X026362Y005727D01*
X022228Y005461D02*
X022228Y004979D01*
X034730Y003650D02*
X035730Y003650D01*
X035761Y003650D01*
X036086Y003325D01*
X036244Y003168D01*
X038813Y003168D01*
X038852Y003128D01*
X038830Y003150D01*
X038823Y003876D01*
X038813Y004624D02*
X038350Y004624D01*
X036923Y003994D02*
X036480Y003994D01*
X039541Y003128D02*
X040063Y003128D01*
X047819Y007577D02*
X047819Y008443D01*
X047818Y008443D02*
X047816Y008471D01*
X047811Y008499D01*
X047803Y008527D01*
X047791Y008553D01*
X047776Y008577D01*
X047759Y008599D01*
X047738Y008620D01*
X047716Y008637D01*
X047692Y008652D01*
X047666Y008664D01*
X047638Y008672D01*
X047610Y008677D01*
X047582Y008679D01*
X047582Y008680D02*
X046952Y008680D01*
X046924Y008682D01*
X046896Y008687D01*
X046868Y008695D01*
X046842Y008707D01*
X046818Y008722D01*
X046796Y008739D01*
X046775Y008760D01*
X046758Y008782D01*
X046743Y008806D01*
X046731Y008832D01*
X046723Y008860D01*
X046718Y008888D01*
X046716Y008916D01*
X046716Y010766D01*
X046714Y010806D01*
X046709Y010846D01*
X046699Y010884D01*
X046687Y010922D01*
X046671Y010959D01*
X046651Y010994D01*
X046629Y011027D01*
X046603Y011058D01*
X046575Y011086D01*
X046544Y011112D01*
X046511Y011134D01*
X046476Y011154D01*
X046439Y011170D01*
X046401Y011182D01*
X046363Y011192D01*
X046323Y011197D01*
X046283Y011199D01*
X044866Y011199D01*
X045181Y010648D02*
X043921Y010648D01*
X043173Y011120D02*
X043039Y011254D01*
X042602Y011254D01*
X042228Y012120D02*
X042244Y012160D01*
X042252Y012174D01*
X042257Y012190D01*
X042258Y012206D01*
X042255Y012222D01*
X042249Y012237D01*
X042240Y012251D01*
X042228Y012262D01*
X042228Y012459D01*
X042227Y012459D02*
X042235Y012484D01*
X042246Y012507D01*
X042259Y012528D01*
X042276Y012547D01*
X042296Y012563D01*
X042317Y012577D01*
X042340Y012587D01*
X042365Y012594D01*
X042390Y012598D01*
X042415Y012597D01*
X042440Y012594D01*
X042441Y012593D02*
X043551Y012593D01*
X044889Y012593D01*
X044935Y012591D01*
X044981Y012586D01*
X045027Y012577D01*
X045072Y012564D01*
X045115Y012548D01*
X045157Y012529D01*
X045198Y012506D01*
X045236Y012480D01*
X045273Y012451D01*
X045307Y012420D01*
X045338Y012386D01*
X045367Y012349D01*
X045393Y012311D01*
X045416Y012270D01*
X045435Y012228D01*
X045451Y012185D01*
X045464Y012140D01*
X045473Y012094D01*
X045478Y012048D01*
X045480Y012002D01*
X044866Y011199D02*
X044828Y011201D01*
X044791Y011206D01*
X044754Y011216D01*
X044718Y011228D01*
X044684Y011245D01*
X044652Y011264D01*
X044621Y011287D01*
X044593Y011312D01*
X044568Y011340D01*
X044545Y011371D01*
X044526Y011403D01*
X044509Y011437D01*
X044497Y011473D01*
X044487Y011510D01*
X044482Y011547D01*
X044480Y011585D01*
X044480Y012002D01*
X045181Y010648D02*
X045214Y010646D01*
X045248Y010641D01*
X045280Y010631D01*
X045311Y010618D01*
X045340Y010602D01*
X045367Y010583D01*
X045392Y010560D01*
X045415Y010535D01*
X045434Y010508D01*
X045450Y010479D01*
X045463Y010448D01*
X045473Y010416D01*
X045478Y010382D01*
X045480Y010349D01*
X045480Y010002D01*
X043921Y010648D02*
X043885Y010646D01*
X043849Y010641D01*
X043814Y010632D01*
X043779Y010620D01*
X043747Y010604D01*
X043715Y010586D01*
X043686Y010564D01*
X043659Y010540D01*
X043635Y010513D01*
X043613Y010484D01*
X043595Y010452D01*
X043579Y010420D01*
X043567Y010385D01*
X043558Y010350D01*
X043553Y010314D01*
X043551Y010278D01*
X043551Y009593D01*
X042939Y010205D01*
X042346Y010205D01*
X041529Y010205D01*
X041519Y010215D01*
X040732Y010215D01*
X040830Y010313D01*
X040811Y010904D01*
X042346Y009516D02*
X042346Y008955D01*
X041519Y008876D02*
X041519Y009428D01*
X040732Y009428D02*
X040732Y008876D01*
X037307Y009546D02*
X036618Y009546D01*
X036628Y010136D02*
X037307Y010136D01*
X041126Y012872D02*
X041126Y013483D01*
X049748Y008837D02*
X049748Y007735D01*
X049747Y007735D02*
X049745Y007697D01*
X049740Y007660D01*
X049731Y007623D01*
X049719Y007587D01*
X049704Y007553D01*
X049686Y007520D01*
X049664Y007489D01*
X049640Y007459D01*
X049614Y007433D01*
X049584Y007409D01*
X049553Y007387D01*
X049520Y007369D01*
X049486Y007354D01*
X049450Y007342D01*
X049413Y007333D01*
X049376Y007328D01*
X049338Y007326D01*
X049338Y007325D02*
X048665Y007325D01*
X048071Y007325D01*
X048041Y007327D01*
X048011Y007332D01*
X047982Y007341D01*
X047954Y007354D01*
X047928Y007370D01*
X047904Y007388D01*
X047882Y007410D01*
X047864Y007434D01*
X047848Y007460D01*
X047835Y007488D01*
X047826Y007517D01*
X047821Y007547D01*
X047819Y007577D01*
X049747Y008837D02*
X049749Y008883D01*
X049755Y008928D01*
X049764Y008973D01*
X049777Y009016D01*
X049793Y009059D01*
X049814Y009100D01*
X049837Y009139D01*
X049863Y009176D01*
X049893Y009211D01*
X049925Y009243D01*
X049960Y009273D01*
X049997Y009299D01*
X050036Y009322D01*
X050077Y009343D01*
X050120Y009359D01*
X050163Y009372D01*
X050208Y009381D01*
X050253Y009387D01*
X050299Y009389D01*
X050742Y009389D01*
X040889Y018483D02*
X040889Y018994D01*
X042767Y019774D02*
X042921Y019620D01*
X043523Y019620D01*
X042913Y019920D02*
X042767Y019774D01*
X042913Y019920D02*
X042913Y020439D01*
X044508Y019246D02*
X045354Y019246D01*
X045653Y019546D01*
X045653Y019699D01*
X045681Y019711D01*
X046677Y020924D02*
X047346Y020924D01*
D38*
X048122Y020872D02*
X048122Y020069D01*
X047263Y020069D01*
X047216Y020077D01*
X046815Y020077D01*
X046441Y019703D01*
X045689Y019703D01*
X045681Y019711D01*
X045857Y019356D02*
X045963Y019356D01*
X045968Y019361D01*
X045968Y018895D01*
X045746Y018895D01*
X045696Y018845D01*
X045500Y018845D01*
X045481Y018855D01*
X045454Y018848D01*
X045428Y018855D01*
X045408Y018845D01*
X045364Y018845D01*
X045329Y018810D01*
X045292Y018799D01*
X045279Y018775D01*
X045195Y018730D01*
X045159Y018710D01*
X045123Y018690D01*
X045080Y018673D01*
X045068Y018661D01*
X045022Y018635D01*
X045013Y018605D01*
X044991Y018583D01*
X044943Y018467D01*
X044943Y018341D01*
X044991Y018224D01*
X045080Y018135D01*
X045197Y018087D01*
X045323Y018087D01*
X045439Y018135D01*
X045461Y018157D01*
X045491Y018166D01*
X045491Y018166D01*
X045516Y018212D01*
X045528Y018224D01*
X045546Y018267D01*
X045566Y018304D01*
X045585Y018340D01*
X045601Y018368D01*
X045696Y018368D01*
X045708Y018357D01*
X045654Y018302D01*
X045654Y017911D01*
X045708Y017857D01*
X045654Y017802D01*
X045654Y017411D01*
X045708Y017357D01*
X045654Y017302D01*
X045654Y016911D01*
X045708Y016857D01*
X045654Y016802D01*
X045654Y016411D01*
X045708Y016357D01*
X045654Y016302D01*
X045654Y015911D01*
X045708Y015857D01*
X045654Y015802D01*
X045654Y015411D01*
X045708Y015357D01*
X045684Y015333D01*
X044630Y015333D01*
X044630Y014433D01*
X044588Y014333D01*
X044588Y014207D01*
X044630Y014107D01*
X044630Y013994D01*
X042830Y013960D01*
X042830Y014107D01*
X042830Y014260D01*
X042818Y014306D01*
X042795Y014346D01*
X042791Y014350D01*
X042959Y014350D01*
X042968Y014347D01*
X042974Y014347D01*
X042980Y014346D01*
X043015Y014350D01*
X043088Y014350D01*
X043183Y014389D01*
X043228Y014435D01*
X043345Y014494D01*
X043392Y014513D01*
X043401Y014522D01*
X043401Y014522D01*
X043401Y014522D01*
X043401Y014522D01*
X043403Y014524D01*
X043481Y014602D01*
X043529Y014719D01*
X043529Y014845D01*
X043481Y014961D01*
X043392Y015051D01*
X043275Y015099D01*
X043149Y015099D01*
X043033Y015051D01*
X043007Y015024D01*
X042994Y015017D01*
X042994Y015017D01*
X042994Y015017D01*
X042974Y014992D01*
X042944Y014961D01*
X042936Y014943D01*
X042874Y014864D01*
X042763Y014864D01*
X042810Y014911D01*
X042810Y015302D01*
X042756Y015357D01*
X042810Y015411D01*
X042810Y015802D01*
X042756Y015857D01*
X042810Y015911D01*
X042810Y016302D01*
X042756Y016357D01*
X042810Y016411D01*
X042810Y016802D01*
X042756Y016857D01*
X042810Y016911D01*
X042810Y017302D01*
X042756Y017357D01*
X042810Y017411D01*
X042810Y017802D01*
X042756Y017857D01*
X042810Y017911D01*
X042810Y018302D01*
X042763Y018350D01*
X042871Y018350D01*
X042917Y018277D01*
X042922Y018271D01*
X042930Y018257D01*
X042944Y018224D01*
X042964Y018205D01*
X042972Y018191D01*
X042972Y018191D01*
X042989Y018179D01*
X043033Y018135D01*
X043149Y018087D01*
X043275Y018087D01*
X043392Y018135D01*
X043481Y018224D01*
X043529Y018341D01*
X043529Y018467D01*
X043481Y018583D01*
X043437Y018627D01*
X043425Y018644D01*
X043412Y018653D01*
X043392Y018673D01*
X043359Y018686D01*
X043339Y018699D01*
X043179Y018800D01*
X043155Y018824D01*
X043133Y018833D01*
X043142Y018842D01*
X043142Y019029D01*
X043172Y019029D01*
X043231Y018970D01*
X043815Y018970D01*
X043883Y019038D01*
X043984Y019038D01*
X044123Y019177D01*
X044123Y019063D01*
X044216Y018970D01*
X044448Y018970D01*
X044452Y018968D01*
X045409Y018968D01*
X045512Y019010D01*
X045857Y019356D01*
X045968Y019179D02*
X045680Y019179D01*
X045447Y018984D02*
X045968Y018984D01*
X045286Y018788D02*
X043198Y018788D01*
X043339Y018699D02*
X043339Y018699D01*
X043471Y018593D02*
X045000Y018593D01*
X045022Y018635D02*
X045022Y018635D01*
X045022Y018635D01*
X045195Y018730D02*
X045195Y018730D01*
X044943Y018398D02*
X043529Y018398D01*
X043459Y018202D02*
X045013Y018202D01*
X045491Y018166D02*
X045491Y018166D01*
X045511Y018202D02*
X045654Y018202D01*
X045585Y018340D02*
X045585Y018340D01*
X045654Y018007D02*
X042810Y018007D01*
X042810Y018202D02*
X042965Y018202D01*
X042972Y018191D02*
X042972Y018191D01*
X042917Y018277D02*
X042917Y018277D01*
X043162Y018372D02*
X043017Y018599D01*
X043244Y018455D01*
X043212Y018404D01*
X043162Y018372D01*
X043212Y018404D02*
X043010Y018607D01*
X042252Y018607D01*
X042392Y018895D02*
X041786Y018895D01*
X041694Y018802D01*
X041694Y018411D01*
X041748Y018357D01*
X041694Y018302D01*
X041694Y018151D01*
X041673Y018131D01*
X040303Y018131D01*
X040263Y018170D01*
X040224Y018210D01*
X040206Y018227D01*
X040068Y018227D01*
X039989Y018307D01*
X039989Y018617D01*
X039744Y018862D01*
X039397Y018862D01*
X039152Y018617D01*
X039152Y018270D01*
X039397Y018025D01*
X039707Y018025D01*
X039787Y017945D01*
X039903Y017829D01*
X040041Y017829D01*
X040138Y017732D01*
X040329Y017732D01*
X040295Y017698D01*
X040256Y017658D01*
X039963Y017658D01*
X039744Y017877D01*
X039397Y017877D01*
X039152Y017632D01*
X039152Y017286D01*
X039397Y017041D01*
X039744Y017041D01*
X039963Y017260D01*
X040421Y017260D01*
X040568Y017407D01*
X041697Y017407D01*
X041748Y017357D01*
X041697Y017306D01*
X040730Y017306D01*
X040218Y016794D01*
X040098Y016674D01*
X039963Y016674D01*
X039744Y016893D01*
X039397Y016893D01*
X039152Y016648D01*
X039152Y016301D01*
X039397Y016056D01*
X039744Y016056D01*
X039963Y016275D01*
X040073Y016275D01*
X039707Y015909D01*
X039397Y015909D01*
X039152Y015664D01*
X039152Y015317D01*
X039397Y015072D01*
X039744Y015072D01*
X039989Y015317D01*
X039989Y015627D01*
X040060Y015698D01*
X040060Y015278D01*
X039707Y014925D01*
X039397Y014925D01*
X039152Y014680D01*
X039152Y014333D01*
X039397Y014088D01*
X039744Y014088D01*
X039824Y014168D01*
X039824Y014057D01*
X039707Y013940D01*
X039397Y013940D01*
X039152Y013695D01*
X039152Y013349D01*
X039397Y013104D01*
X039744Y013104D01*
X039989Y013349D01*
X039989Y013659D01*
X040223Y013892D01*
X040223Y014542D01*
X040656Y014975D01*
X040656Y015487D01*
X040854Y015685D01*
X041594Y015685D01*
X041694Y015586D01*
X041694Y015411D01*
X041748Y015357D01*
X041694Y015302D01*
X041694Y014911D01*
X041748Y014857D01*
X041694Y014802D01*
X041694Y014411D01*
X041734Y014371D01*
X041709Y014346D01*
X041686Y014306D01*
X041674Y014260D01*
X041674Y014107D01*
X042252Y014107D01*
X042830Y014107D01*
X042252Y014107D01*
X042252Y014107D01*
X042252Y014107D01*
X041674Y014107D01*
X041674Y013953D01*
X041678Y013937D01*
X041586Y013935D01*
X041595Y013971D01*
X041595Y014196D01*
X041209Y014196D01*
X041209Y014206D01*
X041595Y014206D01*
X041595Y014431D01*
X041583Y014477D01*
X041560Y014517D01*
X041527Y014551D01*
X041515Y014557D01*
X041575Y014618D01*
X041575Y015162D01*
X041506Y015232D01*
X041521Y015270D01*
X041521Y015287D01*
X041536Y015338D01*
X041521Y015365D01*
X041521Y015396D01*
X041473Y015513D01*
X041384Y015602D01*
X041267Y015650D01*
X041141Y015650D01*
X041025Y015602D01*
X040936Y015513D01*
X040888Y015396D01*
X040888Y015365D01*
X040873Y015338D01*
X040873Y015338D01*
X040873Y015338D01*
X040888Y015287D01*
X040888Y015270D01*
X040903Y015232D01*
X040833Y015162D01*
X040833Y014618D01*
X040894Y014557D01*
X040882Y014551D01*
X040849Y014517D01*
X040826Y014477D01*
X040813Y014431D01*
X040813Y014206D01*
X041199Y014206D01*
X041199Y014196D01*
X040813Y014196D01*
X040813Y013971D01*
X040826Y013926D01*
X040828Y013921D01*
X040574Y013916D01*
X040844Y013893D01*
X040849Y013885D01*
X040882Y013852D01*
X040923Y013828D01*
X040968Y013816D01*
X041047Y013816D01*
X041047Y013793D01*
X040946Y013751D01*
X040857Y013662D01*
X040809Y013546D01*
X040809Y013420D01*
X040847Y013327D01*
X040847Y013228D01*
X040844Y013228D01*
X040751Y013135D01*
X040751Y012610D01*
X040823Y012538D01*
X040751Y012466D01*
X040751Y012383D01*
X040698Y012383D01*
X040563Y012447D01*
X040557Y012452D01*
X040506Y012473D01*
X040499Y012477D01*
X040438Y012505D01*
X040438Y012505D01*
X040438Y012505D01*
X040424Y012500D01*
X040315Y012500D01*
X040198Y012452D01*
X040109Y012363D01*
X040061Y012246D01*
X040061Y012120D01*
X040109Y012004D01*
X040198Y011915D01*
X040315Y011867D01*
X040424Y011867D01*
X040438Y011862D01*
X040442Y011864D01*
X040428Y011839D01*
X040416Y011794D01*
X040416Y011573D01*
X040416Y011353D01*
X040428Y011308D01*
X040451Y011267D01*
X040485Y011234D01*
X040496Y011227D01*
X040436Y011166D01*
X040436Y010641D01*
X040448Y010629D01*
X040351Y010629D01*
X040259Y010536D01*
X040259Y009893D01*
X040331Y009821D01*
X040259Y009749D01*
X040259Y009106D01*
X040351Y009013D01*
X040446Y009013D01*
X040415Y008939D01*
X040415Y008813D01*
X040463Y008697D01*
X040552Y008608D01*
X040669Y008560D01*
X040795Y008560D01*
X040911Y008608D01*
X041001Y008697D01*
X041049Y008813D01*
X041049Y008939D01*
X041018Y009013D01*
X041113Y009013D01*
X041126Y009026D01*
X041139Y009013D01*
X041233Y009013D01*
X041203Y008939D01*
X041203Y008813D01*
X041251Y008697D01*
X041340Y008608D01*
X041456Y008560D01*
X041582Y008560D01*
X041699Y008608D01*
X041788Y008697D01*
X041836Y008813D01*
X041836Y008939D01*
X041806Y009013D01*
X041900Y009013D01*
X041993Y009106D01*
X041993Y009226D01*
X042068Y009151D01*
X042068Y009111D01*
X042029Y009018D01*
X042029Y008892D01*
X042078Y008776D01*
X042167Y008687D01*
X042283Y008638D01*
X042409Y008638D01*
X042526Y008687D01*
X042615Y008776D01*
X042663Y008892D01*
X042663Y009018D01*
X042625Y009111D01*
X042625Y009151D01*
X042717Y009244D01*
X042717Y009788D01*
X042690Y009816D01*
X042929Y009821D01*
X042937Y009813D01*
X042937Y002853D01*
X040250Y002867D01*
X040331Y002949D01*
X040380Y003065D01*
X040380Y003191D01*
X040331Y003308D01*
X040242Y003397D01*
X040126Y003445D01*
X040000Y003445D01*
X039907Y003407D01*
X039906Y003407D01*
X039813Y003499D01*
X039768Y003499D01*
X039798Y003517D01*
X039831Y003550D01*
X039855Y003591D01*
X039867Y003636D01*
X039867Y003876D01*
X039492Y003876D01*
X039492Y003876D01*
X039867Y003876D01*
X039867Y004116D01*
X039855Y004162D01*
X039831Y004202D01*
X039798Y004236D01*
X039779Y004247D01*
X039818Y004269D01*
X039851Y004302D01*
X039875Y004343D01*
X039887Y004388D01*
X039887Y004619D01*
X039507Y004619D01*
X039507Y004629D01*
X039887Y004629D01*
X039887Y004860D01*
X039875Y004906D01*
X039851Y004947D01*
X039818Y004980D01*
X039777Y005003D01*
X039732Y005015D01*
X039507Y005015D01*
X039507Y004629D01*
X039497Y004629D01*
X039497Y005015D01*
X039271Y005015D01*
X039226Y005003D01*
X039185Y004980D01*
X039152Y004947D01*
X039145Y004935D01*
X039085Y004995D01*
X038595Y004995D01*
X038595Y005887D01*
X038662Y005820D01*
X039054Y005820D01*
X039331Y006098D01*
X039331Y006490D01*
X039054Y006767D01*
X038662Y006767D01*
X038595Y006701D01*
X038595Y010858D01*
X038555Y010956D01*
X038481Y011030D01*
X038383Y011071D01*
X029852Y011071D01*
X029755Y011030D01*
X029681Y010956D01*
X029640Y010858D01*
X029640Y010767D01*
X029624Y010783D01*
X029542Y010783D01*
X029542Y010900D01*
X029520Y010921D01*
X029519Y010938D01*
X029513Y010981D01*
X029513Y011026D01*
X029506Y011044D01*
X029502Y011082D01*
X029502Y011082D01*
X029485Y011095D01*
X029465Y011142D01*
X029376Y011232D01*
X029260Y011280D01*
X029134Y011280D01*
X029017Y011232D01*
X028941Y011155D01*
X028864Y011232D01*
X028748Y011280D01*
X028622Y011280D01*
X028505Y011232D01*
X028416Y011142D01*
X028397Y011095D01*
X028380Y011082D01*
X028380Y011082D01*
X028380Y011082D01*
X028375Y011044D01*
X028368Y011026D01*
X028368Y010981D01*
X028361Y010921D01*
X028340Y010900D01*
X028340Y010751D01*
X028257Y010751D01*
X028164Y010659D01*
X028164Y010134D01*
X028236Y010061D01*
X028190Y010016D01*
X028156Y010051D01*
X028039Y010099D01*
X027913Y010099D01*
X027797Y010051D01*
X027707Y009961D01*
X027659Y009845D01*
X027659Y009735D01*
X027654Y009722D01*
X027654Y009722D01*
X027654Y009722D01*
X027686Y009654D01*
X027707Y009602D01*
X027713Y009597D01*
X027774Y009468D01*
X027422Y009468D01*
X027369Y009415D01*
X027367Y009419D01*
X027334Y009452D01*
X027293Y009476D01*
X027248Y009488D01*
X027106Y009488D01*
X026964Y009488D01*
X026919Y009476D01*
X026890Y009459D01*
X026890Y009887D01*
X026811Y009966D01*
X026817Y009988D01*
X026818Y009991D01*
X026836Y010034D01*
X026836Y010051D01*
X026851Y010101D01*
X026851Y010101D01*
X026851Y010101D01*
X026836Y010129D01*
X026836Y010160D01*
X026788Y010276D01*
X026699Y010365D01*
X026582Y010414D01*
X026456Y010414D01*
X026340Y010365D01*
X026251Y010276D01*
X026203Y010160D01*
X026203Y010129D01*
X026188Y010101D01*
X026203Y010051D01*
X026203Y010034D01*
X026220Y009991D01*
X026228Y009966D01*
X026148Y009887D01*
X026148Y009726D01*
X026128Y009746D01*
X026128Y009746D01*
X026010Y009864D01*
X026010Y010211D01*
X026040Y010241D01*
X026181Y010292D01*
X026189Y010292D01*
X026240Y010313D01*
X026304Y010336D01*
X026311Y010338D01*
X026317Y010352D01*
X026394Y010429D01*
X026443Y010546D01*
X026443Y010672D01*
X026394Y010788D01*
X026305Y010877D01*
X026189Y010926D01*
X026063Y010926D01*
X025983Y010892D01*
X026089Y010999D01*
X026089Y011825D01*
X026569Y012306D01*
X026569Y012333D01*
X026685Y012333D01*
X026818Y012333D01*
X026864Y012345D01*
X026877Y012353D01*
X027122Y012353D01*
X027136Y012345D01*
X027181Y012333D01*
X027315Y012333D01*
X027448Y012333D01*
X027494Y012345D01*
X027507Y012353D01*
X027958Y012353D01*
X027921Y012275D01*
X027910Y012250D01*
X027904Y012245D01*
X027883Y012194D01*
X027851Y012126D01*
X027856Y012112D01*
X027856Y012002D01*
X027904Y011886D01*
X027993Y011797D01*
X028110Y011749D01*
X028236Y011749D01*
X028352Y011797D01*
X028442Y011886D01*
X028490Y012002D01*
X028490Y012096D01*
X028800Y011786D01*
X028917Y011669D01*
X029058Y011669D01*
X029058Y011626D01*
X029151Y011533D01*
X029676Y011533D01*
X029748Y011605D01*
X029820Y011533D01*
X030345Y011533D01*
X030387Y011576D01*
X030450Y011513D01*
X031053Y011513D01*
X031146Y011606D01*
X031146Y012210D01*
X031053Y012303D01*
X030450Y012303D01*
X030387Y012240D01*
X030345Y012283D01*
X029820Y012283D01*
X029748Y012211D01*
X029676Y012283D01*
X029151Y012283D01*
X029058Y012190D01*
X029058Y012092D01*
X028774Y012376D01*
X028774Y012377D01*
X028843Y012446D01*
X028843Y013077D01*
X028750Y013170D01*
X028294Y013170D01*
X028294Y013399D01*
X028357Y013534D01*
X028363Y013539D01*
X028384Y013591D01*
X028416Y013659D01*
X028411Y013672D01*
X028411Y013782D01*
X028363Y013898D01*
X028274Y013988D01*
X028157Y014036D01*
X028057Y014036D01*
X028057Y014136D01*
X028008Y014253D01*
X027919Y014342D01*
X027909Y014346D01*
X028334Y014346D01*
X028397Y014409D01*
X028754Y014409D01*
X028754Y013173D01*
X028847Y013080D01*
X029478Y013080D01*
X029547Y013149D01*
X029657Y013149D01*
X029791Y013283D01*
X030893Y013283D01*
X031090Y013480D01*
X032500Y013480D01*
X033092Y012888D01*
X033210Y012770D01*
X033210Y012485D01*
X033197Y012450D01*
X033170Y012424D01*
X033170Y012386D01*
X033118Y012275D01*
X033107Y012250D01*
X033101Y012245D01*
X033080Y012194D01*
X033048Y012126D01*
X033053Y012112D01*
X033053Y012002D01*
X033101Y011886D01*
X033190Y011797D01*
X033307Y011749D01*
X033416Y011749D01*
X033430Y011744D01*
X033498Y011776D01*
X033549Y011797D01*
X033555Y011802D01*
X033580Y011814D01*
X033690Y011866D01*
X033715Y011866D01*
X033715Y011795D01*
X033808Y011702D01*
X034333Y011702D01*
X034394Y011763D01*
X034400Y011751D01*
X034433Y011718D01*
X034474Y011694D01*
X034520Y011682D01*
X034740Y011682D01*
X034960Y011682D01*
X035006Y011694D01*
X035046Y011718D01*
X035079Y011751D01*
X035103Y011792D01*
X035115Y011837D01*
X035115Y012077D01*
X034740Y012077D01*
X034740Y012077D01*
X034740Y011682D01*
X034740Y012077D01*
X034740Y012077D01*
X035115Y012077D01*
X035115Y012317D01*
X035103Y012363D01*
X035079Y012403D01*
X035046Y012436D01*
X035006Y012460D01*
X034960Y012472D01*
X034740Y012472D01*
X034740Y012077D01*
X034740Y012077D01*
X034740Y012472D01*
X034520Y012472D01*
X034474Y012460D01*
X034433Y012436D01*
X034400Y012403D01*
X034394Y012392D01*
X034333Y012452D01*
X033808Y012452D01*
X033715Y012359D01*
X033715Y012265D01*
X033690Y012265D01*
X033609Y012303D01*
X033609Y012771D01*
X033635Y012760D01*
X033703Y012728D01*
X033703Y012728D01*
X033703Y012728D01*
X033717Y012733D01*
X033826Y012733D01*
X033943Y012781D01*
X034032Y012870D01*
X034080Y012987D01*
X034080Y013113D01*
X034032Y013229D01*
X033943Y013318D01*
X033826Y013366D01*
X033717Y013366D01*
X033703Y013371D01*
X033635Y013339D01*
X033584Y013318D01*
X033578Y013313D01*
X033503Y013277D01*
X033387Y013393D01*
X033431Y013411D01*
X033520Y013500D01*
X033569Y013617D01*
X033569Y013743D01*
X033520Y013859D01*
X033443Y013936D01*
X033437Y013950D01*
X033431Y013952D01*
X033366Y013975D01*
X033315Y013996D01*
X033307Y013996D01*
X033166Y014047D01*
X033083Y014130D01*
X033027Y014188D01*
X033025Y014189D01*
X033023Y014190D01*
X032942Y014190D01*
X032914Y014190D01*
X032914Y014361D01*
X032914Y014601D01*
X032902Y014646D01*
X032893Y014661D01*
X033445Y014661D01*
X033603Y014502D01*
X033603Y014196D01*
X033600Y014117D01*
X033603Y014114D01*
X033603Y014109D01*
X033659Y014053D01*
X034037Y013641D01*
X034037Y013636D01*
X034092Y013581D01*
X034145Y013523D01*
X034150Y013523D01*
X034152Y013521D01*
X034152Y013349D01*
X034397Y013104D01*
X034744Y013104D01*
X034989Y013349D01*
X034989Y013695D01*
X034968Y013716D01*
X034988Y013716D01*
X035460Y014189D01*
X035577Y014306D01*
X035577Y017719D01*
X034989Y018307D01*
X034989Y018617D01*
X034744Y018862D01*
X034397Y018862D01*
X034396Y018860D01*
X034396Y019010D01*
X034434Y019049D01*
X034744Y019049D01*
X034989Y019294D01*
X034989Y019640D01*
X034744Y019885D01*
X034397Y019885D01*
X034152Y019640D01*
X034152Y019330D01*
X033997Y019175D01*
X033997Y018137D01*
X033972Y018162D01*
X033903Y018347D01*
X033903Y018353D01*
X033880Y018409D01*
X033869Y018439D01*
X033853Y018481D01*
X033853Y018481D01*
X033843Y018486D01*
X033757Y018571D01*
X033634Y018622D01*
X033500Y018622D01*
X033376Y018571D01*
X033281Y018476D01*
X033230Y018353D01*
X033230Y018219D01*
X033281Y018095D01*
X033367Y018010D01*
X033371Y018000D01*
X033385Y017995D01*
X033443Y017973D01*
X033500Y017949D01*
X033506Y017949D01*
X033545Y017935D01*
X033403Y017935D01*
X033310Y017842D01*
X033310Y017540D01*
X033169Y017540D01*
X033135Y017506D01*
X033135Y017540D01*
X032838Y017540D01*
X032838Y017955D01*
X032697Y017955D01*
X032651Y017943D01*
X032611Y017919D01*
X032577Y017886D01*
X032577Y017885D01*
X032549Y017901D01*
X032503Y017913D01*
X032272Y017913D01*
X032272Y017533D01*
X032262Y017533D01*
X032262Y017913D01*
X032031Y017913D01*
X031986Y017901D01*
X031945Y017877D01*
X031916Y017849D01*
X031916Y017899D01*
X031824Y017991D01*
X031743Y017991D01*
X031797Y018046D01*
X031797Y018242D01*
X032057Y018501D01*
X032057Y018881D01*
X031788Y019150D01*
X031408Y019150D01*
X031140Y018881D01*
X031140Y018501D01*
X031399Y018242D01*
X031399Y018211D01*
X031322Y018135D01*
X031322Y017991D01*
X031220Y017991D01*
X031127Y017899D01*
X031127Y017848D01*
X031110Y017855D01*
X030984Y017855D01*
X030888Y017815D01*
X030888Y017899D01*
X030795Y017991D01*
X030237Y017991D01*
X030237Y018155D01*
X030167Y018224D01*
X030183Y018262D01*
X030183Y018279D01*
X030198Y018330D01*
X030183Y018357D01*
X030183Y018388D01*
X030134Y018505D01*
X030045Y018594D01*
X030000Y018613D01*
X030024Y018638D01*
X030024Y019194D01*
X029938Y019281D01*
X029938Y019315D01*
X030005Y019382D01*
X030005Y019413D01*
X030228Y019413D01*
X030320Y019321D01*
X030320Y019061D01*
X030140Y018881D01*
X030140Y018501D01*
X030408Y018233D01*
X030788Y018233D01*
X031057Y018501D01*
X031057Y018881D01*
X030877Y019061D01*
X030877Y019321D01*
X031057Y019501D01*
X031057Y019881D01*
X030788Y020150D01*
X030408Y020150D01*
X030228Y019970D01*
X029981Y019970D01*
X029912Y020039D01*
X029387Y020039D01*
X029326Y019978D01*
X029320Y019990D01*
X029286Y020023D01*
X029246Y020047D01*
X029200Y020059D01*
X028980Y020059D01*
X028760Y020059D01*
X028714Y020047D01*
X028674Y020023D01*
X028640Y019990D01*
X028617Y019949D01*
X028605Y019904D01*
X028605Y019664D01*
X028980Y019664D01*
X028980Y020059D01*
X028980Y019664D01*
X028980Y019664D01*
X028980Y019664D01*
X028605Y019664D01*
X028605Y019424D01*
X028617Y019378D01*
X028640Y019338D01*
X028674Y019304D01*
X028704Y019287D01*
X028698Y019287D01*
X028640Y019228D01*
X028630Y019233D01*
X028504Y019233D01*
X028387Y019184D01*
X028298Y019095D01*
X028250Y018979D01*
X028250Y018853D01*
X028298Y018736D01*
X028387Y018647D01*
X028504Y018599D01*
X028630Y018599D01*
X028640Y018603D01*
X028698Y018545D01*
X029242Y018545D01*
X029315Y018617D01*
X029387Y018545D01*
X029637Y018545D01*
X029597Y018505D01*
X029549Y018388D01*
X029549Y018357D01*
X029534Y018330D01*
X029534Y018330D01*
X029534Y018330D01*
X029549Y018279D01*
X029549Y018262D01*
X029565Y018224D01*
X029495Y018155D01*
X029495Y017610D01*
X029555Y017549D01*
X029544Y017543D01*
X029510Y017510D01*
X029487Y017469D01*
X029475Y017423D01*
X029475Y017198D01*
X029861Y017198D01*
X029861Y017188D01*
X029871Y017188D01*
X029871Y016808D01*
X030083Y016808D01*
X030091Y016780D01*
X030114Y016739D01*
X030148Y016706D01*
X030188Y016683D01*
X030234Y016670D01*
X030493Y016670D01*
X030493Y016967D01*
X030493Y017263D01*
X030257Y017263D01*
X030257Y017423D01*
X030253Y017438D01*
X030493Y017438D01*
X030493Y017298D01*
X030527Y017263D01*
X030493Y017263D01*
X030493Y016967D01*
X030493Y016967D01*
X030493Y016967D01*
X030493Y016670D01*
X030753Y016670D01*
X030798Y016683D01*
X030839Y016706D01*
X030872Y016739D01*
X030896Y016780D01*
X030908Y016825D01*
X030908Y016945D01*
X031004Y016945D01*
X031005Y016943D01*
X031122Y016827D01*
X031127Y016827D01*
X031127Y016783D01*
X031204Y016706D01*
X031198Y016693D01*
X031203Y016679D01*
X031203Y016569D01*
X031251Y016453D01*
X031340Y016364D01*
X031456Y016315D01*
X031582Y016315D01*
X031699Y016364D01*
X031788Y016453D01*
X031836Y016569D01*
X031836Y016679D01*
X031841Y016693D01*
X031836Y016703D01*
X031896Y016763D01*
X031896Y016567D01*
X031966Y016497D01*
X031951Y016459D01*
X031951Y016442D01*
X031940Y016407D01*
X031936Y016392D01*
X031951Y016364D01*
X031951Y016333D01*
X031999Y016217D01*
X032088Y016127D01*
X032204Y016079D01*
X032266Y016079D01*
X032266Y016018D01*
X032271Y016005D01*
X030618Y016005D01*
X029870Y016753D01*
X029633Y016753D01*
X029475Y016912D01*
X029475Y017187D01*
X029358Y017304D01*
X028973Y017689D01*
X028923Y017829D01*
X028923Y017837D01*
X028902Y017888D01*
X028878Y017953D01*
X028876Y017959D01*
X028863Y017965D01*
X028785Y018043D01*
X028669Y018091D01*
X028543Y018091D01*
X028427Y018043D01*
X028337Y017953D01*
X028289Y017837D01*
X028289Y017711D01*
X028295Y017697D01*
X028228Y017697D01*
X028112Y017649D01*
X028071Y017609D01*
X028071Y017997D01*
X027979Y018090D01*
X027979Y018091D01*
X028017Y018183D01*
X028017Y018309D01*
X027969Y018426D01*
X027880Y018515D01*
X027763Y018563D01*
X027637Y018563D01*
X027521Y018515D01*
X027432Y018426D01*
X027384Y018309D01*
X027384Y018183D01*
X027422Y018091D01*
X027422Y018090D01*
X027366Y018033D01*
X027310Y018090D01*
X027310Y018091D01*
X027348Y018183D01*
X027348Y018309D01*
X027300Y018426D01*
X027211Y018515D01*
X027094Y018563D01*
X026968Y018563D01*
X026852Y018515D01*
X026763Y018426D01*
X026714Y018309D01*
X026714Y018183D01*
X026753Y018091D01*
X026753Y018090D01*
X026660Y017997D01*
X026660Y017452D01*
X026721Y017392D01*
X026709Y017385D01*
X026676Y017352D01*
X026652Y017311D01*
X026640Y017266D01*
X026640Y017041D01*
X027026Y017041D01*
X027026Y017031D01*
X026640Y017031D01*
X026640Y016806D01*
X026652Y016760D01*
X026676Y016720D01*
X026709Y016686D01*
X026750Y016663D01*
X026795Y016651D01*
X027026Y016651D01*
X027026Y017031D01*
X027036Y017031D01*
X027036Y016651D01*
X027267Y016651D01*
X027313Y016663D01*
X027353Y016686D01*
X027366Y016699D01*
X027378Y016686D01*
X027419Y016663D01*
X027464Y016651D01*
X027696Y016651D01*
X027696Y017031D01*
X027705Y017031D01*
X027705Y016651D01*
X027937Y016651D01*
X027982Y016663D01*
X028023Y016686D01*
X028056Y016720D01*
X028079Y016760D01*
X028091Y016806D01*
X028091Y017031D01*
X027705Y017031D01*
X027705Y017041D01*
X028091Y017041D01*
X028091Y017132D01*
X028112Y017112D01*
X028228Y017063D01*
X028338Y017063D01*
X028351Y017058D01*
X028419Y017090D01*
X028425Y017093D01*
X028407Y017050D01*
X028407Y016924D01*
X028455Y016807D01*
X028510Y016753D01*
X028287Y016753D01*
X028170Y016636D01*
X028084Y016550D01*
X027822Y016550D01*
X027808Y016557D01*
X027763Y016570D01*
X027630Y016570D01*
X027630Y016141D01*
X027630Y015713D01*
X027706Y015713D01*
X027622Y015650D01*
X027600Y015641D01*
X027572Y015613D01*
X027553Y015599D01*
X027553Y015713D01*
X027630Y015713D01*
X027630Y016141D01*
X027630Y016141D01*
X027630Y016141D01*
X027630Y016570D01*
X027496Y016570D01*
X027451Y016557D01*
X027437Y016550D01*
X027192Y016550D01*
X027179Y016557D01*
X027133Y016570D01*
X027000Y016570D01*
X027000Y016141D01*
X027000Y016141D01*
X027000Y016570D01*
X026866Y016570D01*
X026833Y016561D01*
X026758Y016636D01*
X026641Y016753D01*
X026484Y016753D01*
X026404Y016833D01*
X026404Y017965D01*
X026225Y018144D01*
X026225Y018666D01*
X026132Y018759D01*
X026127Y018759D01*
X026127Y019312D01*
X026034Y019405D01*
X025489Y019405D01*
X025417Y019333D01*
X025345Y019405D01*
X024800Y019405D01*
X024721Y019326D01*
X024719Y019326D01*
X024696Y019333D01*
X024653Y019351D01*
X024636Y019351D01*
X024586Y019366D01*
X024586Y019366D01*
X024562Y019353D01*
X024558Y019351D01*
X024527Y019351D01*
X024411Y019302D01*
X024322Y019213D01*
X024273Y019097D01*
X024273Y018971D01*
X024322Y018854D01*
X024411Y018765D01*
X024425Y018759D01*
X023993Y018759D01*
X023931Y018697D01*
X023923Y018712D01*
X023923Y018743D01*
X023875Y018859D01*
X023785Y018948D01*
X023669Y018996D01*
X023543Y018996D01*
X023427Y018948D01*
X023337Y018859D01*
X023289Y018743D01*
X023289Y018712D01*
X023274Y018684D01*
X023289Y018633D01*
X023289Y018617D01*
X023307Y018574D01*
X023314Y018549D01*
X023235Y018470D01*
X023235Y017925D01*
X023307Y017853D01*
X023235Y017781D01*
X023235Y017236D01*
X023328Y017143D01*
X023884Y017143D01*
X023919Y017178D01*
X023993Y017104D01*
X024510Y017104D01*
X024841Y016773D01*
X024841Y016417D01*
X024934Y016324D01*
X025459Y016324D01*
X025531Y016396D01*
X025603Y016324D01*
X025959Y016324D01*
X025968Y016315D01*
X026082Y016315D01*
X026101Y016296D01*
X026101Y015826D01*
X026174Y015753D01*
X026167Y015753D01*
X026098Y015822D01*
X025467Y015822D01*
X025374Y015729D01*
X025374Y015584D01*
X025371Y015591D01*
X025356Y015606D01*
X025335Y015641D01*
X025335Y015641D01*
X025335Y015641D01*
X025315Y015647D01*
X025282Y015680D01*
X025216Y015708D01*
X025253Y015744D01*
X025301Y015861D01*
X025301Y015987D01*
X025253Y016103D01*
X025163Y016192D01*
X025047Y016240D01*
X024921Y016240D01*
X024804Y016192D01*
X024727Y016115D01*
X024714Y016108D01*
X024711Y016102D01*
X024688Y016038D01*
X024667Y015987D01*
X024667Y015979D01*
X024617Y015838D01*
X024588Y015809D01*
X024588Y015769D01*
X024574Y015739D01*
X024577Y015729D01*
X024574Y015718D01*
X024588Y015688D01*
X024588Y015375D01*
X022438Y015375D01*
X022438Y015680D01*
X022170Y015949D01*
X021790Y015949D01*
X021522Y015680D01*
X021522Y015301D01*
X021644Y015178D01*
X021574Y015178D01*
X021438Y015314D01*
X021438Y015680D01*
X021170Y015949D01*
X020790Y015949D01*
X020522Y015680D01*
X020522Y015301D01*
X020790Y015032D01*
X021156Y015032D01*
X021409Y014779D01*
X021621Y014779D01*
X021589Y014747D01*
X021371Y014747D01*
X021170Y014949D01*
X020790Y014949D01*
X020522Y014680D01*
X020522Y014301D01*
X020723Y014099D01*
X020723Y013973D01*
X020633Y013883D01*
X020633Y013358D01*
X020693Y013298D01*
X020681Y013291D01*
X020648Y013258D01*
X020625Y013217D01*
X020613Y013172D01*
X020613Y012951D01*
X020613Y012731D01*
X020625Y012685D01*
X020648Y012645D01*
X020681Y012612D01*
X020722Y012588D01*
X020768Y012576D01*
X021008Y012576D01*
X021248Y012576D01*
X021293Y012588D01*
X021334Y012612D01*
X021367Y012645D01*
X021390Y012685D01*
X021403Y012731D01*
X021403Y012951D01*
X021008Y012951D01*
X021008Y012951D01*
X021403Y012951D01*
X021403Y013172D01*
X021390Y013217D01*
X021367Y013258D01*
X021334Y013291D01*
X021322Y013298D01*
X021383Y013358D01*
X021383Y013364D01*
X021463Y013364D01*
X021463Y013358D01*
X021535Y013286D01*
X021463Y013214D01*
X021463Y012669D01*
X021532Y012600D01*
X021531Y012594D01*
X021517Y012561D01*
X021517Y012533D01*
X021514Y012518D01*
X021517Y012497D01*
X021517Y012435D01*
X021566Y012319D01*
X021655Y012230D01*
X021771Y012182D01*
X021897Y012182D01*
X022014Y012230D01*
X022103Y012319D01*
X022151Y012435D01*
X022151Y012497D01*
X022155Y012518D01*
X022151Y012533D01*
X022151Y012561D01*
X022138Y012594D01*
X022136Y012600D01*
X022205Y012669D01*
X022205Y013214D01*
X022133Y013286D01*
X022205Y013358D01*
X022205Y013903D01*
X022113Y013995D01*
X021556Y013995D01*
X021463Y013903D01*
X021463Y013877D01*
X021383Y013877D01*
X021383Y013883D01*
X021290Y013976D01*
X021237Y013976D01*
X021237Y014099D01*
X021371Y014234D01*
X021589Y014234D01*
X021790Y014032D01*
X022170Y014032D01*
X022438Y014301D01*
X022438Y014680D01*
X022339Y014779D01*
X022951Y014779D01*
X022884Y014712D01*
X022884Y014332D01*
X023037Y014179D01*
X022618Y013761D01*
X022501Y013644D01*
X022501Y011943D01*
X022698Y011747D01*
X022698Y011653D01*
X022615Y011653D01*
X022522Y011560D01*
X022522Y011035D01*
X022595Y010963D01*
X022522Y010891D01*
X022522Y010366D01*
X022594Y010294D01*
X022590Y010295D01*
X022365Y010295D01*
X022365Y009909D01*
X022355Y009909D01*
X022355Y010295D01*
X022130Y010295D01*
X022084Y010283D01*
X022044Y010259D01*
X022010Y010226D01*
X021987Y010185D01*
X021975Y010140D01*
X021975Y009909D01*
X022355Y009909D01*
X022355Y009899D01*
X022365Y009899D01*
X022365Y009513D01*
X022590Y009513D01*
X022635Y009525D01*
X022676Y009549D01*
X022709Y009582D01*
X022716Y009593D01*
X022777Y009533D01*
X023115Y009533D01*
X023115Y009452D01*
X023078Y009415D01*
X023076Y009419D01*
X023042Y009452D01*
X023002Y009476D01*
X022956Y009488D01*
X022815Y009488D01*
X022815Y008876D01*
X022815Y008265D01*
X022956Y008265D01*
X023002Y008277D01*
X023042Y008301D01*
X023076Y008334D01*
X023078Y008338D01*
X023131Y008285D01*
X023498Y008285D01*
X023565Y008351D01*
X023631Y008285D01*
X023998Y008285D01*
X024065Y008351D01*
X024131Y008285D01*
X024498Y008285D01*
X024565Y008351D01*
X024631Y008285D01*
X024998Y008285D01*
X025065Y008351D01*
X025131Y008285D01*
X025498Y008285D01*
X025565Y008351D01*
X025615Y008301D01*
X025615Y008286D01*
X025447Y008118D01*
X024450Y008118D01*
X024437Y008131D01*
X022468Y008131D01*
X022309Y008290D01*
X022309Y009156D01*
X022108Y009357D01*
X022098Y009381D01*
X022024Y009455D01*
X022000Y009465D01*
X021970Y009495D01*
X021937Y009575D01*
X021864Y009648D01*
X021784Y009681D01*
X021719Y009746D01*
X021404Y010061D01*
X021287Y010178D01*
X020813Y010178D01*
X020813Y010506D01*
X020816Y010509D01*
X021172Y010509D01*
X021264Y010602D01*
X021264Y011127D01*
X021192Y011199D01*
X021264Y011271D01*
X021264Y011796D01*
X021172Y011889D01*
X020839Y011889D01*
X020754Y011984D01*
X020754Y011990D01*
X020700Y012045D01*
X020648Y012102D01*
X020642Y012103D01*
X020637Y012107D01*
X020560Y012107D01*
X020483Y012112D01*
X020479Y012107D01*
X019476Y012107D01*
X019475Y012109D01*
X018964Y012619D01*
X018649Y012619D01*
X018019Y013249D01*
X017860Y013408D01*
X017860Y014707D01*
X017744Y014824D01*
X017073Y015494D01*
X017073Y016117D01*
X017112Y016156D01*
X017852Y016896D01*
X017860Y016888D01*
X018265Y016888D01*
X018551Y017174D01*
X018551Y017579D01*
X018265Y017865D01*
X017860Y017865D01*
X017742Y017747D01*
X017742Y017935D01*
X017703Y017975D01*
X017703Y018014D01*
X017586Y018131D01*
X017547Y018170D01*
X017551Y018174D01*
X017551Y018579D01*
X017374Y018756D01*
X017382Y018756D01*
X017574Y018563D01*
X017574Y018174D01*
X017860Y017888D01*
X018265Y017888D01*
X018551Y018174D01*
X018551Y018579D01*
X018265Y018865D01*
X017860Y018865D01*
X017848Y018853D01*
X017664Y019038D01*
X017547Y019154D01*
X016712Y019154D01*
X016476Y018918D01*
X016359Y018801D01*
X016359Y018770D01*
X016265Y018865D01*
X015860Y018865D01*
X015574Y018579D01*
X015574Y018174D01*
X015574Y018174D01*
X015531Y018131D01*
X015414Y018014D01*
X015414Y017715D01*
X015265Y017865D01*
X014945Y017865D01*
X014968Y017888D01*
X015265Y017888D01*
X015551Y018174D01*
X015551Y018579D01*
X015265Y018865D01*
X014860Y018865D01*
X014574Y018579D01*
X014574Y018282D01*
X014039Y017747D01*
X014039Y017746D01*
X014039Y021475D01*
X015258Y021476D01*
X015258Y020172D01*
X015374Y020056D01*
X022271Y020056D01*
X022387Y020172D01*
X022387Y021486D01*
X022874Y021487D01*
X022853Y021466D01*
X022829Y021426D01*
X022817Y021380D01*
X022817Y021140D01*
X023212Y021140D01*
X023212Y021101D01*
X022817Y021101D01*
X022817Y020861D01*
X022829Y020815D01*
X022853Y020775D01*
X022886Y020741D01*
X022927Y020718D01*
X022972Y020706D01*
X023212Y020706D01*
X023212Y021101D01*
X023252Y021101D01*
X023252Y021140D01*
X023647Y021140D01*
X023647Y021380D01*
X023634Y021426D01*
X023611Y021466D01*
X023589Y021488D01*
X023730Y021488D01*
X023664Y021422D01*
X023664Y020819D01*
X023757Y020726D01*
X024361Y020726D01*
X024384Y020749D01*
X024426Y020706D01*
X024951Y020706D01*
X025023Y020778D01*
X025095Y020706D01*
X025620Y020706D01*
X025707Y020793D01*
X025744Y020782D01*
X025787Y020764D01*
X025804Y020764D01*
X025812Y020762D01*
X025855Y020749D01*
X025882Y020764D01*
X025913Y020764D01*
X026030Y020812D01*
X026119Y020902D01*
X026167Y021018D01*
X026167Y021144D01*
X026119Y021261D01*
X026030Y021350D01*
X025913Y021398D01*
X025882Y021398D01*
X025855Y021413D01*
X025855Y021413D01*
X025855Y021413D01*
X025804Y021398D01*
X025787Y021398D01*
X025744Y021380D01*
X025741Y021379D01*
X025707Y021369D01*
X025620Y021456D01*
X025095Y021456D01*
X025023Y021384D01*
X024951Y021456D01*
X024426Y021456D01*
X024423Y021453D01*
X024387Y021489D01*
X042976Y021514D01*
X045968Y021514D01*
X045968Y020742D01*
X045966Y020743D01*
X045921Y020756D01*
X045681Y020756D01*
X045681Y020380D01*
X045286Y020380D01*
X045286Y020160D01*
X045298Y020115D01*
X045321Y020074D01*
X045355Y020041D01*
X045366Y020034D01*
X045312Y019980D01*
X045242Y020051D01*
X045126Y020099D01*
X045000Y020099D01*
X044899Y020057D01*
X044892Y020056D01*
X044892Y020178D01*
X044800Y020271D01*
X044216Y020271D01*
X044147Y020203D01*
X044047Y020203D01*
X043992Y020148D01*
X043953Y020108D01*
X043908Y020064D01*
X043908Y020178D01*
X043836Y020250D01*
X043864Y020261D01*
X043877Y020274D01*
X043910Y020292D01*
X043910Y020292D01*
X043910Y020292D01*
X043916Y020313D01*
X043953Y020350D01*
X044002Y020467D01*
X044002Y020593D01*
X043953Y020709D01*
X043864Y020799D01*
X043748Y020847D01*
X043622Y020847D01*
X043505Y020799D01*
X043416Y020709D01*
X043404Y020680D01*
X043389Y020669D01*
X043388Y020665D01*
X043379Y020621D01*
X043368Y020593D01*
X043368Y020559D01*
X043353Y020480D01*
X043324Y020451D01*
X043324Y020335D01*
X043309Y020282D01*
X043314Y020273D01*
X043314Y020271D01*
X043268Y020271D01*
X043268Y020722D01*
X043176Y020814D01*
X042651Y020814D01*
X042590Y020754D01*
X042583Y020765D01*
X042550Y020799D01*
X042509Y020822D01*
X042464Y020834D01*
X042244Y020834D01*
X042244Y020439D01*
X042244Y020044D01*
X042400Y020044D01*
X042392Y020036D01*
X042392Y019512D01*
X042465Y019439D01*
X042392Y019367D01*
X042392Y018895D01*
X042392Y018984D02*
X041363Y018984D01*
X041363Y019179D02*
X042392Y019179D01*
X042400Y019374D02*
X041305Y019374D01*
X041302Y019377D02*
X041314Y019383D01*
X041347Y019416D01*
X041371Y019457D01*
X041383Y019502D01*
X041383Y019752D01*
X040919Y019752D01*
X040919Y019811D01*
X041383Y019811D01*
X041383Y020061D01*
X041371Y020107D01*
X041347Y020147D01*
X041314Y020181D01*
X041273Y020204D01*
X041228Y020216D01*
X040919Y020216D01*
X040919Y019811D01*
X040860Y019811D01*
X040860Y019752D01*
X040396Y019752D01*
X040396Y019502D01*
X040408Y019457D01*
X040432Y019416D01*
X040465Y019383D01*
X040477Y019377D01*
X040416Y019316D01*
X040416Y018673D01*
X040509Y018580D01*
X040587Y018580D01*
X040573Y018546D01*
X040573Y018420D01*
X040621Y018303D01*
X040710Y018214D01*
X040826Y018166D01*
X040952Y018166D01*
X041069Y018214D01*
X041158Y018303D01*
X041206Y018420D01*
X041206Y018546D01*
X041192Y018580D01*
X041270Y018580D01*
X041363Y018673D01*
X041363Y019316D01*
X041302Y019377D01*
X041383Y019570D02*
X042392Y019570D01*
X042392Y019765D02*
X040919Y019765D01*
X040860Y019765D02*
X039864Y019765D01*
X039744Y019885D02*
X039397Y019885D01*
X039152Y019640D01*
X039152Y019294D01*
X039397Y019049D01*
X039744Y019049D01*
X039989Y019294D01*
X039989Y019640D01*
X039744Y019885D01*
X039989Y019570D02*
X040396Y019570D01*
X040474Y019374D02*
X039989Y019374D01*
X039874Y019179D02*
X040416Y019179D01*
X040416Y018984D02*
X034396Y018984D01*
X033997Y018984D02*
X032954Y018984D01*
X033057Y018881D02*
X032788Y019150D01*
X032408Y019150D01*
X032140Y018881D01*
X032140Y018501D01*
X032408Y018233D01*
X032788Y018233D01*
X033057Y018501D01*
X033057Y018881D01*
X033057Y018788D02*
X033997Y018788D01*
X033997Y018593D02*
X033705Y018593D01*
X033853Y018481D02*
X033853Y018481D01*
X033885Y018398D02*
X033997Y018398D01*
X033997Y018202D02*
X033957Y018202D01*
X033368Y018007D02*
X031759Y018007D01*
X031797Y018202D02*
X033237Y018202D01*
X033249Y018398D02*
X032953Y018398D01*
X033057Y018593D02*
X033429Y018593D01*
X034001Y019179D02*
X030877Y019179D01*
X030929Y019374D02*
X031267Y019374D01*
X031140Y019501D02*
X031408Y019233D01*
X031788Y019233D01*
X032057Y019501D01*
X032057Y019881D01*
X031788Y020150D01*
X031408Y020150D01*
X031140Y019881D01*
X031140Y019501D01*
X031140Y019570D02*
X031057Y019570D01*
X031057Y019765D02*
X031140Y019765D01*
X031219Y019960D02*
X030977Y019960D01*
X030267Y019374D02*
X029997Y019374D01*
X030024Y019179D02*
X030320Y019179D01*
X030242Y018984D02*
X030024Y018984D01*
X030024Y018788D02*
X030140Y018788D01*
X030140Y018593D02*
X030046Y018593D01*
X030179Y018398D02*
X030244Y018398D01*
X030198Y018330D02*
X030198Y018330D01*
X030198Y018330D01*
X030189Y018202D02*
X031390Y018202D01*
X031322Y018007D02*
X030237Y018007D01*
X029542Y018202D02*
X028017Y018202D01*
X027981Y018398D02*
X029553Y018398D01*
X029339Y018593D02*
X029291Y018593D01*
X029495Y018007D02*
X028821Y018007D01*
X028929Y017812D02*
X029495Y017812D01*
X029495Y017616D02*
X029046Y017616D01*
X029241Y017421D02*
X029475Y017421D01*
X029475Y017225D02*
X029436Y017225D01*
X029475Y017188D02*
X029475Y016963D01*
X029487Y016918D01*
X029510Y016877D01*
X029544Y016844D01*
X029584Y016820D01*
X029630Y016808D01*
X029861Y016808D01*
X029861Y017188D01*
X029475Y017188D01*
X029475Y017030D02*
X029475Y017030D01*
X029552Y016835D02*
X029559Y016835D01*
X029861Y016835D02*
X029871Y016835D01*
X029861Y017030D02*
X029871Y017030D01*
X029983Y016639D02*
X031203Y016639D01*
X031259Y016444D02*
X030179Y016444D01*
X030374Y016249D02*
X031985Y016249D01*
X031951Y016444D02*
X031779Y016444D01*
X031836Y016639D02*
X031896Y016639D01*
X031841Y016693D02*
X031841Y016693D01*
X031841Y016693D01*
X031114Y016835D02*
X030908Y016835D01*
X030493Y016835D02*
X030493Y016835D01*
X030493Y017030D02*
X030493Y017030D01*
X030493Y017225D02*
X030493Y017225D01*
X030493Y017421D02*
X030257Y017421D01*
X030953Y018398D02*
X031244Y018398D01*
X031140Y018593D02*
X031057Y018593D01*
X031057Y018788D02*
X031140Y018788D01*
X031242Y018984D02*
X030954Y018984D01*
X031929Y019374D02*
X032267Y019374D01*
X032140Y019501D02*
X032408Y019233D01*
X032788Y019233D01*
X033057Y019501D01*
X033057Y019881D01*
X032788Y020150D01*
X032408Y020150D01*
X032140Y019881D01*
X032140Y019501D01*
X032140Y019570D02*
X032057Y019570D01*
X032057Y019765D02*
X032140Y019765D01*
X032219Y019960D02*
X031977Y019960D01*
X032977Y019960D02*
X040396Y019960D01*
X040396Y020061D02*
X040396Y019811D01*
X040860Y019811D01*
X040860Y020216D01*
X040551Y020216D01*
X040506Y020204D01*
X040465Y020181D01*
X040432Y020147D01*
X040408Y020107D01*
X040396Y020061D01*
X040440Y020156D02*
X022371Y020156D01*
X022387Y020351D02*
X041869Y020351D01*
X041869Y020439D02*
X041869Y020199D01*
X041881Y020154D01*
X041904Y020113D01*
X041937Y020080D01*
X041978Y020057D01*
X042023Y020044D01*
X042244Y020044D01*
X042244Y020439D01*
X042244Y020439D01*
X041869Y020439D01*
X042244Y020439D01*
X042244Y020439D01*
X042244Y020439D01*
X042244Y020834D01*
X042023Y020834D01*
X041978Y020822D01*
X041937Y020799D01*
X041904Y020765D01*
X041881Y020725D01*
X041869Y020679D01*
X041869Y020439D01*
X041869Y020546D02*
X022387Y020546D01*
X022387Y020742D02*
X022886Y020742D01*
X022817Y020937D02*
X022387Y020937D01*
X022387Y021132D02*
X023212Y021132D01*
X023252Y021132D02*
X023664Y021132D01*
X023647Y021101D02*
X023252Y021101D01*
X023252Y020706D01*
X023492Y020706D01*
X023537Y020718D01*
X023578Y020741D01*
X023611Y020775D01*
X023634Y020815D01*
X023647Y020861D01*
X023647Y021101D01*
X023647Y020937D02*
X023664Y020937D01*
X023741Y020742D02*
X023578Y020742D01*
X023252Y020742D02*
X023212Y020742D01*
X023212Y020937D02*
X023252Y020937D01*
X023647Y021328D02*
X023664Y021328D01*
X022817Y021328D02*
X022387Y021328D01*
X024377Y020742D02*
X024391Y020742D01*
X024987Y020742D02*
X025060Y020742D01*
X025656Y020742D02*
X041890Y020742D01*
X042244Y020742D02*
X042244Y020742D01*
X042244Y020546D02*
X042244Y020546D01*
X042244Y020351D02*
X042244Y020351D01*
X042244Y020156D02*
X042244Y020156D01*
X042392Y019960D02*
X041383Y019960D01*
X041339Y020156D02*
X041880Y020156D01*
X040919Y020156D02*
X040860Y020156D01*
X040860Y019960D02*
X040919Y019960D01*
X039277Y019765D02*
X034864Y019765D01*
X034989Y019570D02*
X039152Y019570D01*
X039152Y019374D02*
X034989Y019374D01*
X034874Y019179D02*
X039267Y019179D01*
X039324Y018788D02*
X034817Y018788D01*
X034989Y018593D02*
X039152Y018593D01*
X039152Y018398D02*
X034989Y018398D01*
X035094Y018202D02*
X039220Y018202D01*
X039331Y017812D02*
X035484Y017812D01*
X035577Y017616D02*
X039152Y017616D01*
X039152Y017421D02*
X035577Y017421D01*
X035577Y017225D02*
X039212Y017225D01*
X039339Y016835D02*
X035577Y016835D01*
X035577Y017030D02*
X040454Y017030D01*
X040259Y016835D02*
X039802Y016835D01*
X039929Y017225D02*
X040649Y017225D01*
X040058Y017812D02*
X039810Y017812D01*
X039725Y018007D02*
X035289Y018007D01*
X034152Y019374D02*
X032929Y019374D01*
X033057Y019570D02*
X034152Y019570D01*
X034277Y019765D02*
X033057Y019765D01*
X032242Y018984D02*
X031954Y018984D01*
X032057Y018788D02*
X032140Y018788D01*
X032140Y018593D02*
X032057Y018593D01*
X031953Y018398D02*
X032244Y018398D01*
X032262Y017812D02*
X032272Y017812D01*
X032262Y017616D02*
X032272Y017616D01*
X032838Y017616D02*
X032838Y017616D01*
X032838Y017540D02*
X032838Y017540D01*
X032838Y017540D01*
X032838Y017955D01*
X032980Y017955D01*
X033025Y017943D01*
X033066Y017919D01*
X033099Y017886D01*
X033123Y017845D01*
X033135Y017800D01*
X033135Y017540D01*
X032838Y017540D01*
X032838Y017812D02*
X032838Y017812D01*
X033132Y017812D02*
X033310Y017812D01*
X033310Y017616D02*
X033135Y017616D01*
X035577Y016639D02*
X039152Y016639D01*
X039152Y016444D02*
X035577Y016444D01*
X035577Y016249D02*
X039205Y016249D01*
X039851Y016053D02*
X035577Y016053D01*
X035577Y015858D02*
X039346Y015858D01*
X039152Y015663D02*
X035577Y015663D01*
X035577Y015467D02*
X039152Y015467D01*
X039197Y015272D02*
X035577Y015272D01*
X035577Y015077D02*
X039393Y015077D01*
X039354Y014881D02*
X035577Y014881D01*
X035577Y014686D02*
X039158Y014686D01*
X039152Y014491D02*
X035577Y014491D01*
X035567Y014295D02*
X039190Y014295D01*
X039385Y014100D02*
X035371Y014100D01*
X035176Y013905D02*
X039361Y013905D01*
X039166Y013709D02*
X034975Y013709D01*
X034989Y013514D02*
X039152Y013514D01*
X039182Y013318D02*
X034959Y013318D01*
X034763Y013123D02*
X039378Y013123D01*
X039763Y013123D02*
X040751Y013123D01*
X040751Y012928D02*
X034056Y012928D01*
X034076Y013123D02*
X034378Y013123D01*
X034182Y013318D02*
X033942Y013318D01*
X033703Y013371D02*
X033703Y013371D01*
X033703Y013371D01*
X033585Y013318D02*
X033462Y013318D01*
X033526Y013514D02*
X034152Y013514D01*
X033974Y013709D02*
X033569Y013709D01*
X033475Y013905D02*
X033795Y013905D01*
X033612Y014100D02*
X033113Y014100D01*
X032914Y014295D02*
X033603Y014295D01*
X033603Y014491D02*
X032914Y014491D01*
X032914Y014361D02*
X032539Y014361D01*
X032539Y014361D01*
X032914Y014361D01*
X032661Y013318D02*
X030928Y013318D01*
X029520Y013123D02*
X032857Y013123D01*
X033052Y012928D02*
X028843Y012928D01*
X028843Y012732D02*
X033210Y012732D01*
X033210Y012537D02*
X028843Y012537D01*
X028808Y012342D02*
X033150Y012342D01*
X033058Y012146D02*
X031993Y012146D01*
X031993Y012168D02*
X031981Y012213D01*
X031957Y012254D01*
X031924Y012287D01*
X031884Y012310D01*
X031838Y012323D01*
X031598Y012323D01*
X031598Y011928D01*
X031559Y011928D01*
X031559Y012323D01*
X031319Y012323D01*
X031273Y012310D01*
X031233Y012287D01*
X031199Y012254D01*
X031176Y012213D01*
X031164Y012168D01*
X031164Y011928D01*
X031559Y011928D01*
X031559Y011888D01*
X031598Y011888D01*
X031598Y011493D01*
X031838Y011493D01*
X031884Y011505D01*
X031924Y011529D01*
X031957Y011562D01*
X031981Y011603D01*
X031993Y011648D01*
X031993Y011888D01*
X031598Y011888D01*
X031598Y011928D01*
X031993Y011928D01*
X031993Y012168D01*
X031993Y011951D02*
X033074Y011951D01*
X033289Y011756D02*
X031993Y011756D01*
X031956Y011560D02*
X038124Y011560D01*
X038124Y011507D02*
X038413Y011218D01*
X038618Y011218D01*
X038822Y011218D01*
X039111Y011507D01*
X039111Y011711D01*
X038618Y011711D01*
X038618Y011711D01*
X039111Y011711D01*
X039111Y011915D01*
X038822Y012204D01*
X038618Y012204D01*
X038618Y011711D01*
X038618Y011218D01*
X038618Y011711D01*
X038618Y011711D01*
X038618Y011711D01*
X038618Y012204D01*
X038413Y012204D01*
X038124Y011915D01*
X038124Y011711D01*
X038124Y011507D01*
X038266Y011365D02*
X027796Y011365D01*
X027796Y011403D02*
X027735Y011463D01*
X027747Y011470D01*
X027780Y011503D01*
X027804Y011544D01*
X027816Y011589D01*
X027816Y011814D01*
X027430Y011814D01*
X027430Y011824D01*
X027816Y011824D01*
X027816Y012049D01*
X027804Y012095D01*
X027780Y012136D01*
X027747Y012169D01*
X027706Y012192D01*
X027661Y012204D01*
X027430Y012204D01*
X027430Y011824D01*
X027420Y011824D01*
X027420Y011814D01*
X027186Y011814D01*
X026800Y011814D01*
X026800Y011824D01*
X027420Y011824D01*
X027420Y012204D01*
X027189Y012204D01*
X027143Y012192D01*
X027110Y012173D01*
X027076Y012192D01*
X027031Y012204D01*
X026800Y012204D01*
X026800Y011824D01*
X026790Y011824D01*
X026790Y011814D01*
X026404Y011814D01*
X026404Y011589D01*
X026416Y011544D01*
X026440Y011503D01*
X026473Y011470D01*
X026484Y011463D01*
X026424Y011403D01*
X026424Y010858D01*
X026494Y010788D01*
X026478Y010750D01*
X026478Y010624D01*
X026526Y010508D01*
X026615Y010419D01*
X026732Y010371D01*
X026858Y010371D01*
X026974Y010419D01*
X027064Y010508D01*
X027108Y010615D01*
X027108Y010585D01*
X027156Y010469D01*
X027245Y010379D01*
X027362Y010331D01*
X027488Y010331D01*
X027604Y010379D01*
X027693Y010469D01*
X027742Y010585D01*
X027742Y010616D01*
X027744Y010620D01*
X027757Y010644D01*
X027742Y010694D01*
X027742Y010711D01*
X027724Y010754D01*
X027717Y010777D01*
X027717Y010779D01*
X028340Y010779D01*
X028367Y010974D02*
X027796Y010974D01*
X027796Y010858D02*
X027796Y011403D01*
X027808Y011560D02*
X029123Y011560D01*
X028831Y011756D02*
X028253Y011756D01*
X028093Y011756D02*
X027816Y011756D01*
X027816Y011951D02*
X027877Y011951D01*
X027861Y012146D02*
X027769Y012146D01*
X027921Y012275D02*
X027921Y012275D01*
X027953Y012342D02*
X027482Y012342D01*
X027315Y012342D02*
X027315Y012342D01*
X027315Y012333D02*
X027315Y012761D01*
X027315Y012761D01*
X027315Y012333D01*
X027148Y012342D02*
X026852Y012342D01*
X026790Y012204D02*
X026559Y012204D01*
X026513Y012192D01*
X026473Y012169D01*
X026440Y012136D01*
X026416Y012095D01*
X026404Y012049D01*
X026404Y011824D01*
X026790Y011824D01*
X026790Y012204D01*
X026790Y012146D02*
X026800Y012146D01*
X026790Y011951D02*
X026800Y011951D01*
X026404Y011951D02*
X026215Y011951D01*
X026089Y011756D02*
X026404Y011756D01*
X026412Y011560D02*
X026089Y011560D01*
X026089Y011365D02*
X026424Y011365D01*
X026424Y011170D02*
X026089Y011170D01*
X026065Y010974D02*
X026424Y010974D01*
X026398Y010779D02*
X026490Y010779D01*
X026495Y010584D02*
X026443Y010584D01*
X026395Y010388D02*
X026353Y010388D01*
X026216Y010193D02*
X026010Y010193D01*
X026010Y009997D02*
X026218Y009997D01*
X026188Y010101D02*
X026188Y010101D01*
X026188Y010101D01*
X026148Y009802D02*
X026072Y009802D01*
X026821Y009997D02*
X027744Y009997D01*
X027659Y009802D02*
X026890Y009802D01*
X026890Y009607D02*
X027706Y009607D01*
X027106Y009488D02*
X027106Y008876D01*
X027106Y008265D01*
X027248Y008265D01*
X027293Y008277D01*
X027334Y008301D01*
X027367Y008334D01*
X027369Y008338D01*
X027422Y008285D01*
X027790Y008285D01*
X027856Y008351D01*
X027922Y008285D01*
X028290Y008285D01*
X028356Y008351D01*
X028422Y008285D01*
X028790Y008285D01*
X028856Y008351D01*
X028922Y008285D01*
X029290Y008285D01*
X029356Y008351D01*
X029422Y008285D01*
X029640Y008285D01*
X029640Y008118D01*
X026325Y008118D01*
X026325Y008540D01*
X026514Y008540D01*
X026514Y008921D01*
X026524Y008921D01*
X026524Y008540D01*
X026755Y008540D01*
X026801Y008553D01*
X026809Y008558D01*
X026809Y008420D01*
X026822Y008374D01*
X026845Y008334D01*
X026878Y008301D01*
X026919Y008277D01*
X026964Y008265D01*
X027106Y008265D01*
X027106Y008876D01*
X027106Y008876D01*
X027106Y009488D01*
X027106Y009411D02*
X027106Y009411D01*
X027106Y009216D02*
X027106Y009216D01*
X027106Y009021D02*
X027106Y009021D01*
X027106Y008876D02*
X027106Y008876D01*
X027106Y008825D02*
X027106Y008825D01*
X027106Y008630D02*
X027106Y008630D01*
X027106Y008435D02*
X027106Y008435D01*
X026809Y008435D02*
X026325Y008435D01*
X026325Y008239D02*
X029640Y008239D01*
X026524Y008630D02*
X026514Y008630D01*
X026514Y008825D02*
X026524Y008825D01*
X025569Y008239D02*
X022360Y008239D01*
X022309Y008435D02*
X022518Y008435D01*
X022518Y008420D02*
X022530Y008374D01*
X022554Y008334D01*
X022587Y008301D01*
X022628Y008277D01*
X022673Y008265D01*
X022815Y008265D01*
X022815Y008876D01*
X022815Y008876D01*
X022518Y008876D01*
X022518Y008420D01*
X022518Y008630D02*
X022309Y008630D01*
X022309Y008825D02*
X022518Y008825D01*
X022518Y008876D02*
X022815Y008876D01*
X022815Y008876D01*
X022815Y008876D01*
X022815Y009488D01*
X022673Y009488D01*
X022628Y009476D01*
X022587Y009452D01*
X022554Y009419D01*
X022530Y009378D01*
X022518Y009333D01*
X022518Y008876D01*
X022518Y009021D02*
X022309Y009021D01*
X022249Y009216D02*
X022518Y009216D01*
X022549Y009411D02*
X022068Y009411D01*
X022084Y009525D02*
X022130Y009513D01*
X022355Y009513D01*
X022355Y009899D01*
X021975Y009899D01*
X021975Y009668D01*
X021987Y009622D01*
X022010Y009582D01*
X022044Y009549D01*
X022084Y009525D01*
X021996Y009607D02*
X021905Y009607D01*
X021975Y009802D02*
X021663Y009802D01*
X021468Y009997D02*
X021975Y009997D01*
X021991Y010193D02*
X020813Y010193D01*
X020813Y010388D02*
X022522Y010388D01*
X022522Y010584D02*
X021246Y010584D01*
X021264Y010779D02*
X022522Y010779D01*
X022583Y010974D02*
X021264Y010974D01*
X021222Y011170D02*
X022522Y011170D01*
X022522Y011365D02*
X021264Y011365D01*
X021264Y011560D02*
X022523Y011560D01*
X022689Y011756D02*
X021264Y011756D01*
X020784Y011951D02*
X022501Y011951D01*
X022501Y012146D02*
X019437Y012146D01*
X019242Y012342D02*
X021556Y012342D01*
X021517Y012537D02*
X019046Y012537D01*
X018536Y012732D02*
X020613Y012732D01*
X020613Y012928D02*
X018340Y012928D01*
X018145Y013123D02*
X020613Y013123D01*
X020613Y012951D02*
X021008Y012951D01*
X021008Y012576D01*
X021008Y012951D01*
X021008Y012951D01*
X020613Y012951D01*
X021008Y012951D02*
X021008Y012951D01*
X021008Y012928D02*
X021008Y012928D01*
X021008Y012732D02*
X021008Y012732D01*
X021403Y012732D02*
X021463Y012732D01*
X021463Y012928D02*
X021403Y012928D01*
X021403Y013123D02*
X021463Y013123D01*
X021503Y013318D02*
X021343Y013318D01*
X021008Y013620D02*
X021824Y013620D01*
X021834Y013630D01*
X022205Y013709D02*
X022566Y013709D01*
X022501Y013514D02*
X022205Y013514D01*
X022166Y013318D02*
X022501Y013318D01*
X022501Y013123D02*
X022205Y013123D01*
X022205Y012928D02*
X022501Y012928D01*
X022501Y012732D02*
X022205Y012732D01*
X022151Y012537D02*
X022501Y012537D01*
X022501Y012342D02*
X022112Y012342D01*
X022155Y012518D02*
X022155Y012518D01*
X022155Y012518D01*
X021893Y012511D02*
X021834Y012498D01*
X021776Y012511D01*
X021834Y012774D01*
X021893Y012511D01*
X021834Y012498D02*
X021834Y012941D01*
X023097Y012953D02*
X023097Y012995D01*
X023166Y013064D01*
X023532Y013064D01*
X023801Y013332D01*
X023801Y013699D01*
X023858Y013756D01*
X023928Y013756D01*
X023884Y013712D01*
X023884Y013334D01*
X023799Y013249D01*
X023682Y013132D01*
X023682Y012859D01*
X023540Y013000D01*
X023344Y013000D01*
X023344Y012524D01*
X023341Y012524D01*
X023341Y013000D01*
X023144Y013000D01*
X023097Y012953D01*
X023341Y012928D02*
X023344Y012928D01*
X023341Y012732D02*
X023344Y012732D01*
X023341Y012537D02*
X023344Y012537D01*
X023344Y012520D02*
X023344Y012044D01*
X023540Y012044D01*
X023682Y012185D01*
X023682Y012180D01*
X024209Y011653D01*
X024190Y011653D01*
X024097Y011560D01*
X024097Y011035D01*
X024169Y010963D01*
X024097Y010891D01*
X024097Y010557D01*
X024060Y010594D01*
X024060Y010891D01*
X023988Y010963D01*
X024060Y011035D01*
X024060Y011560D01*
X023967Y011653D01*
X023622Y011653D01*
X023250Y012044D01*
X023341Y012044D01*
X023341Y012520D01*
X023344Y012520D01*
X023341Y012342D02*
X023344Y012342D01*
X023341Y012146D02*
X023344Y012146D01*
X023338Y011951D02*
X023911Y011951D01*
X024106Y011756D02*
X023524Y011756D01*
X024059Y011560D02*
X024097Y011560D01*
X024097Y011365D02*
X024060Y011365D01*
X024060Y011170D02*
X024097Y011170D01*
X024158Y010974D02*
X023999Y010974D01*
X024060Y010779D02*
X024097Y010779D01*
X024097Y010584D02*
X024071Y010584D01*
X022365Y010193D02*
X022355Y010193D01*
X022355Y009997D02*
X022365Y009997D01*
X022355Y009802D02*
X022365Y009802D01*
X022355Y009607D02*
X022365Y009607D01*
X022815Y009411D02*
X022815Y009411D01*
X022815Y009216D02*
X022815Y009216D01*
X022815Y009021D02*
X022815Y009021D01*
X022815Y008825D02*
X022815Y008825D01*
X022815Y008630D02*
X022815Y008630D01*
X022815Y008435D02*
X022815Y008435D01*
X026644Y010388D02*
X026689Y010388D01*
X026901Y010388D02*
X027237Y010388D01*
X027109Y010584D02*
X027095Y010584D01*
X026823Y010193D02*
X028164Y010193D01*
X028164Y010388D02*
X027613Y010388D01*
X027741Y010584D02*
X028164Y010584D01*
X027757Y010644D02*
X027757Y010644D01*
X027757Y010644D01*
X027717Y010779D02*
X027796Y010858D01*
X027796Y011170D02*
X028443Y011170D01*
X028926Y011170D02*
X028955Y011170D01*
X029438Y011170D02*
X040439Y011170D01*
X040436Y010974D02*
X038536Y010974D01*
X038595Y010779D02*
X040436Y010779D01*
X040306Y010584D02*
X038595Y010584D01*
X038595Y010388D02*
X040259Y010388D01*
X040259Y010193D02*
X038595Y010193D01*
X038595Y009997D02*
X040259Y009997D01*
X040312Y009802D02*
X038595Y009802D01*
X038595Y009607D02*
X040259Y009607D01*
X040259Y009411D02*
X038595Y009411D01*
X038595Y009216D02*
X040259Y009216D01*
X040344Y009021D02*
X038595Y009021D01*
X038595Y008825D02*
X040415Y008825D01*
X040530Y008630D02*
X038595Y008630D01*
X038595Y008435D02*
X042937Y008435D01*
X042937Y008630D02*
X041721Y008630D01*
X041836Y008825D02*
X042057Y008825D01*
X042030Y009021D02*
X041907Y009021D01*
X041993Y009216D02*
X042003Y009216D01*
X041131Y009021D02*
X041120Y009021D01*
X041049Y008825D02*
X041203Y008825D01*
X041318Y008630D02*
X040934Y008630D01*
X041933Y007763D02*
X041714Y007544D01*
X041569Y007544D01*
X041563Y007539D01*
X041202Y007539D01*
X041109Y007446D01*
X041109Y006901D01*
X041181Y006829D01*
X041109Y006757D01*
X041109Y006212D01*
X041202Y006120D01*
X041740Y006120D01*
X041933Y005926D01*
X042279Y005926D01*
X042524Y006172D01*
X042524Y006518D01*
X042279Y006763D01*
X041933Y006763D01*
X041851Y006682D01*
X041851Y006757D01*
X041779Y006829D01*
X041851Y006901D01*
X041851Y007008D01*
X041933Y006926D01*
X042279Y006926D01*
X042524Y007172D01*
X042524Y007518D01*
X042279Y007763D01*
X041933Y007763D01*
X041823Y007653D02*
X038595Y007653D01*
X038595Y007458D02*
X041121Y007458D01*
X041109Y007263D02*
X038595Y007263D01*
X038595Y007067D02*
X041109Y007067D01*
X041138Y006872D02*
X038595Y006872D01*
X039145Y006677D02*
X041109Y006677D01*
X041109Y006481D02*
X039331Y006481D01*
X039331Y006286D02*
X041109Y006286D01*
X041769Y006090D02*
X039324Y006090D01*
X039129Y005895D02*
X042937Y005895D01*
X042937Y005700D02*
X042343Y005700D01*
X042279Y005763D02*
X041933Y005763D01*
X041729Y005560D01*
X041719Y005570D01*
X041162Y005570D01*
X041070Y005477D01*
X041070Y004933D01*
X041142Y004861D01*
X041070Y004788D01*
X041070Y004244D01*
X041162Y004151D01*
X041593Y004151D01*
X041594Y004149D01*
X041710Y004149D01*
X041933Y003926D01*
X042279Y003926D01*
X042524Y004172D01*
X042524Y004518D01*
X042279Y004763D01*
X041933Y004763D01*
X041812Y004642D01*
X041812Y004788D01*
X041739Y004861D01*
X041812Y004933D01*
X041812Y005047D01*
X041933Y004926D01*
X042279Y004926D01*
X042524Y005172D01*
X042524Y005518D01*
X042279Y005763D01*
X042524Y005504D02*
X042937Y005504D01*
X042937Y005309D02*
X042524Y005309D01*
X042467Y005114D02*
X042937Y005114D01*
X042937Y004918D02*
X041797Y004918D01*
X041812Y004723D02*
X041892Y004723D01*
X042320Y004723D02*
X042937Y004723D01*
X042937Y004528D02*
X042515Y004528D01*
X042524Y004332D02*
X042937Y004332D01*
X042937Y004137D02*
X042490Y004137D01*
X042294Y003942D02*
X042937Y003942D01*
X042937Y003746D02*
X039867Y003746D01*
X039867Y003942D02*
X041918Y003942D01*
X041722Y004137D02*
X039862Y004137D01*
X039868Y004332D02*
X041070Y004332D01*
X041070Y004528D02*
X039887Y004528D01*
X039887Y004723D02*
X041070Y004723D01*
X041084Y004918D02*
X039867Y004918D01*
X039507Y004918D02*
X039497Y004918D01*
X039497Y004723D02*
X039507Y004723D01*
X038595Y005114D02*
X041070Y005114D01*
X041070Y005309D02*
X038595Y005309D01*
X038595Y005504D02*
X041097Y005504D01*
X041869Y005700D02*
X038595Y005700D01*
X041822Y006872D02*
X042937Y006872D01*
X042937Y007067D02*
X042420Y007067D01*
X042524Y007263D02*
X042937Y007263D01*
X042937Y007458D02*
X042524Y007458D01*
X042389Y007653D02*
X042937Y007653D01*
X042937Y007849D02*
X038595Y007849D01*
X038595Y008044D02*
X042937Y008044D01*
X042937Y008239D02*
X038595Y008239D01*
X042366Y006677D02*
X042937Y006677D01*
X042937Y006481D02*
X042524Y006481D01*
X042524Y006286D02*
X042937Y006286D01*
X042937Y006090D02*
X042443Y006090D01*
X042937Y003551D02*
X039832Y003551D01*
X040284Y003356D02*
X042937Y003356D01*
X042937Y003160D02*
X040380Y003160D01*
X040338Y002965D02*
X042937Y002965D01*
X042937Y008825D02*
X042635Y008825D01*
X042662Y009021D02*
X042937Y009021D01*
X042937Y009216D02*
X042689Y009216D01*
X042717Y009411D02*
X042937Y009411D01*
X042937Y009607D02*
X042717Y009607D01*
X042703Y009802D02*
X042937Y009802D01*
X040416Y011365D02*
X039941Y011365D01*
X039814Y011238D02*
X040091Y011515D01*
X040091Y011907D01*
X039814Y012184D01*
X039422Y012184D01*
X039144Y011907D01*
X039144Y011515D01*
X039422Y011238D01*
X039814Y011238D01*
X040091Y011560D02*
X040416Y011560D01*
X040416Y011573D02*
X040811Y011573D01*
X040811Y011573D01*
X040416Y011573D01*
X040416Y011756D02*
X040091Y011756D01*
X040047Y011951D02*
X040162Y011951D01*
X040061Y012146D02*
X039852Y012146D01*
X040100Y012342D02*
X035109Y012342D01*
X035115Y012146D02*
X038355Y012146D01*
X038618Y012146D02*
X038618Y012146D01*
X038618Y011951D02*
X038618Y011951D01*
X038618Y011756D02*
X038618Y011756D01*
X038618Y011711D02*
X038618Y011711D01*
X038124Y011711D01*
X038618Y011711D01*
X038618Y011560D02*
X038618Y011560D01*
X038618Y011365D02*
X038618Y011365D01*
X038970Y011365D02*
X039294Y011365D01*
X039144Y011560D02*
X039111Y011560D01*
X039111Y011756D02*
X039144Y011756D01*
X039188Y011951D02*
X039076Y011951D01*
X038880Y012146D02*
X039384Y012146D01*
X038160Y011951D02*
X035115Y011951D01*
X035082Y011756D02*
X038124Y011756D01*
X040751Y012732D02*
X033716Y012732D01*
X033693Y012732D02*
X033609Y012732D01*
X033609Y012537D02*
X040822Y012537D01*
X040847Y013318D02*
X039959Y013318D01*
X039989Y013514D02*
X040809Y013514D01*
X040904Y013709D02*
X040040Y013709D01*
X040223Y013905D02*
X040709Y013905D01*
X040813Y014100D02*
X040223Y014100D01*
X040223Y014295D02*
X040813Y014295D01*
X040834Y014491D02*
X040223Y014491D01*
X040367Y014686D02*
X040833Y014686D01*
X040833Y014881D02*
X040562Y014881D01*
X040656Y015077D02*
X040833Y015077D01*
X040888Y015272D02*
X040656Y015272D01*
X040656Y015467D02*
X040917Y015467D01*
X040832Y015663D02*
X041616Y015663D01*
X041694Y015467D02*
X041492Y015467D01*
X041536Y015338D02*
X041536Y015338D01*
X041536Y015338D01*
X041521Y015272D02*
X041694Y015272D01*
X041694Y015077D02*
X041575Y015077D01*
X041575Y014881D02*
X041723Y014881D01*
X041694Y014686D02*
X041575Y014686D01*
X041575Y014491D02*
X041694Y014491D01*
X041683Y014295D02*
X041595Y014295D01*
X041595Y014100D02*
X041674Y014100D01*
X042252Y014607D02*
X043037Y014607D01*
X043212Y014782D01*
X043165Y014819D01*
X043000Y014607D01*
X043239Y014728D01*
X043212Y014782D01*
X043096Y015077D02*
X042810Y015077D01*
X042810Y015272D02*
X044630Y015272D01*
X044630Y015077D02*
X043329Y015077D01*
X043514Y014881D02*
X044630Y014881D01*
X044630Y014686D02*
X043515Y014686D01*
X043338Y014491D02*
X044630Y014491D01*
X044588Y014295D02*
X042821Y014295D01*
X042830Y014100D02*
X044630Y014100D01*
X044881Y014215D02*
X044905Y014270D01*
X044950Y014309D01*
X045127Y014107D01*
X044881Y014215D01*
X044905Y014270D02*
X045069Y014107D01*
X046212Y014107D01*
X046212Y014607D02*
X045238Y014607D01*
X045141Y014703D01*
X045133Y014644D01*
X045400Y014607D01*
X045174Y014753D01*
X045141Y014703D01*
X045654Y015467D02*
X042810Y015467D01*
X042810Y015663D02*
X045654Y015663D01*
X045707Y015858D02*
X042757Y015858D01*
X042810Y016053D02*
X045654Y016053D01*
X045654Y016249D02*
X042810Y016249D01*
X042810Y016444D02*
X045654Y016444D01*
X045654Y016639D02*
X042810Y016639D01*
X042778Y016835D02*
X045686Y016835D01*
X045654Y017030D02*
X042810Y017030D01*
X042810Y017225D02*
X045654Y017225D01*
X045654Y017421D02*
X042810Y017421D01*
X042810Y017616D02*
X045654Y017616D01*
X045663Y017812D02*
X042801Y017812D01*
X041694Y018202D02*
X041040Y018202D01*
X041197Y018398D02*
X041707Y018398D01*
X041694Y018593D02*
X041283Y018593D01*
X041363Y018788D02*
X041694Y018788D01*
X040739Y018202D02*
X040231Y018202D01*
X039989Y018398D02*
X040582Y018398D01*
X040496Y018593D02*
X039989Y018593D01*
X039817Y018788D02*
X040416Y018788D01*
X043142Y018984D02*
X043218Y018984D01*
X043829Y018984D02*
X044202Y018984D01*
X044000Y020156D02*
X043908Y020156D01*
X043954Y020351D02*
X045286Y020351D01*
X045286Y020380D02*
X045681Y020380D01*
X045681Y020380D01*
X045681Y020380D01*
X045681Y020756D01*
X045441Y020756D01*
X045395Y020743D01*
X045355Y020720D01*
X045321Y020687D01*
X045298Y020646D01*
X045286Y020601D01*
X045286Y020380D01*
X045286Y020546D02*
X044002Y020546D01*
X043921Y020742D02*
X045393Y020742D01*
X045681Y020742D02*
X045681Y020742D01*
X045681Y020546D02*
X045681Y020546D01*
X045287Y020156D02*
X044892Y020156D01*
X045968Y020937D02*
X026133Y020937D01*
X026167Y021132D02*
X045968Y021132D01*
X045968Y021328D02*
X026051Y021328D01*
X025855Y020749D02*
X025855Y020749D01*
X025855Y020749D01*
X027414Y019728D02*
X027454Y019751D01*
X027500Y019763D01*
X027750Y019763D01*
X027750Y019300D01*
X027809Y019300D01*
X027809Y019763D01*
X028059Y019763D01*
X028104Y019751D01*
X028145Y019728D01*
X028178Y019695D01*
X028201Y019654D01*
X028214Y019609D01*
X028214Y019300D01*
X027809Y019300D01*
X027809Y019241D01*
X028214Y019241D01*
X028214Y018932D01*
X028201Y018886D01*
X028178Y018846D01*
X028145Y018812D01*
X028104Y018789D01*
X028059Y018777D01*
X027809Y018777D01*
X027809Y019241D01*
X027750Y019241D01*
X027750Y018777D01*
X027500Y018777D01*
X027454Y018789D01*
X027414Y018812D01*
X027381Y018846D01*
X027374Y018857D01*
X027313Y018797D01*
X026670Y018797D01*
X026577Y018889D01*
X026577Y018967D01*
X026576Y018967D01*
X026543Y018953D01*
X026515Y018953D01*
X026499Y018950D01*
X026499Y018950D01*
X026499Y018950D01*
X026479Y018953D01*
X026417Y018953D01*
X026301Y019001D01*
X026211Y019091D01*
X026163Y019207D01*
X026163Y019333D01*
X026211Y019450D01*
X026301Y019539D01*
X026417Y019587D01*
X026479Y019587D01*
X026499Y019590D01*
X026499Y019590D01*
X026499Y019590D01*
X026515Y019587D01*
X026543Y019587D01*
X026576Y019573D01*
X026577Y019573D01*
X026577Y019651D01*
X026670Y019743D01*
X027313Y019743D01*
X027374Y019683D01*
X027381Y019695D01*
X027414Y019728D01*
X027750Y019570D02*
X027809Y019570D01*
X027809Y019374D02*
X027750Y019374D01*
X027750Y019179D02*
X027809Y019179D01*
X027809Y018984D02*
X027750Y018984D01*
X027750Y018788D02*
X027809Y018788D01*
X028102Y018788D02*
X028276Y018788D01*
X028252Y018984D02*
X028214Y018984D01*
X028214Y019179D02*
X028382Y019179D01*
X028214Y019374D02*
X028619Y019374D01*
X028605Y019570D02*
X028214Y019570D01*
X028605Y019765D02*
X014039Y019765D01*
X014039Y019570D02*
X026375Y019570D01*
X026493Y019329D02*
X026480Y019270D01*
X026493Y019212D01*
X026756Y019270D01*
X026493Y019329D01*
X026480Y019270D02*
X026992Y019270D01*
X026344Y018984D02*
X026127Y018984D01*
X026127Y019179D02*
X026175Y019179D01*
X026180Y019374D02*
X026064Y019374D01*
X025459Y019374D02*
X025375Y019374D01*
X024770Y019374D02*
X014039Y019374D01*
X014039Y019179D02*
X024307Y019179D01*
X024273Y018984D02*
X023700Y018984D01*
X023512Y018984D02*
X017718Y018984D01*
X017544Y018593D02*
X017537Y018593D01*
X017551Y018398D02*
X017574Y018398D01*
X017574Y018202D02*
X017551Y018202D01*
X017703Y018007D02*
X017741Y018007D01*
X017742Y017812D02*
X017807Y017812D01*
X018318Y017812D02*
X018807Y017812D01*
X018860Y017865D02*
X018574Y017579D01*
X018574Y017174D01*
X018860Y016888D01*
X019265Y016888D01*
X019551Y017174D01*
X019551Y017579D01*
X019265Y017865D01*
X018860Y017865D01*
X018860Y017888D02*
X019265Y017888D01*
X019551Y018174D01*
X019551Y018579D01*
X019265Y018865D01*
X018860Y018865D01*
X018574Y018579D01*
X018574Y018174D01*
X018860Y017888D01*
X018741Y018007D02*
X018384Y018007D01*
X018551Y018202D02*
X018574Y018202D01*
X018574Y018398D02*
X018551Y018398D01*
X018537Y018593D02*
X018588Y018593D01*
X018784Y018788D02*
X018342Y018788D01*
X019342Y018788D02*
X023308Y018788D01*
X023274Y018684D02*
X023274Y018684D01*
X023274Y018684D01*
X023299Y018593D02*
X019537Y018593D01*
X019551Y018398D02*
X023235Y018398D01*
X023235Y018202D02*
X019551Y018202D01*
X019384Y018007D02*
X023235Y018007D01*
X023266Y017812D02*
X019318Y017812D01*
X019514Y017616D02*
X023235Y017616D01*
X023235Y017421D02*
X019551Y017421D01*
X019551Y017225D02*
X023245Y017225D01*
X022438Y016680D02*
X022170Y016949D01*
X021790Y016949D01*
X021522Y016680D01*
X021522Y016301D01*
X021790Y016032D01*
X022170Y016032D01*
X022438Y016301D01*
X022438Y016680D01*
X022438Y016639D02*
X024841Y016639D01*
X024841Y016444D02*
X022438Y016444D01*
X022386Y016249D02*
X026101Y016249D01*
X026101Y016053D02*
X025273Y016053D01*
X025300Y015858D02*
X026101Y015858D01*
X026323Y015733D02*
X026807Y015733D01*
X026821Y015725D01*
X026866Y015713D01*
X026892Y015713D01*
X026892Y015682D01*
X026872Y015632D01*
X026872Y015506D01*
X026920Y015390D01*
X027009Y015301D01*
X027126Y015252D01*
X027252Y015252D01*
X027368Y015301D01*
X027457Y015390D01*
X027461Y015400D01*
X027462Y015400D01*
X027462Y015309D01*
X027511Y015193D01*
X027600Y015104D01*
X027716Y015056D01*
X027842Y015056D01*
X027959Y015104D01*
X028010Y015155D01*
X028042Y015170D01*
X028044Y015175D01*
X028074Y015257D01*
X028096Y015309D01*
X028096Y015316D01*
X028118Y015374D01*
X028183Y015439D01*
X028183Y015550D01*
X028202Y015603D01*
X028191Y015628D01*
X028195Y015656D01*
X028183Y015672D01*
X028183Y015733D01*
X028750Y015733D01*
X028843Y015826D01*
X028843Y015956D01*
X028958Y015841D01*
X028977Y015822D01*
X028847Y015822D01*
X028754Y015729D01*
X028754Y014808D01*
X028232Y014808D01*
X028169Y014745D01*
X027509Y014745D01*
X027374Y014809D01*
X027368Y014814D01*
X027317Y014836D01*
X027310Y014839D01*
X027249Y014867D01*
X027249Y014867D01*
X027249Y014867D01*
X027235Y014863D01*
X027126Y014863D01*
X027009Y014814D01*
X026920Y014725D01*
X026872Y014609D01*
X026872Y014483D01*
X026920Y014366D01*
X027009Y014277D01*
X027126Y014229D01*
X027235Y014229D01*
X027249Y014224D01*
X027317Y014256D01*
X027368Y014277D01*
X027374Y014283D01*
X027398Y014294D01*
X027398Y014294D01*
X027509Y014346D01*
X027571Y014346D01*
X027560Y014342D01*
X027483Y014264D01*
X027470Y014258D01*
X027467Y014251D01*
X027444Y014188D01*
X027423Y014136D01*
X027423Y014128D01*
X027372Y013988D01*
X027304Y013920D01*
X027226Y013841D01*
X026800Y013416D01*
X026800Y013190D01*
X026685Y013190D01*
X026685Y012761D01*
X026685Y012333D01*
X026685Y012761D01*
X026685Y012761D01*
X026685Y012761D01*
X026685Y013190D01*
X026551Y013190D01*
X026506Y013177D01*
X026492Y013170D01*
X026194Y013170D01*
X026101Y013077D01*
X026101Y012446D01*
X026123Y012424D01*
X025853Y012153D01*
X025853Y012857D01*
X025695Y013014D01*
X025695Y013080D01*
X026098Y013080D01*
X026191Y013173D01*
X026191Y015135D01*
X026261Y015064D01*
X026378Y015016D01*
X026504Y015016D01*
X026620Y015064D01*
X026709Y015154D01*
X026757Y015270D01*
X026757Y015396D01*
X026709Y015513D01*
X026632Y015590D01*
X026626Y015603D01*
X026620Y015605D01*
X026555Y015629D01*
X026504Y015650D01*
X026496Y015650D01*
X026355Y015700D01*
X026323Y015733D01*
X026460Y015663D02*
X026884Y015663D01*
X026888Y015467D02*
X026728Y015467D01*
X026757Y015272D02*
X027079Y015272D01*
X027299Y015272D02*
X027478Y015272D01*
X027665Y015077D02*
X026632Y015077D01*
X026249Y015077D02*
X026191Y015077D01*
X026191Y014881D02*
X028754Y014881D01*
X028754Y015077D02*
X027893Y015077D01*
X028081Y015272D02*
X028754Y015272D01*
X028754Y015467D02*
X028183Y015467D01*
X028190Y015663D02*
X028754Y015663D01*
X028843Y015858D02*
X028941Y015858D01*
X028170Y016636D02*
X028170Y016636D01*
X028174Y016639D02*
X026755Y016639D01*
X026640Y016835D02*
X026404Y016835D01*
X026404Y017030D02*
X026640Y017030D01*
X026640Y017225D02*
X026404Y017225D01*
X026404Y017421D02*
X026692Y017421D01*
X026660Y017616D02*
X026404Y017616D01*
X026404Y017812D02*
X026660Y017812D01*
X026670Y018007D02*
X026362Y018007D01*
X026225Y018202D02*
X026714Y018202D01*
X026751Y018398D02*
X026225Y018398D01*
X026225Y018593D02*
X028650Y018593D01*
X028391Y018007D02*
X028062Y018007D01*
X028071Y017812D02*
X028289Y017812D01*
X028079Y017616D02*
X028071Y017616D01*
X028091Y017030D02*
X028407Y017030D01*
X028444Y016835D02*
X028091Y016835D01*
X027705Y016835D02*
X027696Y016835D01*
X027696Y017030D02*
X027705Y017030D01*
X027696Y017031D02*
X027036Y017031D01*
X027036Y017041D01*
X027422Y017041D01*
X027696Y017041D01*
X027696Y017031D01*
X027630Y016444D02*
X027630Y016444D01*
X027630Y016249D02*
X027630Y016249D01*
X027630Y016053D02*
X027630Y016053D01*
X027630Y015858D02*
X027630Y015858D01*
X027639Y015663D02*
X027553Y015663D01*
X027000Y016249D02*
X027000Y016249D01*
X027000Y016444D02*
X027000Y016444D01*
X027026Y016835D02*
X027036Y016835D01*
X027026Y017030D02*
X027036Y017030D01*
X027348Y018202D02*
X027384Y018202D01*
X027420Y018398D02*
X027312Y018398D01*
X027457Y018788D02*
X026127Y018788D01*
X024586Y019366D02*
X024586Y019366D01*
X024388Y018788D02*
X023904Y018788D01*
X024584Y017030D02*
X019407Y017030D01*
X018718Y017030D02*
X018407Y017030D01*
X018551Y017225D02*
X018574Y017225D01*
X018574Y017421D02*
X018551Y017421D01*
X018514Y017616D02*
X018612Y017616D01*
X017791Y016835D02*
X020676Y016835D01*
X020790Y016949D02*
X020522Y016680D01*
X020522Y016301D01*
X020790Y016032D01*
X021170Y016032D01*
X021438Y016301D01*
X021438Y016680D01*
X021170Y016949D01*
X020790Y016949D01*
X020522Y016639D02*
X017596Y016639D01*
X017400Y016444D02*
X020522Y016444D01*
X020574Y016249D02*
X017205Y016249D01*
X017073Y016053D02*
X020769Y016053D01*
X020699Y015858D02*
X017073Y015858D01*
X017073Y015663D02*
X017919Y015663D01*
X018020Y015764D02*
X017731Y015474D01*
X017731Y015270D01*
X017731Y015066D01*
X018020Y014777D01*
X018224Y014777D01*
X018224Y015270D01*
X017731Y015270D01*
X018224Y015270D01*
X018224Y015270D01*
X018224Y015270D01*
X018224Y014777D01*
X018428Y014777D01*
X018718Y015066D01*
X018718Y015270D01*
X018718Y015474D01*
X018428Y015764D01*
X018224Y015764D01*
X018020Y015764D01*
X018224Y015764D02*
X018224Y015270D01*
X018224Y015270D01*
X018224Y015270D01*
X018718Y015270D01*
X018224Y015270D01*
X018224Y015764D01*
X018224Y015663D02*
X018224Y015663D01*
X018224Y015467D02*
X018224Y015467D01*
X018224Y015272D02*
X018224Y015272D01*
X018224Y015077D02*
X018224Y015077D01*
X018224Y014881D02*
X018224Y014881D01*
X017915Y014881D02*
X017686Y014881D01*
X017731Y015077D02*
X017491Y015077D01*
X017296Y015272D02*
X017731Y015272D01*
X017731Y015467D02*
X017100Y015467D01*
X018529Y015663D02*
X018947Y015663D01*
X019028Y015744D02*
X018751Y015466D01*
X018751Y015074D01*
X019028Y014797D01*
X019420Y014797D01*
X019698Y015074D01*
X019698Y015466D01*
X019420Y015744D01*
X019028Y015744D01*
X018752Y015467D02*
X018718Y015467D01*
X018718Y015272D02*
X018751Y015272D01*
X018751Y015077D02*
X018718Y015077D01*
X018533Y014881D02*
X018943Y014881D01*
X019505Y014881D02*
X020722Y014881D01*
X020746Y015077D02*
X019698Y015077D01*
X019698Y015272D02*
X020550Y015272D01*
X020522Y015467D02*
X019696Y015467D01*
X019501Y015663D02*
X020522Y015663D01*
X021261Y015858D02*
X021699Y015858D01*
X021769Y016053D02*
X021191Y016053D01*
X021386Y016249D02*
X021574Y016249D01*
X021522Y016444D02*
X021438Y016444D01*
X021438Y016639D02*
X021522Y016639D01*
X021676Y016835D02*
X021284Y016835D01*
X022284Y016835D02*
X024779Y016835D01*
X024694Y016053D02*
X022191Y016053D01*
X022261Y015858D02*
X024624Y015858D01*
X024588Y015663D02*
X022438Y015663D01*
X022438Y015467D02*
X024588Y015467D01*
X025299Y015663D02*
X025374Y015663D01*
X026191Y014686D02*
X026904Y014686D01*
X026872Y014491D02*
X026191Y014491D01*
X026191Y014295D02*
X026991Y014295D01*
X027400Y014295D02*
X027514Y014295D01*
X027413Y014100D02*
X026191Y014100D01*
X026191Y013905D02*
X027289Y013905D01*
X027094Y013709D02*
X026191Y013709D01*
X026191Y013514D02*
X026898Y013514D01*
X026800Y013318D02*
X026191Y013318D01*
X026148Y013123D02*
X026140Y013123D01*
X026101Y012928D02*
X025781Y012928D01*
X025853Y012732D02*
X026101Y012732D01*
X026101Y012537D02*
X025853Y012537D01*
X025853Y012342D02*
X026041Y012342D01*
X026410Y012146D02*
X026450Y012146D01*
X026685Y012342D02*
X026685Y012342D01*
X026685Y012537D02*
X026685Y012537D01*
X026685Y012732D02*
X026685Y012732D01*
X026685Y012928D02*
X026685Y012928D01*
X026685Y013123D02*
X026685Y013123D01*
X027199Y013190D02*
X027199Y013250D01*
X027507Y013559D01*
X027586Y013638D01*
X027654Y013706D01*
X027777Y013750D01*
X027777Y013681D01*
X027716Y013681D01*
X027600Y013633D01*
X027530Y013563D01*
X027503Y013549D01*
X027503Y013548D01*
X027483Y013480D01*
X027480Y013470D01*
X027462Y013428D01*
X027462Y013410D01*
X027452Y013374D01*
X027391Y013314D01*
X027391Y013190D01*
X027315Y013190D01*
X027315Y012761D01*
X027315Y012761D01*
X027315Y013190D01*
X027199Y013190D01*
X027315Y013123D02*
X027315Y013123D01*
X027315Y012928D02*
X027315Y012928D01*
X027315Y012732D02*
X027315Y012732D01*
X027315Y012537D02*
X027315Y012537D01*
X027420Y012146D02*
X027430Y012146D01*
X027420Y011951D02*
X027430Y011951D01*
X028469Y011951D02*
X028635Y011951D01*
X029004Y012146D02*
X029058Y012146D01*
X029703Y011560D02*
X029793Y011560D01*
X029502Y011082D02*
X029502Y011082D01*
X029514Y010974D02*
X029699Y010974D01*
X029640Y010779D02*
X029628Y010779D01*
X030372Y011560D02*
X030403Y011560D01*
X031101Y011560D02*
X031201Y011560D01*
X031199Y011562D02*
X031233Y011529D01*
X031273Y011505D01*
X031319Y011493D01*
X031559Y011493D01*
X031559Y011888D01*
X031164Y011888D01*
X031164Y011648D01*
X031176Y011603D01*
X031199Y011562D01*
X031164Y011756D02*
X031146Y011756D01*
X031146Y011951D02*
X031164Y011951D01*
X031146Y012146D02*
X031164Y012146D01*
X031559Y012146D02*
X031598Y012146D01*
X031598Y011951D02*
X031559Y011951D01*
X031559Y011756D02*
X031598Y011756D01*
X031598Y011560D02*
X031559Y011560D01*
X033456Y011756D02*
X033755Y011756D01*
X034386Y011756D02*
X034398Y011756D01*
X034740Y011756D02*
X034740Y011756D01*
X034740Y011951D02*
X034740Y011951D01*
X034740Y012146D02*
X034740Y012146D01*
X034740Y012342D02*
X034740Y012342D01*
X033715Y012342D02*
X033609Y012342D01*
X028804Y013123D02*
X028797Y013123D01*
X028754Y013318D02*
X028294Y013318D01*
X028348Y013514D02*
X028754Y013514D01*
X028754Y013709D02*
X028411Y013709D01*
X028416Y013659D02*
X028416Y013659D01*
X028416Y013659D01*
X028357Y013905D02*
X028754Y013905D01*
X028754Y014100D02*
X028057Y014100D01*
X027966Y014295D02*
X028754Y014295D01*
X027777Y013709D02*
X027664Y013709D01*
X027503Y013548D02*
X027503Y013548D01*
X027493Y013514D02*
X027462Y013514D01*
X027396Y013318D02*
X027267Y013318D01*
X023884Y013514D02*
X023801Y013514D01*
X023811Y013709D02*
X023884Y013709D01*
X023868Y013318D02*
X023787Y013318D01*
X023682Y013123D02*
X023592Y013123D01*
X023613Y012928D02*
X023682Y012928D01*
X023643Y012146D02*
X023715Y012146D01*
X021008Y013620D02*
X020980Y013648D01*
X020980Y014491D01*
X021980Y014491D01*
X022438Y014491D02*
X022884Y014491D01*
X022884Y014686D02*
X022433Y014686D01*
X022433Y014295D02*
X022921Y014295D01*
X022957Y014100D02*
X022238Y014100D01*
X022203Y013905D02*
X022762Y013905D01*
X021722Y014100D02*
X021238Y014100D01*
X021361Y013905D02*
X021465Y013905D01*
X020722Y014100D02*
X017860Y014100D01*
X017860Y014295D02*
X020527Y014295D01*
X020522Y014491D02*
X017860Y014491D01*
X017860Y014686D02*
X020527Y014686D01*
X021238Y014881D02*
X021307Y014881D01*
X021481Y015272D02*
X021550Y015272D01*
X021522Y015467D02*
X021438Y015467D01*
X021438Y015663D02*
X021522Y015663D01*
X020654Y013905D02*
X017860Y013905D01*
X017860Y013709D02*
X020633Y013709D01*
X020633Y013514D02*
X017860Y013514D01*
X017950Y013318D02*
X020672Y013318D01*
X015101Y014998D02*
X015023Y014979D01*
X014946Y014998D01*
X015023Y015309D01*
X015101Y014998D01*
X015023Y014979D02*
X015023Y015382D01*
X014303Y015971D02*
X014275Y016061D01*
X014275Y015963D01*
X014275Y016061D01*
X014104Y017812D02*
X014039Y017812D01*
X014039Y018007D02*
X014299Y018007D01*
X014495Y018202D02*
X014039Y018202D01*
X014039Y018398D02*
X014574Y018398D01*
X014588Y018593D02*
X014039Y018593D01*
X014039Y018788D02*
X014784Y018788D01*
X015342Y018788D02*
X015784Y018788D01*
X015588Y018593D02*
X015537Y018593D01*
X015551Y018398D02*
X015574Y018398D01*
X015574Y018202D02*
X015551Y018202D01*
X015414Y018007D02*
X015384Y018007D01*
X015414Y017812D02*
X015318Y017812D01*
X016342Y018788D02*
X016359Y018788D01*
X016542Y018984D02*
X014039Y018984D01*
X014039Y019960D02*
X028623Y019960D01*
X028980Y019960D02*
X028980Y019960D01*
X028980Y019765D02*
X028980Y019765D01*
X030569Y016053D02*
X032266Y016053D01*
X039748Y015077D02*
X039859Y015077D01*
X039944Y015272D02*
X040054Y015272D01*
X040060Y015467D02*
X039989Y015467D01*
X040025Y015663D02*
X040060Y015663D01*
X040047Y016249D02*
X039936Y016249D01*
X042781Y014881D02*
X042888Y014881D01*
X039824Y014100D02*
X039756Y014100D01*
X047216Y018077D02*
X047267Y018128D01*
X048122Y020069D02*
X049027Y020069D01*
X050551Y020069D01*
X051047Y020565D01*
X048134Y020924D02*
X048122Y020872D01*
X043448Y020742D02*
X043248Y020742D01*
X043268Y020546D02*
X043365Y020546D01*
X043324Y020351D02*
X043268Y020351D01*
X016716Y008916D02*
X016204Y008916D01*
X016224Y008838D01*
X016535Y008916D01*
X016224Y008993D01*
X016204Y008916D01*
X022168Y003678D02*
X022149Y003601D01*
X022168Y003523D01*
X022480Y003601D01*
X022168Y003678D01*
X022149Y003601D02*
X022592Y003601D01*
X022622Y003571D01*
X015274Y020156D02*
X014039Y020156D01*
X014039Y020351D02*
X015258Y020351D01*
X015258Y020546D02*
X014039Y020546D01*
X014039Y020742D02*
X015258Y020742D01*
X015258Y020937D02*
X014039Y020937D01*
X014039Y021132D02*
X015258Y021132D01*
X015258Y021328D02*
X014039Y021328D01*
D39*
X024059Y021120D02*
X024571Y021120D01*
X024689Y021081D01*
X042767Y019105D02*
X042909Y019246D01*
X043523Y019246D01*
X046212Y017607D02*
X046746Y017607D01*
X047216Y018077D01*
X047267Y018128D01*
X047937Y018798D01*
X050279Y018798D01*
X051047Y019565D01*
X051047Y018565D02*
X051043Y018561D01*
X048803Y018561D01*
X048614Y018561D01*
X048122Y018069D01*
X048567Y017624D01*
X048567Y017144D01*
X048252Y016829D01*
X047937Y016829D01*
X047110Y016829D01*
X046887Y016607D01*
X046730Y016607D01*
X046212Y016607D01*
X046212Y017107D02*
X046876Y017107D01*
X046952Y017183D01*
X047008Y017239D01*
X048094Y017239D01*
X048724Y016908D02*
X048842Y017026D01*
X049000Y017183D01*
X049027Y017211D01*
X049027Y018069D01*
X050043Y018069D01*
X050141Y017971D01*
X050574Y017538D01*
X051019Y017538D01*
X051047Y017565D01*
X051035Y017577D01*
X051047Y016565D02*
X049346Y016565D01*
X049315Y016534D01*
X048724Y016908D02*
X048252Y016435D01*
X047700Y015884D01*
X047661Y015845D01*
X047423Y015607D01*
X046212Y015607D01*
X046212Y015107D02*
X047238Y015107D01*
X048055Y015924D01*
X048606Y015924D01*
X048724Y015806D01*
X049256Y015806D01*
X049315Y015865D01*
X048110Y015239D02*
X048763Y014546D01*
X051027Y014546D01*
X051047Y014565D01*
X051559Y014270D02*
X051559Y015054D01*
X051047Y015565D01*
X051559Y014270D02*
X051323Y014034D01*
X049472Y014034D01*
X049157Y014034D01*
X048370Y014034D01*
X048149Y014254D01*
X047267Y014254D01*
X048094Y015239D02*
X048110Y015239D01*
X047136Y016107D02*
X047267Y016239D01*
X047267Y016254D01*
X047136Y016107D02*
X046212Y016107D01*
X032637Y006422D02*
X032293Y006422D01*
X032071Y006199D01*
X032071Y006170D01*
X031864Y005924D01*
X032336Y005451D01*
X032425Y005372D01*
X032463Y005464D01*
X032225Y005562D01*
X032335Y005330D01*
X032425Y005372D01*
X031175Y005924D02*
X030712Y005924D01*
X030748Y005831D01*
X030988Y005924D01*
X030748Y006016D01*
X030712Y005924D01*
D40*
X022149Y003601D03*
X016204Y008916D03*
X015023Y014979D03*
X033567Y018286D03*
D41*
X033519Y018157D01*
X033800Y018052D01*
X033695Y018334D01*
X033567Y018286D01*
X033685Y018168D01*
X033882Y017971D01*
X033882Y017105D01*
X033724Y016947D01*
X033586Y016809D01*
X033586Y016512D01*
X033960Y016790D02*
X034197Y017065D01*
X034197Y018207D01*
X034197Y018246D01*
X034197Y019093D01*
X034571Y019467D01*
X034571Y018443D02*
X035378Y017636D01*
X035378Y014388D01*
X034905Y013916D01*
X034315Y013916D01*
X033960Y014270D01*
X033960Y014664D01*
X033606Y015018D01*
X031795Y015018D01*
X031637Y015018D01*
X031519Y015018D01*
X030063Y015018D01*
X029984Y015097D01*
X029748Y015333D01*
X029527Y015554D01*
X029162Y015554D01*
X029146Y015254D02*
X029162Y015239D01*
X029527Y015239D01*
X029905Y014861D01*
X029945Y014821D01*
X030220Y014546D01*
X030260Y014656D01*
X030025Y014741D01*
X030110Y014506D01*
X030220Y014546D01*
X029806Y014647D02*
X029590Y014772D01*
X029632Y014526D01*
X029748Y014546D01*
X029806Y014647D01*
X029748Y014546D02*
X029590Y014703D01*
X029590Y014821D01*
X029472Y014939D01*
X029178Y014939D01*
X029162Y014924D01*
X029162Y014609D02*
X028315Y014609D01*
X028252Y014546D01*
X028015Y014546D01*
X027189Y014546D01*
X027239Y014439D01*
X027464Y014546D01*
X027239Y014652D01*
X027189Y014546D01*
X027629Y014113D02*
X027740Y014073D01*
X027780Y013963D01*
X027545Y013878D01*
X027629Y014113D01*
X027740Y014073D02*
X027504Y013837D01*
X027425Y013758D01*
X027000Y013333D01*
X027000Y012761D01*
X026370Y012761D02*
X026370Y012388D01*
X025889Y011908D01*
X025889Y011081D01*
X025771Y010963D01*
X025693Y010963D01*
X025496Y010963D01*
X025574Y010963D01*
X025496Y010963D01*
X024551Y010963D01*
X024472Y011042D01*
X024472Y011298D01*
X024472Y011672D01*
X023882Y012262D01*
X023882Y013050D01*
X024342Y013510D01*
X024342Y013522D01*
X024866Y013955D02*
X025023Y013798D01*
X025063Y013758D01*
X025141Y013680D01*
X025766Y013680D01*
X025782Y013664D01*
X025759Y013640D01*
X025782Y013349D02*
X025759Y013325D01*
X025574Y013325D01*
X025496Y013246D01*
X025496Y012931D01*
X025653Y012774D01*
X025653Y012144D01*
X025319Y011809D01*
X025260Y011809D01*
X025260Y011416D01*
X025220Y011337D01*
X025260Y011298D01*
X025260Y010628D02*
X024815Y010183D01*
X024815Y009534D01*
X024815Y008876D01*
X024315Y008876D02*
X024315Y009546D01*
X024354Y009585D01*
X024472Y009703D01*
X024472Y010628D01*
X024078Y010294D02*
X023744Y010628D01*
X023685Y010628D01*
X023212Y010294D02*
X023173Y010333D01*
X022897Y010609D01*
X022897Y010628D01*
X023212Y010294D02*
X023724Y010294D01*
X023882Y010136D01*
X023882Y009782D01*
X023645Y009546D01*
X023370Y009546D01*
X023330Y009506D01*
X023315Y009491D01*
X023315Y008876D01*
X023815Y008876D02*
X023842Y009061D01*
X023842Y009467D01*
X024078Y009703D01*
X024078Y010294D01*
X025811Y010294D02*
X025811Y009782D01*
X025929Y009664D01*
X026126Y009467D01*
X026126Y008050D01*
X026086Y008010D01*
X026086Y006357D01*
X025653Y005924D01*
X025653Y005530D01*
X025889Y005294D01*
X028134Y005294D01*
X028212Y005215D01*
X028651Y004776D01*
X028730Y004650D01*
X028291Y004821D02*
X028291Y004089D01*
X028730Y003650D01*
X029197Y004231D02*
X029197Y004821D01*
X028803Y005215D01*
X028645Y005215D01*
X028449Y005412D01*
X028409Y005451D01*
X028409Y006199D01*
X028134Y006475D01*
X028134Y006802D01*
X028106Y006829D01*
X028606Y006829D02*
X028606Y006081D01*
X028763Y005924D01*
X028763Y005845D01*
X028677Y005758D01*
X028795Y005833D01*
X029464Y005833D02*
X029472Y005825D01*
X029472Y005412D01*
X029630Y005254D01*
X029826Y005254D01*
X030220Y004861D01*
X030220Y004388D01*
X030260Y004349D01*
X030456Y004152D01*
X031204Y004152D01*
X031706Y003650D01*
X031730Y003650D01*
X032228Y004152D02*
X032730Y003650D01*
X032228Y004152D02*
X032228Y004861D01*
X031913Y005176D01*
X030496Y005176D01*
X030102Y005569D01*
X029984Y005569D01*
X029787Y005806D01*
X029787Y006081D01*
X029669Y006199D01*
X029236Y006199D01*
X029106Y006329D01*
X029106Y006829D01*
X030063Y007774D02*
X030106Y007817D01*
X030106Y008876D01*
X029118Y008888D02*
X029118Y009585D01*
X029330Y009798D01*
X029342Y009758D01*
X029342Y010428D02*
X029342Y010817D01*
X029197Y010963D01*
X029133Y010864D01*
X029342Y010729D01*
X029313Y010977D01*
X029197Y010963D01*
X028748Y010864D02*
X028685Y010963D01*
X028568Y010977D01*
X028539Y010729D01*
X028748Y010864D01*
X028685Y010963D02*
X028539Y010817D01*
X028539Y010396D01*
X028606Y009857D02*
X028539Y009727D01*
X028606Y009857D02*
X028606Y008876D01*
X029106Y008876D02*
X029118Y008888D01*
X028106Y008876D02*
X028094Y008888D01*
X028094Y009113D01*
X028094Y009388D01*
X028055Y009428D01*
X027976Y009506D01*
X027870Y009732D01*
X027976Y009782D01*
X028082Y009732D01*
X027976Y009506D01*
X027976Y009782D01*
X026165Y010498D02*
X026126Y010609D01*
X026015Y010648D01*
X025931Y010414D01*
X026165Y010498D01*
X026126Y010609D02*
X025929Y010412D01*
X025811Y010294D01*
X025815Y008876D02*
X025815Y008203D01*
X025417Y007806D01*
X025417Y007498D01*
X025574Y007341D01*
X025574Y006239D01*
X025417Y006081D01*
X025417Y005451D01*
X025732Y005136D01*
X026362Y005136D01*
X026952Y005136D01*
X027976Y005136D01*
X028291Y004821D01*
X029197Y004231D02*
X029315Y004113D01*
X030260Y004113D01*
X030299Y004073D01*
X030722Y003650D01*
X030730Y003650D01*
X032346Y005034D02*
X032730Y004650D01*
X032346Y005034D02*
X032330Y005034D01*
X031992Y005372D01*
X030614Y005372D01*
X030417Y005569D01*
X030417Y006317D01*
X030574Y006475D01*
X030594Y006494D01*
X030968Y006494D01*
X030968Y007065D02*
X030968Y007735D01*
X031519Y008128D01*
X031519Y008207D01*
X031519Y008975D01*
X031441Y009054D01*
X031801Y009059D01*
X032740Y009059D01*
X032740Y009559D02*
X032765Y009585D01*
X033094Y009585D01*
X033252Y009743D01*
X033409Y009743D01*
X033527Y009624D01*
X033527Y008443D01*
X033882Y008089D01*
X035535Y008089D01*
X035771Y008325D01*
X036637Y008325D01*
X036756Y008207D01*
X036756Y006317D01*
X036559Y006120D01*
X035417Y006120D01*
X035116Y006422D01*
X034497Y006422D01*
X034432Y006357D01*
X034078Y006357D01*
X033882Y006160D01*
X033882Y005294D01*
X033730Y005142D01*
X033730Y004650D01*
X034078Y005294D02*
X034078Y005806D01*
X034236Y005963D01*
X034393Y005963D01*
X034474Y005922D01*
X034497Y005922D01*
X034393Y005963D02*
X034628Y005963D01*
X034669Y005922D01*
X035281Y005922D01*
X036675Y005922D01*
X036913Y006160D01*
X036952Y006199D01*
X036952Y008286D01*
X036716Y008522D01*
X035693Y008522D01*
X035417Y008246D01*
X034000Y008246D01*
X033685Y008561D01*
X033685Y009703D01*
X033330Y010057D01*
X033328Y010059D01*
X032740Y010059D01*
X034787Y009559D02*
X035935Y009559D01*
X035949Y009546D01*
X032637Y007422D02*
X032017Y007422D01*
X031795Y007644D01*
X030968Y007164D02*
X030830Y007085D01*
X030968Y007065D01*
X031795Y006644D02*
X032073Y006922D01*
X032637Y006922D01*
X034236Y006396D02*
X034472Y006396D01*
X034497Y006421D01*
X034497Y006422D01*
X034472Y006396D02*
X034525Y006396D01*
X035110Y006671D02*
X035220Y006711D01*
X035260Y006822D01*
X035025Y006906D01*
X035110Y006671D01*
X035220Y006711D02*
X035023Y006908D01*
X034510Y006908D01*
X034497Y006922D01*
X034078Y005294D02*
X034722Y004650D01*
X034730Y004650D01*
X041441Y004516D02*
X041510Y004516D01*
X041677Y004349D01*
X041874Y004349D01*
X042102Y004349D01*
X042106Y004345D01*
X041441Y005205D02*
X041580Y005345D01*
X042106Y005345D01*
X042106Y006345D02*
X041620Y006345D01*
X041480Y006485D01*
X041480Y007174D02*
X041651Y007345D01*
X042106Y007345D01*
X041854Y011254D02*
X041854Y011337D01*
X041519Y011672D01*
X041244Y011947D01*
X041244Y012085D01*
X041126Y012203D01*
X041106Y012183D01*
X040378Y012183D01*
X040428Y012077D01*
X040653Y012183D01*
X040428Y012290D01*
X040378Y012183D01*
X039571Y013522D02*
X040023Y013975D01*
X040023Y014624D01*
X040456Y015057D01*
X040456Y015569D01*
X040771Y015884D01*
X041677Y015884D01*
X041954Y015607D01*
X042252Y015607D01*
X042252Y016107D02*
X040718Y016107D01*
X040260Y015648D01*
X040260Y015195D01*
X039571Y014506D01*
X039571Y015491D02*
X040687Y016607D01*
X042252Y016607D01*
X042252Y017107D02*
X040813Y017107D01*
X040417Y016711D01*
X040181Y016475D01*
X039571Y016475D01*
X039571Y017459D02*
X040338Y017459D01*
X040378Y017498D01*
X040486Y017607D01*
X042252Y017607D01*
X041913Y018089D02*
X041756Y017931D01*
X040220Y017931D01*
X040181Y017971D01*
X040141Y018010D01*
X040124Y018028D01*
X039986Y018028D01*
X039571Y018443D01*
X041913Y018089D02*
X042234Y018089D01*
X042252Y018107D01*
X043523Y019994D02*
X043523Y020369D01*
X043685Y020530D01*
X043569Y020552D01*
X043523Y020307D01*
X043742Y020427D01*
X043685Y020530D01*
X035220Y015825D02*
X034571Y016475D01*
X034118Y016632D02*
X034118Y016002D01*
X033960Y015845D01*
X033763Y015648D01*
X032110Y015648D01*
X031323Y015648D01*
X031086Y015648D01*
X030456Y015648D01*
X029708Y016396D01*
X029472Y016396D01*
X029393Y016475D01*
X029118Y016750D01*
X029118Y017026D01*
X028763Y017380D01*
X028291Y017380D01*
X028341Y017274D01*
X028567Y017380D01*
X028341Y017487D01*
X028291Y017380D01*
X028566Y017663D02*
X028606Y017774D01*
X028717Y017814D01*
X028801Y017579D01*
X028566Y017663D01*
X028606Y017774D02*
X029275Y017105D01*
X029275Y016829D01*
X029551Y016554D01*
X029787Y016554D01*
X030535Y015806D01*
X031008Y015806D01*
X031244Y015806D01*
X033685Y015806D01*
X033960Y016081D01*
X033960Y016790D01*
X034118Y016632D02*
X034433Y016947D01*
X034551Y017065D01*
X034551Y017439D01*
X034571Y017459D01*
X033586Y017540D02*
X033567Y017442D01*
X033488Y017341D01*
X033252Y017341D01*
X032838Y016928D01*
X032838Y016512D01*
X032819Y016492D01*
X032819Y016317D01*
X032582Y016081D01*
X032693Y016041D01*
X032777Y016276D01*
X032543Y016192D01*
X032582Y016081D01*
X032031Y015491D02*
X031401Y015491D01*
X031165Y015491D01*
X030378Y015491D01*
X029630Y016239D01*
X029393Y016239D01*
X029354Y016278D01*
X029315Y016317D01*
X028960Y016672D01*
X028960Y016750D01*
X028724Y016987D01*
X028684Y016876D01*
X028919Y016792D01*
X028835Y017026D01*
X028724Y016987D01*
X028803Y016554D02*
X028370Y016554D01*
X028260Y016443D01*
X028260Y016141D01*
X028574Y016141D02*
X028625Y016181D01*
X028900Y016179D01*
X028921Y016160D01*
X029157Y015924D01*
X029393Y015924D01*
X029826Y015491D01*
X029866Y015451D01*
X030141Y015176D01*
X030181Y015176D01*
X031362Y015176D01*
X031559Y015176D01*
X031598Y015176D01*
X031874Y015176D01*
X033685Y015176D01*
X034118Y014743D01*
X034118Y014349D01*
X034393Y014073D01*
X034826Y014073D01*
X035023Y014270D01*
X035220Y014467D01*
X035220Y015825D01*
X034571Y015491D02*
X033803Y015491D01*
X032031Y015491D01*
X031952Y015333D02*
X031480Y015333D01*
X031323Y015333D01*
X030338Y015333D01*
X030299Y015333D01*
X030063Y015569D01*
X029551Y016081D01*
X029275Y016081D01*
X029197Y016160D01*
X028803Y016554D01*
X030693Y017380D02*
X030693Y017577D01*
X030555Y017715D01*
X030493Y017715D01*
X030693Y017380D02*
X030771Y017302D01*
X030929Y017144D01*
X031086Y017144D01*
X031204Y017026D01*
X031463Y017026D01*
X031522Y016967D01*
X031519Y016965D01*
X031519Y016632D01*
X031626Y016682D01*
X031519Y016908D01*
X031413Y016682D01*
X031519Y016632D01*
X031522Y017715D02*
X031522Y018052D01*
X031598Y018128D01*
X031598Y018691D01*
X031598Y019664D02*
X031598Y019691D01*
X026204Y017882D02*
X026204Y016750D01*
X026401Y016554D01*
X026559Y016554D01*
X026637Y016475D01*
X026637Y016317D01*
X026685Y016270D01*
X026685Y016141D01*
X026370Y016141D02*
X026370Y016309D01*
X026165Y016514D01*
X026051Y016514D01*
X025866Y016699D01*
X025197Y016699D02*
X024413Y017483D01*
X024374Y017528D01*
X025752Y018335D02*
X025752Y019024D01*
X025761Y019034D01*
X025752Y018335D02*
X026204Y017882D01*
X024984Y015924D02*
X024873Y015963D01*
X024789Y015729D01*
X025024Y015813D01*
X024984Y015924D01*
X024787Y015727D01*
X024787Y015294D01*
X025157Y014924D01*
X025782Y014924D01*
X025766Y014624D02*
X025417Y014624D01*
X025299Y014624D01*
X025220Y014624D01*
X025063Y014782D01*
X024669Y015176D01*
X022819Y015176D01*
X022543Y015176D01*
X022295Y015176D01*
X021980Y015491D01*
X021492Y014979D02*
X020980Y015491D01*
X021492Y014979D02*
X022897Y014979D01*
X024590Y014979D01*
X024905Y014664D01*
X024905Y014428D01*
X025039Y014294D01*
X025782Y014294D01*
X025782Y014609D02*
X025766Y014624D01*
X025782Y015239D02*
X025766Y015254D01*
X025260Y015254D01*
X025141Y015372D01*
X025102Y015412D01*
X025082Y015296D01*
X025328Y015254D01*
X025204Y015470D01*
X025102Y015412D01*
X025782Y015554D02*
X026220Y015554D01*
X026441Y015333D01*
X026480Y015444D01*
X026246Y015528D01*
X026330Y015293D01*
X026441Y015333D01*
X025782Y013979D02*
X025759Y013955D01*
X025181Y013955D01*
X025023Y014113D01*
X024866Y014113D01*
X023645Y014113D01*
X023527Y013994D01*
X023134Y013994D01*
X022700Y013561D01*
X022700Y012026D01*
X022897Y011829D01*
X022897Y011298D01*
X023685Y011298D02*
X022897Y012124D01*
X022897Y012144D01*
X022897Y013077D01*
X023342Y013522D01*
X023775Y013955D01*
X024866Y013955D01*
X025216Y012522D02*
X024342Y012522D01*
X025216Y012522D02*
X025260Y012479D01*
X022897Y012144D02*
X022897Y012124D01*
X022897Y012144D01*
X020889Y011534D02*
X020555Y011908D01*
X019393Y011908D01*
X019275Y012026D01*
X018882Y012420D01*
X018567Y012420D01*
X017937Y013050D01*
X017661Y013325D01*
X017661Y014624D01*
X016874Y015412D01*
X016874Y016199D01*
X016913Y016239D01*
X018051Y017376D01*
X018063Y017376D01*
X017543Y017105D02*
X016716Y016278D01*
X016716Y015333D01*
X017504Y014546D01*
X017504Y013246D01*
X017858Y012892D01*
X018488Y012262D01*
X018803Y012262D01*
X019078Y011987D01*
X019078Y011770D01*
X019315Y011534D01*
X019000Y011199D02*
X018882Y011317D01*
X018842Y011357D01*
X018842Y011987D01*
X018724Y012105D01*
X018409Y012105D01*
X017819Y012695D01*
X017622Y012892D01*
X017346Y013168D01*
X017346Y014467D01*
X016559Y015254D01*
X016559Y016357D01*
X017063Y016861D01*
X017063Y017376D01*
X017543Y017105D02*
X017543Y017853D01*
X017504Y017892D01*
X017504Y017931D01*
X017063Y018372D01*
X017063Y018376D01*
X016559Y018719D02*
X016559Y016593D01*
X016441Y016475D01*
X016401Y016435D01*
X016401Y015176D01*
X017189Y014388D01*
X017189Y013089D01*
X017700Y012577D01*
X017740Y012538D01*
X018291Y011987D01*
X018291Y011691D01*
X018409Y011573D01*
X018074Y011239D02*
X018409Y010904D01*
X019000Y011199D02*
X020063Y011199D01*
X020102Y011239D01*
X020102Y011534D01*
X020102Y010865D02*
X020063Y010825D01*
X020063Y010333D01*
X020141Y010254D01*
X020574Y009821D01*
X021126Y009821D01*
X021441Y009506D01*
X021795Y009152D01*
X021952Y008994D01*
X021952Y008955D01*
X021952Y008128D01*
X022346Y007735D01*
X024078Y007735D01*
X024315Y007498D01*
X024315Y006829D01*
X024315Y005727D01*
X024708Y005333D01*
X024708Y004672D01*
X024730Y004650D01*
X024236Y004309D02*
X024393Y004152D01*
X026232Y004152D01*
X026730Y004650D01*
X025730Y004650D02*
X024815Y005565D01*
X024815Y006829D01*
X024815Y007117D01*
X024748Y007183D01*
X024748Y007538D01*
X024354Y007931D01*
X022386Y007931D01*
X022110Y008207D01*
X022110Y008994D01*
X022110Y009073D01*
X021519Y009664D01*
X021204Y009979D01*
X020693Y009979D01*
X020614Y010057D01*
X020614Y010589D01*
X020889Y010865D01*
X020102Y010865D02*
X020102Y010845D01*
X019905Y010254D02*
X019472Y010687D01*
X019354Y010806D01*
X019315Y010865D01*
X019551Y010176D02*
X019708Y010176D01*
X020417Y009467D01*
X021008Y009467D01*
X021283Y009191D01*
X021362Y009113D01*
X021637Y008837D01*
X021637Y007892D01*
X021637Y007853D01*
X021756Y007735D01*
X021756Y003404D01*
X022071Y003089D01*
X023094Y003089D01*
X024590Y003089D01*
X024730Y003229D01*
X024730Y003650D01*
X024236Y004309D02*
X024236Y005176D01*
X023815Y005597D01*
X023815Y006829D01*
X023803Y006920D01*
X023803Y007302D01*
X023803Y007459D01*
X023685Y007577D01*
X022267Y007577D01*
X021795Y008050D01*
X021795Y008876D01*
X021795Y008916D01*
X021362Y009349D01*
X021086Y009624D01*
X021047Y009664D01*
X020496Y009664D01*
X019905Y010254D01*
X019551Y010176D02*
X017031Y010176D01*
X016952Y010254D01*
X016834Y010372D01*
X016834Y010904D01*
X016559Y011239D02*
X016401Y011081D01*
X016401Y010569D01*
X016952Y010018D01*
X019590Y010018D01*
X020338Y009270D01*
X020968Y009270D01*
X021204Y009034D01*
X021480Y008758D01*
X021480Y007813D01*
X021480Y007774D01*
X021598Y007656D01*
X021598Y003325D01*
X021992Y002931D01*
X023015Y002931D01*
X025535Y002931D01*
X025730Y003126D01*
X025730Y003650D01*
X023730Y003650D02*
X023015Y004365D01*
X023015Y005057D01*
X023330Y005372D01*
X023330Y006813D01*
X023315Y006829D01*
X021480Y007774D02*
X021480Y007813D01*
X021480Y007774D01*
X017728Y010541D02*
X017622Y010491D01*
X017515Y010541D01*
X017622Y010766D01*
X017728Y010541D01*
X017622Y010491D02*
X017622Y010904D01*
X018074Y011239D02*
X016559Y011239D01*
X016834Y011573D02*
X017149Y011888D01*
X017149Y012617D01*
X016913Y012853D01*
X016874Y012931D01*
X016874Y014231D01*
X016086Y015018D01*
X016086Y016357D01*
X015614Y016829D01*
X015614Y017931D01*
X015693Y018010D01*
X016059Y018376D01*
X016063Y018376D01*
X016559Y018719D02*
X016795Y018955D01*
X017464Y018955D01*
X018043Y018376D01*
X018063Y018376D01*
X016063Y017376D02*
X016063Y016617D01*
X016244Y016435D01*
X016244Y015097D01*
X017031Y014309D01*
X017031Y013010D01*
X017622Y012420D01*
X017622Y011573D01*
X027945Y012761D02*
X027945Y013057D01*
X028094Y013207D01*
X028094Y013719D01*
X027988Y013669D01*
X028094Y013443D01*
X028200Y013669D01*
X028094Y013719D01*
X029162Y013664D02*
X029882Y013664D01*
X030756Y013664D01*
X030929Y013837D01*
X031047Y013837D01*
X032622Y013837D01*
X032661Y013837D01*
X033449Y013050D01*
X033763Y013050D01*
X033713Y013156D01*
X033488Y013050D01*
X033713Y012943D01*
X033763Y013050D01*
X033409Y012853D02*
X033409Y012538D01*
X033409Y012380D01*
X033370Y012341D01*
X033476Y012115D01*
X033370Y012065D01*
X033263Y012115D01*
X033370Y012341D01*
X033370Y012065D01*
X033420Y011959D01*
X033645Y012065D01*
X033420Y012172D01*
X033370Y012065D01*
X034059Y012065D01*
X034071Y012077D01*
X033409Y012853D02*
X033291Y012971D01*
X032582Y013680D01*
X031008Y013680D01*
X030811Y013483D01*
X029708Y013483D01*
X029574Y013349D01*
X029162Y013349D01*
X029162Y013979D02*
X029874Y013979D01*
X030756Y013979D01*
X030889Y014113D01*
X031622Y014113D01*
X031870Y014361D01*
X031870Y014353D01*
X032228Y013994D01*
X032708Y013994D01*
X032941Y013991D01*
X033252Y013680D01*
X033291Y013790D01*
X033057Y013874D01*
X033141Y013640D01*
X033252Y013680D01*
X033803Y014191D02*
X034236Y013719D01*
X034374Y013719D01*
X034571Y013522D01*
X033803Y014191D02*
X033803Y014585D01*
X033527Y014861D01*
X031637Y014861D01*
X031519Y014743D01*
X031480Y014703D01*
X031480Y014388D01*
X031362Y014270D01*
X030811Y014270D01*
X030693Y014152D01*
X029708Y014152D01*
X029567Y014294D01*
X029162Y014294D01*
X029882Y013664D02*
X030756Y013664D01*
X029882Y013664D01*
X030756Y013664D01*
X029882Y013664D01*
X028574Y012761D02*
X028574Y012294D01*
X029000Y011869D01*
X029374Y011869D01*
X029413Y011908D01*
X028279Y012115D02*
X028173Y012065D01*
X028067Y012115D01*
X028173Y012341D01*
X028279Y012115D01*
X028173Y012065D02*
X028173Y012341D01*
X028252Y012420D01*
X028252Y012753D01*
X028260Y012761D01*
X031952Y015333D02*
X033763Y015333D01*
X033803Y015294D01*
X034236Y014861D01*
X034315Y014782D01*
X034315Y014762D01*
X034571Y014506D01*
D42*
X030752Y011908D02*
X030082Y011908D01*
X024374Y017528D02*
X023763Y017528D01*
X023606Y017508D01*
X043523Y019246D02*
X043897Y019246D01*
X043921Y019270D01*
X044039Y019388D01*
X044039Y019900D01*
X044078Y019939D01*
X044134Y019994D01*
X044508Y019994D01*
X044354Y007853D02*
X044000Y007498D01*
X044000Y007459D01*
X044000Y007077D01*
X043988Y007065D01*
X043988Y006396D02*
X044039Y006345D01*
X045106Y006345D01*
X045693Y006357D02*
X045693Y006758D01*
X045106Y007345D01*
X045653Y007853D02*
X044354Y007853D01*
X045653Y007853D02*
X045771Y007735D01*
X046181Y007325D01*
X046224Y007325D01*
X046224Y006262D02*
X045787Y006262D01*
X045693Y006357D01*
X045378Y005806D02*
X044197Y005806D01*
X044078Y005687D01*
X043988Y005597D01*
X043988Y005376D01*
X045106Y005345D02*
X045456Y004994D01*
X045456Y004664D01*
X045732Y004388D01*
X045732Y003955D01*
X046023Y003664D01*
X046141Y003664D01*
X045106Y004345D02*
X044350Y004345D01*
X043988Y004707D01*
X045378Y005806D02*
X045811Y005372D01*
X045811Y004939D01*
X046023Y004727D01*
X046141Y004727D01*
D43*
X036937Y004597D02*
X036872Y004650D01*
X035730Y004650D01*
M02*
